<svg width="669" height="220" viewBox="0 0 669 220" fill="none" xmlns="http://www.w3.org/2000/svg">
<path d="M174.415 214L170.975 202.8H173.407L175.567 210.592L177.759 202.8H180.159L176.719 214H174.415ZM185.469 214.128C184.648 214.128 183.917 213.947 183.277 213.584C182.637 213.221 182.13 212.731 181.757 212.112C181.394 211.483 181.213 210.768 181.213 209.968C181.213 209.168 181.394 208.459 181.757 207.84C182.13 207.211 182.637 206.715 183.277 206.352C183.917 205.989 184.648 205.808 185.469 205.808C186.301 205.808 187.032 205.989 187.661 206.352C188.301 206.715 188.802 207.211 189.165 207.84C189.538 208.459 189.725 209.168 189.725 209.968C189.725 210.768 189.538 211.483 189.165 212.112C188.802 212.731 188.301 213.221 187.661 213.584C187.032 213.947 186.301 214.128 185.469 214.128ZM185.469 212.224C185.874 212.224 186.226 212.128 186.525 211.936C186.834 211.744 187.069 211.483 187.229 211.152C187.4 210.811 187.485 210.416 187.485 209.968C187.485 209.52 187.4 209.131 187.229 208.8C187.069 208.459 186.834 208.192 186.525 208C186.226 207.808 185.874 207.712 185.469 207.712C185.074 207.712 184.722 207.808 184.413 208C184.104 208.192 183.864 208.459 183.693 208.8C183.533 209.131 183.453 209.52 183.453 209.968C183.453 210.416 183.533 210.811 183.693 211.152C183.864 211.483 184.104 211.744 184.413 211.936C184.722 212.128 185.074 212.224 185.469 212.224ZM195.051 214V208.352C195.051 207.979 194.865 207.792 194.491 207.792H191.419V205.936H195.147C195.809 205.936 196.326 206.128 196.699 206.512C197.083 206.885 197.275 207.403 197.275 208.064V214H195.051ZM194.987 202.432H197.355V204.784H194.987V202.432ZM205.385 214.128C204.553 214.128 203.823 213.947 203.193 213.584C202.575 213.211 202.095 212.709 201.753 212.08C201.412 211.451 201.241 210.747 201.241 209.968C201.241 209.381 201.337 208.837 201.529 208.336C201.721 207.835 202.004 207.392 202.377 207.008C202.751 206.624 203.188 206.331 203.689 206.128C204.201 205.915 204.767 205.808 205.385 205.808C206.1 205.808 206.745 205.941 207.321 206.208C207.897 206.475 208.361 206.843 208.713 207.312C209.076 207.781 209.284 208.331 209.337 208.96H207.097C207.055 208.715 206.953 208.501 206.793 208.32C206.633 208.139 206.436 207.995 206.201 207.888C205.977 207.771 205.732 207.712 205.465 207.712C205.06 207.712 204.713 207.813 204.425 208.016C204.137 208.208 203.919 208.469 203.769 208.8C203.62 209.131 203.545 209.52 203.545 209.968C203.545 210.405 203.62 210.795 203.769 211.136C203.929 211.467 204.153 211.733 204.441 211.936C204.729 212.128 205.076 212.224 205.481 212.224C205.897 212.224 206.255 212.112 206.553 211.888C206.852 211.653 207.039 211.36 207.113 211.008H209.385C209.3 211.616 209.076 212.155 208.713 212.624C208.351 213.093 207.881 213.461 207.305 213.728C206.74 213.995 206.1 214.128 205.385 214.128ZM215.319 214.128C214.637 214.128 214.034 214.011 213.511 213.776C212.999 213.531 212.567 213.205 212.215 212.8C211.874 212.395 211.613 211.947 211.431 211.456C211.261 210.965 211.175 210.464 211.175 209.952C211.175 209.44 211.255 208.939 211.415 208.448C211.575 207.957 211.815 207.515 212.135 207.12C212.466 206.715 212.882 206.395 213.383 206.16C213.885 205.925 214.477 205.808 215.159 205.808C215.874 205.808 216.482 205.925 216.983 206.16C217.485 206.395 217.89 206.704 218.199 207.088C218.519 207.472 218.754 207.899 218.903 208.368C219.053 208.827 219.127 209.285 219.127 209.744C219.127 209.893 219.122 210.032 219.111 210.16C219.111 210.277 219.106 210.379 219.095 210.464H212.471V209.04H216.919C216.887 208.592 216.722 208.213 216.423 207.904C216.125 207.595 215.703 207.44 215.159 207.44C214.861 207.44 214.594 207.493 214.359 207.6C214.125 207.707 213.927 207.867 213.767 208.08C213.607 208.293 213.485 208.555 213.399 208.864C213.325 209.163 213.287 209.515 213.287 209.92C213.287 210.4 213.362 210.821 213.511 211.184C213.671 211.536 213.901 211.813 214.199 212.016C214.509 212.208 214.882 212.304 215.319 212.304C215.767 212.304 216.135 212.219 216.423 212.048C216.711 211.867 216.898 211.605 216.983 211.264H219.159C219.063 211.851 218.834 212.357 218.471 212.784C218.109 213.211 217.655 213.541 217.111 213.776C216.578 214.011 215.981 214.128 215.319 214.128ZM221.222 217.264V205.936H223.462V206.784C223.707 206.485 224.032 206.251 224.438 206.08C224.854 205.899 225.302 205.808 225.782 205.808C226.539 205.808 227.19 205.984 227.734 206.336C228.288 206.688 228.715 207.173 229.014 207.792C229.312 208.411 229.462 209.136 229.462 209.968C229.462 210.587 229.376 211.152 229.206 211.664C229.035 212.176 228.79 212.619 228.47 212.992C228.15 213.355 227.766 213.637 227.318 213.84C226.87 214.032 226.368 214.128 225.814 214.128C225.483 214.128 225.168 214.085 224.87 214C224.571 213.925 224.299 213.813 224.054 213.664C223.819 213.504 223.622 213.323 223.462 213.12V217.264H221.222ZM225.302 212.224C225.6 212.224 225.867 212.171 226.102 212.064C226.347 211.957 226.555 211.803 226.726 211.6C226.907 211.397 227.04 211.163 227.126 210.896C227.222 210.619 227.27 210.309 227.27 209.968C227.27 209.285 227.088 208.741 226.726 208.336C226.374 207.92 225.899 207.712 225.302 207.712C225.003 207.712 224.731 207.765 224.486 207.872C224.251 207.979 224.043 208.133 223.862 208.336C223.691 208.539 223.558 208.779 223.462 209.056C223.376 209.323 223.334 209.627 223.334 209.968C223.334 210.64 223.515 211.184 223.878 211.6C224.24 212.016 224.715 212.224 225.302 212.224ZM232.004 214V205.936H234.244V207.28C234.457 206.779 234.724 206.432 235.044 206.24C235.364 206.037 235.769 205.936 236.26 205.936H238.804V207.792H235.844C235.481 207.792 235.177 207.888 234.932 208.08C234.697 208.272 234.521 208.539 234.404 208.88C234.297 209.221 234.244 209.621 234.244 210.08V214H232.004ZM244.562 214V208.352C244.562 207.979 244.375 207.792 244.002 207.792H240.93V205.936H244.658C245.319 205.936 245.836 206.128 246.21 206.512C246.594 206.885 246.786 207.403 246.786 208.064V214H244.562ZM244.498 202.432H246.866V204.784H244.498V202.432ZM250.944 214V205.936H253.168V207.056C253.403 206.672 253.733 206.368 254.16 206.144C254.587 205.92 255.077 205.808 255.632 205.808C256.24 205.808 256.768 205.947 257.216 206.224C257.664 206.491 258.011 206.864 258.256 207.344C258.501 207.813 258.624 208.357 258.624 208.976V214H256.4V209.472C256.4 208.981 256.256 208.581 255.968 208.272C255.68 207.952 255.301 207.792 254.832 207.792C254.512 207.792 254.224 207.872 253.968 208.032C253.723 208.181 253.525 208.389 253.376 208.656C253.237 208.923 253.168 209.232 253.168 209.584V214H250.944ZM265.326 214C264.419 214 263.699 213.739 263.166 213.216C262.643 212.683 262.382 211.963 262.382 211.056V207.792H260.43V205.936H262.382V203.552H264.606V205.936H267.534V207.792H264.606V210.96C264.606 211.323 264.713 211.611 264.926 211.824C265.139 212.037 265.427 212.144 265.79 212.144H268.702V214H265.326ZM280.746 214V202.8H285.002C285.802 202.8 286.48 202.955 287.034 203.264C287.6 203.563 288.032 203.979 288.33 204.512C288.629 205.035 288.778 205.643 288.778 206.336C288.778 206.848 288.693 207.323 288.522 207.76C288.362 208.187 288.117 208.56 287.786 208.88C287.466 209.189 287.072 209.435 286.602 209.616C286.133 209.787 285.6 209.872 285.002 209.872H283.162V214H280.746ZM283.162 207.872H284.874C285.248 207.872 285.552 207.803 285.786 207.664C286.021 207.515 286.192 207.323 286.298 207.088C286.405 206.853 286.458 206.603 286.458 206.336C286.458 206.059 286.405 205.808 286.298 205.584C286.192 205.349 286.021 205.163 285.786 205.024C285.552 204.875 285.248 204.8 284.874 204.8H283.162V207.872ZM291.416 214V205.936H293.656V207.28C293.87 206.779 294.136 206.432 294.456 206.24C294.776 206.037 295.182 205.936 295.672 205.936H298.216V207.792H295.256C294.894 207.792 294.59 207.888 294.344 208.08C294.11 208.272 293.934 208.539 293.816 208.88C293.71 209.221 293.656 209.621 293.656 210.08V214H291.416ZM304.295 214.128C303.473 214.128 302.743 213.947 302.103 213.584C301.463 213.221 300.956 212.731 300.583 212.112C300.22 211.483 300.039 210.768 300.039 209.968C300.039 209.168 300.22 208.459 300.583 207.84C300.956 207.211 301.463 206.715 302.103 206.352C302.743 205.989 303.473 205.808 304.295 205.808C305.127 205.808 305.857 205.989 306.487 206.352C307.127 206.715 307.628 207.211 307.991 207.84C308.364 208.459 308.551 209.168 308.551 209.968C308.551 210.768 308.364 211.483 307.991 212.112C307.628 212.731 307.127 213.221 306.487 213.584C305.857 213.947 305.127 214.128 304.295 214.128ZM304.295 212.224C304.7 212.224 305.052 212.128 305.351 211.936C305.66 211.744 305.895 211.483 306.055 211.152C306.225 210.811 306.311 210.416 306.311 209.968C306.311 209.52 306.225 209.131 306.055 208.8C305.895 208.459 305.66 208.192 305.351 208C305.052 207.808 304.7 207.712 304.295 207.712C303.9 207.712 303.548 207.808 303.239 208C302.929 208.192 302.689 208.459 302.519 208.8C302.359 209.131 302.279 209.52 302.279 209.968C302.279 210.416 302.359 210.811 302.519 211.152C302.689 211.483 302.929 211.744 303.239 211.936C303.548 212.128 303.9 212.224 304.295 212.224ZM314.309 214.128C313.477 214.128 312.746 213.947 312.117 213.584C311.498 213.211 311.018 212.709 310.677 212.08C310.335 211.451 310.165 210.747 310.165 209.968C310.165 209.381 310.261 208.837 310.453 208.336C310.645 207.835 310.927 207.392 311.301 207.008C311.674 206.624 312.111 206.331 312.613 206.128C313.125 205.915 313.69 205.808 314.309 205.808C315.023 205.808 315.669 205.941 316.245 206.208C316.821 206.475 317.285 206.843 317.637 207.312C317.999 207.781 318.207 208.331 318.261 208.96H316.021C315.978 208.715 315.877 208.501 315.717 208.32C315.557 208.139 315.359 207.995 315.125 207.888C314.901 207.771 314.655 207.712 314.389 207.712C313.983 207.712 313.637 207.813 313.349 208.016C313.061 208.208 312.842 208.469 312.693 208.8C312.543 209.131 312.469 209.52 312.469 209.968C312.469 210.405 312.543 210.795 312.693 211.136C312.853 211.467 313.077 211.733 313.365 211.936C313.653 212.128 313.999 212.224 314.405 212.224C314.821 212.224 315.178 212.112 315.477 211.888C315.775 211.653 315.962 211.36 316.037 211.008H318.309C318.223 211.616 317.999 212.155 317.637 212.624C317.274 213.093 316.805 213.461 316.229 213.728C315.663 213.995 315.023 214.128 314.309 214.128ZM324.243 214.128C323.56 214.128 322.957 214.011 322.435 213.776C321.923 213.531 321.491 213.205 321.139 212.8C320.797 212.395 320.536 211.947 320.355 211.456C320.184 210.965 320.099 210.464 320.099 209.952C320.099 209.44 320.179 208.939 320.339 208.448C320.499 207.957 320.739 207.515 321.059 207.12C321.389 206.715 321.805 206.395 322.307 206.16C322.808 205.925 323.4 205.808 324.083 205.808C324.797 205.808 325.405 205.925 325.907 206.16C326.408 206.395 326.813 206.704 327.123 207.088C327.443 207.472 327.677 207.899 327.827 208.368C327.976 208.827 328.051 209.285 328.051 209.744C328.051 209.893 328.045 210.032 328.035 210.16C328.035 210.277 328.029 210.379 328.019 210.464H321.395V209.04H325.843C325.811 208.592 325.645 208.213 325.347 207.904C325.048 207.595 324.627 207.44 324.083 207.44C323.784 207.44 323.517 207.493 323.283 207.6C323.048 207.707 322.851 207.867 322.691 208.08C322.531 208.293 322.408 208.555 322.323 208.864C322.248 209.163 322.211 209.515 322.211 209.92C322.211 210.4 322.285 210.821 322.435 211.184C322.595 211.536 322.824 211.813 323.123 212.016C323.432 212.208 323.805 212.304 324.243 212.304C324.691 212.304 325.059 212.219 325.347 212.048C325.635 211.867 325.821 211.605 325.907 211.264H328.083C327.987 211.851 327.757 212.357 327.395 212.784C327.032 213.211 326.579 213.541 326.035 213.776C325.501 214.011 324.904 214.128 324.243 214.128ZM334.129 214.128C333.372 214.128 332.721 214.016 332.177 213.792C331.633 213.557 331.206 213.227 330.897 212.8C330.588 212.373 330.412 211.872 330.369 211.296H332.401C332.444 211.637 332.609 211.909 332.897 212.112C333.196 212.315 333.606 212.416 334.129 212.416C334.417 212.416 334.662 212.389 334.865 212.336C335.078 212.272 335.244 212.181 335.361 212.064C335.478 211.947 335.537 211.808 335.537 211.648C335.537 211.424 335.446 211.253 335.265 211.136C335.084 211.019 334.844 210.933 334.545 210.88C334.257 210.827 333.937 210.779 333.585 210.736C333.244 210.693 332.897 210.629 332.545 210.544C332.193 210.459 331.868 210.336 331.569 210.176C331.281 210.005 331.046 209.771 330.865 209.472C330.694 209.163 330.609 208.763 330.609 208.272C330.609 207.781 330.753 207.355 331.041 206.992C331.329 206.619 331.724 206.331 332.225 206.128C332.726 205.915 333.297 205.808 333.937 205.808C334.673 205.808 335.308 205.915 335.841 206.128C336.374 206.341 336.78 206.645 337.057 207.04C337.345 207.424 337.494 207.888 337.505 208.432H335.473C335.452 208.229 335.372 208.053 335.233 207.904C335.105 207.744 334.929 207.621 334.705 207.536C334.481 207.44 334.225 207.392 333.937 207.392C333.553 207.392 333.238 207.461 332.993 207.6C332.748 207.739 332.625 207.931 332.625 208.176C332.625 208.4 332.716 208.571 332.897 208.688C333.078 208.795 333.318 208.875 333.617 208.928C333.916 208.971 334.241 209.013 334.593 209.056C334.956 209.088 335.313 209.141 335.665 209.216C336.017 209.28 336.342 209.397 336.641 209.568C336.94 209.728 337.18 209.957 337.361 210.256C337.542 210.555 337.633 210.949 337.633 211.44C337.633 211.867 337.548 212.251 337.377 212.592C337.217 212.923 336.977 213.2 336.657 213.424C336.348 213.648 335.98 213.824 335.553 213.952C335.126 214.069 334.652 214.128 334.129 214.128ZM344.031 214.128C343.274 214.128 342.623 214.016 342.079 213.792C341.535 213.557 341.108 213.227 340.799 212.8C340.49 212.373 340.314 211.872 340.271 211.296H342.303C342.346 211.637 342.511 211.909 342.799 212.112C343.098 212.315 343.508 212.416 344.031 212.416C344.319 212.416 344.564 212.389 344.767 212.336C344.98 212.272 345.146 212.181 345.263 212.064C345.38 211.947 345.439 211.808 345.439 211.648C345.439 211.424 345.348 211.253 345.167 211.136C344.986 211.019 344.746 210.933 344.447 210.88C344.159 210.827 343.839 210.779 343.487 210.736C343.146 210.693 342.799 210.629 342.447 210.544C342.095 210.459 341.77 210.336 341.471 210.176C341.183 210.005 340.948 209.771 340.767 209.472C340.596 209.163 340.511 208.763 340.511 208.272C340.511 207.781 340.655 207.355 340.943 206.992C341.231 206.619 341.626 206.331 342.127 206.128C342.628 205.915 343.199 205.808 343.839 205.808C344.575 205.808 345.21 205.915 345.743 206.128C346.276 206.341 346.682 206.645 346.959 207.04C347.247 207.424 347.396 207.888 347.407 208.432H345.375C345.354 208.229 345.274 208.053 345.135 207.904C345.007 207.744 344.831 207.621 344.607 207.536C344.383 207.44 344.127 207.392 343.839 207.392C343.455 207.392 343.14 207.461 342.895 207.6C342.65 207.739 342.527 207.931 342.527 208.176C342.527 208.4 342.618 208.571 342.799 208.688C342.98 208.795 343.22 208.875 343.519 208.928C343.818 208.971 344.143 209.013 344.495 209.056C344.858 209.088 345.215 209.141 345.567 209.216C345.919 209.28 346.244 209.397 346.543 209.568C346.842 209.728 347.082 209.957 347.263 210.256C347.444 210.555 347.535 210.949 347.535 211.44C347.535 211.867 347.45 212.251 347.279 212.592C347.119 212.923 346.879 213.2 346.559 213.424C346.25 213.648 345.882 213.824 345.455 213.952C345.028 214.069 344.554 214.128 344.031 214.128ZM362.507 214V204.864H359.435V202.8H367.979V204.864H364.907V214H362.507ZM373.289 214V208.352C373.289 207.979 373.103 207.792 372.729 207.792H369.657V205.936H373.385C374.047 205.936 374.564 206.128 374.937 206.512C375.321 206.885 375.513 207.403 375.513 208.064V214H373.289ZM373.225 202.432H375.593V204.784H373.225V202.432ZM379.032 214V205.936H381.064V206.88C381.181 206.613 381.368 206.368 381.624 206.144C381.89 205.92 382.232 205.808 382.648 205.808C383.021 205.808 383.336 205.915 383.592 206.128C383.848 206.331 384.05 206.603 384.2 206.944C384.328 206.731 384.482 206.539 384.664 206.368C384.845 206.197 385.048 206.064 385.272 205.968C385.506 205.861 385.746 205.808 385.992 205.808C386.386 205.808 386.733 205.909 387.032 206.112C387.341 206.315 387.581 206.608 387.752 206.992C387.922 207.365 388.008 207.824 388.008 208.368V214H385.976V208.928C385.976 208.555 385.922 208.277 385.816 208.096C385.709 207.915 385.538 207.824 385.304 207.824C385.133 207.824 384.989 207.867 384.872 207.952C384.765 208.037 384.68 208.16 384.616 208.32C384.562 208.469 384.536 208.672 384.536 208.928V214H382.504V208.928C382.504 208.555 382.445 208.277 382.328 208.096C382.21 207.915 382.034 207.824 381.8 207.824C381.65 207.824 381.517 207.867 381.4 207.952C381.293 208.037 381.208 208.16 381.144 208.32C381.09 208.469 381.064 208.672 381.064 208.928V214H379.032ZM393.558 214.128C392.875 214.128 392.272 214.011 391.75 213.776C391.238 213.531 390.806 213.205 390.454 212.8C390.112 212.395 389.851 211.947 389.67 211.456C389.499 210.965 389.414 210.464 389.414 209.952C389.414 209.44 389.494 208.939 389.654 208.448C389.814 207.957 390.054 207.515 390.374 207.12C390.704 206.715 391.12 206.395 391.622 206.16C392.123 205.925 392.715 205.808 393.398 205.808C394.112 205.808 394.72 205.925 395.222 206.16C395.723 206.395 396.128 206.704 396.438 207.088C396.758 207.472 396.992 207.899 397.142 208.368C397.291 208.827 397.366 209.285 397.366 209.744C397.366 209.893 397.36 210.032 397.35 210.16C397.35 210.277 397.344 210.379 397.334 210.464H390.71V209.04H395.158C395.126 208.592 394.96 208.213 394.662 207.904C394.363 207.595 393.942 207.44 393.398 207.44C393.099 207.44 392.832 207.493 392.598 207.6C392.363 207.707 392.166 207.867 392.006 208.08C391.846 208.293 391.723 208.555 391.638 208.864C391.563 209.163 391.526 209.515 391.526 209.92C391.526 210.4 391.6 210.821 391.75 211.184C391.91 211.536 392.139 211.813 392.438 212.016C392.747 212.208 393.12 212.304 393.558 212.304C394.006 212.304 394.374 212.219 394.662 212.048C394.95 211.867 395.136 211.605 395.222 211.264H397.398C397.302 211.851 397.072 212.357 396.71 212.784C396.347 213.211 395.894 213.541 395.35 213.776C394.816 214.011 394.219 214.128 393.558 214.128ZM413.298 216.112C412.861 215.461 412.487 214.757 412.178 214C411.879 213.232 411.65 212.443 411.49 211.632C411.33 210.811 411.25 210.011 411.25 209.232C411.25 208.443 411.33 207.643 411.49 206.832C411.65 206.021 411.879 205.232 412.178 204.464C412.487 203.696 412.861 202.992 413.298 202.352H415.442C415.037 203.035 414.685 203.776 414.386 204.576C414.087 205.365 413.853 206.16 413.682 206.96C413.522 207.76 413.442 208.517 413.442 209.232C413.442 209.947 413.522 210.704 413.682 211.504C413.853 212.304 414.087 213.099 414.386 213.888C414.685 214.677 415.037 215.419 415.442 216.112H413.298ZM423.248 214.128C422.491 214.128 421.84 214.016 421.296 213.792C420.752 213.557 420.325 213.227 420.016 212.8C419.707 212.373 419.531 211.872 419.488 211.296H421.52C421.563 211.637 421.728 211.909 422.016 212.112C422.315 212.315 422.725 212.416 423.248 212.416C423.536 212.416 423.781 212.389 423.984 212.336C424.197 212.272 424.363 212.181 424.48 212.064C424.597 211.947 424.656 211.808 424.656 211.648C424.656 211.424 424.565 211.253 424.384 211.136C424.203 211.019 423.963 210.933 423.664 210.88C423.376 210.827 423.056 210.779 422.704 210.736C422.363 210.693 422.016 210.629 421.664 210.544C421.312 210.459 420.987 210.336 420.688 210.176C420.4 210.005 420.165 209.771 419.984 209.472C419.813 209.163 419.728 208.763 419.728 208.272C419.728 207.781 419.872 207.355 420.16 206.992C420.448 206.619 420.843 206.331 421.344 206.128C421.845 205.915 422.416 205.808 423.056 205.808C423.792 205.808 424.427 205.915 424.96 206.128C425.493 206.341 425.899 206.645 426.176 207.04C426.464 207.424 426.613 207.888 426.624 208.432H424.592C424.571 208.229 424.491 208.053 424.352 207.904C424.224 207.744 424.048 207.621 423.824 207.536C423.6 207.44 423.344 207.392 423.056 207.392C422.672 207.392 422.357 207.461 422.112 207.6C421.867 207.739 421.744 207.931 421.744 208.176C421.744 208.4 421.835 208.571 422.016 208.688C422.197 208.795 422.437 208.875 422.736 208.928C423.035 208.971 423.36 209.013 423.712 209.056C424.075 209.088 424.432 209.141 424.784 209.216C425.136 209.28 425.461 209.397 425.76 209.568C426.059 209.728 426.299 209.957 426.48 210.256C426.661 210.555 426.752 210.949 426.752 211.44C426.752 211.867 426.667 212.251 426.496 212.592C426.336 212.923 426.096 213.2 425.776 213.424C425.467 213.648 425.099 213.824 424.672 213.952C424.245 214.069 423.771 214.128 423.248 214.128ZM433.166 214.128C432.484 214.128 431.881 214.011 431.358 213.776C430.846 213.531 430.414 213.205 430.062 212.8C429.721 212.395 429.46 211.947 429.278 211.456C429.108 210.965 429.022 210.464 429.022 209.952C429.022 209.44 429.102 208.939 429.262 208.448C429.422 207.957 429.662 207.515 429.982 207.12C430.313 206.715 430.729 206.395 431.23 206.16C431.732 205.925 432.324 205.808 433.006 205.808C433.721 205.808 434.329 205.925 434.83 206.16C435.332 206.395 435.737 206.704 436.046 207.088C436.366 207.472 436.601 207.899 436.75 208.368C436.9 208.827 436.974 209.285 436.974 209.744C436.974 209.893 436.969 210.032 436.958 210.16C436.958 210.277 436.953 210.379 436.942 210.464H430.318V209.04H434.766C434.734 208.592 434.569 208.213 434.27 207.904C433.972 207.595 433.55 207.44 433.006 207.44C432.708 207.44 432.441 207.493 432.206 207.6C431.972 207.707 431.774 207.867 431.614 208.08C431.454 208.293 431.332 208.555 431.246 208.864C431.172 209.163 431.134 209.515 431.134 209.92C431.134 210.4 431.209 210.821 431.358 211.184C431.518 211.536 431.748 211.813 432.046 212.016C432.356 212.208 432.729 212.304 433.166 212.304C433.614 212.304 433.982 212.219 434.27 212.048C434.558 211.867 434.745 211.605 434.83 211.264H437.006C436.91 211.851 436.681 212.357 436.318 212.784C435.956 213.211 435.502 213.541 434.958 213.776C434.425 214.011 433.828 214.128 433.166 214.128ZM443.036 214.128C442.204 214.128 441.474 213.947 440.844 213.584C440.226 213.211 439.746 212.709 439.404 212.08C439.063 211.451 438.892 210.747 438.892 209.968C438.892 209.381 438.988 208.837 439.18 208.336C439.372 207.835 439.655 207.392 440.028 207.008C440.402 206.624 440.839 206.331 441.34 206.128C441.852 205.915 442.418 205.808 443.036 205.808C443.751 205.808 444.396 205.941 444.972 206.208C445.548 206.475 446.012 206.843 446.364 207.312C446.727 207.781 446.935 208.331 446.988 208.96H444.748C444.706 208.715 444.604 208.501 444.444 208.32C444.284 208.139 444.087 207.995 443.852 207.888C443.628 207.771 443.383 207.712 443.116 207.712C442.711 207.712 442.364 207.813 442.076 208.016C441.788 208.208 441.57 208.469 441.42 208.8C441.271 209.131 441.196 209.52 441.196 209.968C441.196 210.405 441.271 210.795 441.42 211.136C441.58 211.467 441.804 211.733 442.092 211.936C442.38 212.128 442.727 212.224 443.132 212.224C443.548 212.224 443.906 212.112 444.204 211.888C444.503 211.653 444.69 211.36 444.764 211.008H447.036C446.951 211.616 446.727 212.155 446.364 212.624C446.002 213.093 445.532 213.461 444.956 213.728C444.391 213.995 443.751 214.128 443.036 214.128ZM452.826 214.128C452.005 214.128 451.274 213.947 450.634 213.584C449.994 213.221 449.488 212.731 449.114 212.112C448.752 211.483 448.57 210.768 448.57 209.968C448.57 209.168 448.752 208.459 449.114 207.84C449.488 207.211 449.994 206.715 450.634 206.352C451.274 205.989 452.005 205.808 452.826 205.808C453.658 205.808 454.389 205.989 455.018 206.352C455.658 206.715 456.16 207.211 456.522 207.84C456.896 208.459 457.082 209.168 457.082 209.968C457.082 210.768 456.896 211.483 456.522 212.112C456.16 212.731 455.658 213.221 455.018 213.584C454.389 213.947 453.658 214.128 452.826 214.128ZM452.826 212.224C453.232 212.224 453.584 212.128 453.882 211.936C454.192 211.744 454.426 211.483 454.586 211.152C454.757 210.811 454.842 210.416 454.842 209.968C454.842 209.52 454.757 209.131 454.586 208.8C454.426 208.459 454.192 208.192 453.882 208C453.584 207.808 453.232 207.712 452.826 207.712C452.432 207.712 452.08 207.808 451.77 208C451.461 208.192 451.221 208.459 451.05 208.8C450.89 209.131 450.81 209.52 450.81 209.968C450.81 210.416 450.89 210.811 451.05 211.152C451.221 211.483 451.461 211.744 451.77 211.936C452.08 212.128 452.432 212.224 452.826 212.224ZM458.889 214V205.936H461.113V207.056C461.347 206.672 461.678 206.368 462.105 206.144C462.531 205.92 463.022 205.808 463.577 205.808C464.185 205.808 464.713 205.947 465.161 206.224C465.609 206.491 465.955 206.864 466.201 207.344C466.446 207.813 466.569 208.357 466.569 208.976V214H464.345V209.472C464.345 208.981 464.201 208.581 463.913 208.272C463.625 207.952 463.246 207.792 462.777 207.792C462.457 207.792 462.169 207.872 461.913 208.032C461.667 208.181 461.47 208.389 461.321 208.656C461.182 208.923 461.113 209.232 461.113 209.584V214H458.889ZM471.895 214.128C471.159 214.128 470.513 213.957 469.959 213.616C469.415 213.264 468.993 212.779 468.695 212.16C468.396 211.531 468.247 210.8 468.247 209.968C468.247 209.349 468.332 208.784 468.503 208.272C468.673 207.76 468.919 207.323 469.239 206.96C469.559 206.587 469.943 206.304 470.391 206.112C470.849 205.909 471.361 205.808 471.927 205.808C472.407 205.808 472.849 205.899 473.255 206.08C473.671 206.251 474.001 206.485 474.247 206.784V202.432H476.487V214H474.247V213.12C474.012 213.429 473.687 213.675 473.271 213.856C472.855 214.037 472.396 214.128 471.895 214.128ZM472.407 212.224C472.705 212.224 472.972 212.171 473.207 212.064C473.452 211.947 473.66 211.792 473.831 211.6C474.012 211.397 474.145 211.163 474.231 210.896C474.327 210.619 474.375 210.309 474.375 209.968C474.375 209.285 474.193 208.741 473.831 208.336C473.479 207.92 473.004 207.712 472.407 207.712C472.108 207.712 471.836 207.765 471.591 207.872C471.356 207.979 471.148 208.133 470.967 208.336C470.796 208.539 470.663 208.779 470.567 209.056C470.481 209.323 470.439 209.627 470.439 209.968C470.439 210.64 470.62 211.184 470.983 211.6C471.345 212.016 471.82 212.224 472.407 212.224ZM482.661 214.128C481.903 214.128 481.253 214.016 480.709 213.792C480.165 213.557 479.738 213.227 479.429 212.8C479.119 212.373 478.943 211.872 478.901 211.296H480.933C480.975 211.637 481.141 211.909 481.429 212.112C481.727 212.315 482.138 212.416 482.661 212.416C482.949 212.416 483.194 212.389 483.397 212.336C483.61 212.272 483.775 212.181 483.893 212.064C484.01 211.947 484.069 211.808 484.069 211.648C484.069 211.424 483.978 211.253 483.797 211.136C483.615 211.019 483.375 210.933 483.077 210.88C482.789 210.827 482.469 210.779 482.117 210.736C481.775 210.693 481.429 210.629 481.077 210.544C480.725 210.459 480.399 210.336 480.101 210.176C479.813 210.005 479.578 209.771 479.397 209.472C479.226 209.163 479.141 208.763 479.141 208.272C479.141 207.781 479.285 207.355 479.573 206.992C479.861 206.619 480.255 206.331 480.757 206.128C481.258 205.915 481.829 205.808 482.469 205.808C483.205 205.808 483.839 205.915 484.373 206.128C484.906 206.341 485.311 206.645 485.589 207.04C485.877 207.424 486.026 207.888 486.037 208.432H484.005C483.983 208.229 483.903 208.053 483.765 207.904C483.637 207.744 483.461 207.621 483.237 207.536C483.013 207.44 482.757 207.392 482.469 207.392C482.085 207.392 481.77 207.461 481.525 207.6C481.279 207.739 481.157 207.931 481.157 208.176C481.157 208.4 481.247 208.571 481.429 208.688C481.61 208.795 481.85 208.875 482.149 208.928C482.447 208.971 482.773 209.013 483.125 209.056C483.487 209.088 483.845 209.141 484.197 209.216C484.549 209.28 484.874 209.397 485.173 209.568C485.471 209.728 485.711 209.957 485.893 210.256C486.074 210.555 486.165 210.949 486.165 211.44C486.165 211.867 486.079 212.251 485.909 212.592C485.749 212.923 485.509 213.2 485.189 213.424C484.879 213.648 484.511 213.824 484.085 213.952C483.658 214.069 483.183 214.128 482.661 214.128ZM492.355 202.336C492.792 202.987 493.16 203.696 493.459 204.464C493.768 205.221 494.003 206.011 494.163 206.832C494.323 207.643 494.403 208.437 494.403 209.216C494.403 210.005 494.323 210.805 494.163 211.616C494.003 212.427 493.768 213.216 493.459 213.984C493.16 214.752 492.792 215.456 492.355 216.096H490.211C490.616 215.413 490.968 214.677 491.267 213.888C491.566 213.088 491.795 212.288 491.955 211.488C492.126 210.688 492.211 209.931 492.211 209.216C492.211 208.501 492.126 207.744 491.955 206.944C491.795 206.144 491.566 205.349 491.267 204.56C490.968 203.771 490.616 203.029 490.211 202.336H492.355Z" fill="black" fill-opacity="0.8"/>
<path d="M5.236 214.128C4.32933 214.128 3.588 213.925 3.012 213.52C2.44667 213.104 2.03067 212.507 1.764 211.728C1.49733 210.939 1.364 209.973 1.364 208.832V207.968C1.364 206.827 1.49733 205.867 1.764 205.088C2.03067 204.299 2.44667 203.701 3.012 203.296C3.588 202.88 4.32933 202.672 5.236 202.672H5.828C6.74533 202.672 7.48667 202.88 8.052 203.296C8.61733 203.701 9.03333 204.299 9.3 205.088C9.57733 205.867 9.716 206.827 9.716 207.968V208.832C9.716 209.963 9.57733 210.923 9.3 211.712C9.03333 212.501 8.61733 213.104 8.052 213.52C7.48667 213.925 6.74533 214.128 5.828 214.128H5.236ZM5.78 212.656C6.292 212.656 6.71333 212.528 7.044 212.272C7.38533 212.005 7.636 211.611 7.796 211.088C7.96667 210.565 8.052 209.92 8.052 209.152V207.648C8.052 206.869 7.96667 206.224 7.796 205.712C7.636 205.189 7.38533 204.8 7.044 204.544C6.71333 204.277 6.292 204.144 5.78 204.144H5.3C4.79867 204.144 4.37733 204.277 4.036 204.544C3.70533 204.8 3.45467 205.189 3.284 205.712C3.11333 206.224 3.028 206.869 3.028 207.648V209.152C3.028 209.92 3.11333 210.565 3.284 211.088C3.45467 211.611 3.70533 212.005 4.036 212.272C4.37733 212.528 4.79867 212.656 5.3 212.656H5.78Z" fill="black" fill-opacity="0.8"/>
<path d="M643.658 214.128C642.911 214.128 642.228 214 641.61 213.744C641.002 213.477 640.511 213.093 640.138 212.592C639.775 212.091 639.594 211.488 639.594 210.784C639.594 210.336 639.684 209.925 639.866 209.552C640.047 209.179 640.287 208.859 640.586 208.592C640.895 208.315 641.236 208.107 641.61 207.968C641.183 207.744 640.815 207.435 640.506 207.04C640.207 206.645 640.058 206.176 640.058 205.632C640.058 205.205 640.143 204.811 640.314 204.448C640.495 204.085 640.746 203.771 641.066 203.504C641.386 203.237 641.764 203.035 642.202 202.896C642.639 202.747 643.124 202.672 643.658 202.672C644.372 202.672 644.996 202.8 645.53 203.056C646.074 203.301 646.495 203.648 646.794 204.096C647.103 204.544 647.258 205.056 647.258 205.632C647.258 206.176 647.108 206.645 646.81 207.04C646.511 207.435 646.143 207.744 645.706 207.968C646.282 208.181 646.756 208.539 647.13 209.04C647.514 209.531 647.706 210.112 647.706 210.784C647.706 211.307 647.599 211.776 647.386 212.192C647.183 212.608 646.895 212.96 646.522 213.248C646.148 213.536 645.716 213.755 645.226 213.904C644.746 214.053 644.223 214.128 643.658 214.128ZM643.658 212.656C644.148 212.656 644.57 212.581 644.922 212.432C645.274 212.283 645.546 212.064 645.738 211.776C645.94 211.488 646.042 211.147 646.042 210.752C646.042 210.357 645.94 210.016 645.738 209.728C645.546 209.44 645.274 209.216 644.922 209.056C644.57 208.896 644.148 208.816 643.658 208.816C643.178 208.816 642.756 208.896 642.394 209.056C642.031 209.216 641.748 209.44 641.546 209.728C641.354 210.016 641.258 210.357 641.258 210.752C641.258 211.147 641.354 211.488 641.546 211.776C641.748 212.064 642.031 212.283 642.394 212.432C642.756 212.581 643.178 212.656 643.658 212.656ZM643.658 207.312C644.063 207.312 644.415 207.248 644.714 207.12C645.012 206.981 645.242 206.795 645.402 206.56C645.572 206.315 645.658 206.021 645.658 205.68C645.658 205.189 645.476 204.8 645.114 204.512C644.751 204.224 644.266 204.08 643.658 204.08C643.252 204.08 642.9 204.144 642.602 204.272C642.303 204.4 642.074 204.581 641.914 204.816C641.754 205.051 641.674 205.339 641.674 205.68C641.674 206.192 641.85 206.592 642.202 206.88C642.564 207.168 643.05 207.312 643.658 207.312ZM653.256 214.128C652.349 214.128 651.608 213.925 651.032 213.52C650.466 213.104 650.05 212.507 649.784 211.728C649.517 210.939 649.384 209.973 649.384 208.832V207.968C649.384 206.827 649.517 205.867 649.784 205.088C650.05 204.299 650.466 203.701 651.032 203.296C651.608 202.88 652.349 202.672 653.256 202.672H653.848C654.765 202.672 655.506 202.88 656.072 203.296C656.637 203.701 657.053 204.299 657.32 205.088C657.597 205.867 657.736 206.827 657.736 207.968V208.832C657.736 209.963 657.597 210.923 657.32 211.712C657.053 212.501 656.637 213.104 656.072 213.52C655.506 213.925 654.765 214.128 653.848 214.128H653.256ZM653.8 212.656C654.312 212.656 654.733 212.528 655.064 212.272C655.405 212.005 655.656 211.611 655.816 211.088C655.986 210.565 656.072 209.92 656.072 209.152V207.648C656.072 206.869 655.986 206.224 655.816 205.712C655.656 205.189 655.405 204.8 655.064 204.544C654.733 204.277 654.312 204.144 653.8 204.144H653.32C652.818 204.144 652.397 204.277 652.056 204.544C651.725 204.8 651.474 205.189 651.304 205.712C651.133 206.224 651.048 206.869 651.048 207.648V209.152C651.048 209.92 651.133 210.565 651.304 211.088C651.474 211.611 651.725 212.005 652.056 212.272C652.397 212.528 652.818 212.656 653.32 212.656H653.8ZM663.158 214.128C662.251 214.128 661.51 213.925 660.934 213.52C660.369 213.104 659.953 212.507 659.686 211.728C659.419 210.939 659.286 209.973 659.286 208.832V207.968C659.286 206.827 659.419 205.867 659.686 205.088C659.953 204.299 660.369 203.701 660.934 203.296C661.51 202.88 662.251 202.672 663.158 202.672H663.75C664.667 202.672 665.409 202.88 665.974 203.296C666.539 203.701 666.955 204.299 667.222 205.088C667.499 205.867 667.638 206.827 667.638 207.968V208.832C667.638 209.963 667.499 210.923 667.222 211.712C666.955 212.501 666.539 213.104 665.974 213.52C665.409 213.925 664.667 214.128 663.75 214.128H663.158ZM663.702 212.656C664.214 212.656 664.635 212.528 664.966 212.272C665.307 212.005 665.558 211.611 665.718 211.088C665.889 210.565 665.974 209.92 665.974 209.152V207.648C665.974 206.869 665.889 206.224 665.718 205.712C665.558 205.189 665.307 204.8 664.966 204.544C664.635 204.277 664.214 204.144 663.702 204.144H663.222C662.721 204.144 662.299 204.277 661.958 204.544C661.627 204.8 661.377 205.189 661.206 205.712C661.035 206.224 660.95 206.869 660.95 207.648V209.152C660.95 209.92 661.035 210.565 661.206 211.088C661.377 211.611 661.627 212.005 661.958 212.272C662.299 212.528 662.721 212.656 663.222 212.656H663.702Z" fill="black" fill-opacity="0.8"/>
<path d="M0.5 168V179C0.5 179.552 0.947715 180 1.5 180H667.5C668.052 180 668.5 179.552 668.5 179V168" stroke="#5E7B29"/>
<path d="M67.5 180V168" stroke="#5E7B29"/>
<path d="M134.5 180V168" stroke="#5E7B29"/>
<path d="M200.5 180V168" stroke="#5E7B29"/>
<path d="M267.5 180V168" stroke="#5E7B29"/>
<path d="M334.5 180V168" stroke="#5E7B29"/>
<path d="M401.5 180V168" stroke="#5E7B29"/>
<path d="M468.5 180V168" stroke="#5E7B29"/>
<path d="M534.5 180V168" stroke="#5E7B29"/>
<path d="M601.5 180V168" stroke="#5E7B29"/>
<path d="M24.182 21V12.488H21.2V11.2H28.606V12.488H25.638V21H24.182ZM30.4804 21V10.99H31.8384V15.19C32.025 14.7513 32.319 14.4153 32.7204 14.182C33.1217 13.9487 33.5837 13.832 34.1064 13.832C34.6384 13.832 35.1004 13.9533 35.4924 14.196C35.8937 14.4293 36.2017 14.7607 36.4164 15.19C36.631 15.61 36.7384 16.1 36.7384 16.66V21H35.3804V16.926C35.3804 16.366 35.231 15.9133 34.9324 15.568C34.6337 15.2227 34.2324 15.05 33.7284 15.05C33.3644 15.05 33.0377 15.1433 32.7484 15.33C32.459 15.5073 32.235 15.7547 32.0764 16.072C31.9177 16.3893 31.8384 16.758 31.8384 17.178V21H30.4804ZM42.2387 21.112C41.5387 21.112 40.9134 20.958 40.3627 20.65C39.8121 20.3327 39.3827 19.8987 39.0747 19.348C38.7667 18.7973 38.6127 18.172 38.6127 17.472C38.6127 16.7627 38.7667 16.1373 39.0747 15.596C39.3827 15.0453 39.8121 14.616 40.3627 14.308C40.9134 13.9907 41.5387 13.832 42.2387 13.832C42.9481 13.832 43.5734 13.9907 44.1147 14.308C44.6654 14.616 45.0947 15.0453 45.4027 15.596C45.7107 16.1373 45.8647 16.7627 45.8647 17.472C45.8647 18.172 45.7107 18.7973 45.4027 19.348C45.0947 19.8987 44.6654 20.3327 44.1147 20.65C43.5734 20.958 42.9481 21.112 42.2387 21.112ZM42.2387 19.922C42.6867 19.922 43.0787 19.8193 43.4147 19.614C43.7507 19.3993 44.0121 19.11 44.1987 18.746C44.3854 18.3727 44.4787 17.948 44.4787 17.472C44.4787 16.996 44.3854 16.576 44.1987 16.212C44.0121 15.8387 43.7507 15.5493 43.4147 15.344C43.0787 15.1293 42.6867 15.022 42.2387 15.022C41.7907 15.022 41.3987 15.1293 41.0627 15.344C40.7267 15.5493 40.4654 15.8387 40.2787 16.212C40.0921 16.576 39.9987 16.996 39.9987 17.472C39.9987 17.948 40.0921 18.3727 40.2787 18.746C40.4654 19.11 40.7267 19.3993 41.0627 19.614C41.3987 19.8193 41.7907 19.922 42.2387 19.922ZM48.4951 21V13.944H49.8531V15.302C50.0117 14.826 50.2404 14.4807 50.5391 14.266C50.8377 14.0513 51.2344 13.944 51.7291 13.944H54.0811V15.12H51.5611C51.1411 15.12 50.8051 15.2367 50.5531 15.47C50.3011 15.7033 50.1191 16.0207 50.0071 16.422C49.9044 16.8233 49.8531 17.2853 49.8531 17.808V21H48.4951ZM68.6378 22.848C68.2458 22.2693 67.9098 21.6487 67.6298 20.986C67.3591 20.314 67.1491 19.628 66.9998 18.928C66.8598 18.2187 66.7898 17.5187 66.7898 16.828C66.7898 16.1373 66.8598 15.442 66.9998 14.742C67.1491 14.0327 67.3591 13.342 67.6298 12.67C67.9098 11.998 68.2458 11.3773 68.6378 10.808H69.9398C69.5665 11.424 69.2445 12.0727 68.9738 12.754C68.7125 13.426 68.5118 14.1073 68.3718 14.798C68.2318 15.4887 68.1618 16.1653 68.1618 16.828C68.1618 17.4907 68.2318 18.1673 68.3718 18.858C68.5118 19.5487 68.7125 20.23 68.9738 20.902C69.2445 21.574 69.5665 22.2227 69.9398 22.848H68.6378ZM76.8262 21.112C76.2755 21.112 75.7715 20.9953 75.3142 20.762C74.8568 20.5287 74.4648 20.1927 74.1382 19.754C73.8115 19.3153 73.5595 18.788 73.3822 18.172C73.2142 17.5467 73.1302 16.8513 73.1302 16.086C73.1302 15.47 73.1862 14.9053 73.2982 14.392C73.4195 13.8693 73.5922 13.4027 73.8162 12.992C74.0402 12.5813 74.3155 12.236 74.6422 11.956C74.9688 11.676 75.3375 11.4613 75.7482 11.312C76.1682 11.1627 76.6302 11.088 77.1342 11.088C77.8155 11.088 78.4035 11.2187 78.8982 11.48C79.3928 11.7413 79.7895 12.11 80.0882 12.586C80.3868 13.062 80.5688 13.622 80.6342 14.266H79.1782C79.1222 13.874 79.0055 13.538 78.8282 13.258C78.6602 12.978 78.4362 12.7633 78.1562 12.614C77.8762 12.4553 77.5355 12.376 77.1342 12.376C76.8075 12.376 76.5088 12.432 76.2382 12.544C75.9768 12.656 75.7388 12.8193 75.5242 13.034C75.3188 13.2393 75.1415 13.496 74.9922 13.804C74.8522 14.1027 74.7448 14.448 74.6702 14.84C74.5955 15.2227 74.5582 15.6473 74.5582 16.114C74.5582 16.8793 74.6562 17.542 74.8522 18.102C75.0575 18.662 75.3468 19.096 75.7202 19.404C76.0935 19.712 76.5462 19.866 77.0782 19.866C77.3955 19.866 77.6848 19.8147 77.9462 19.712C78.2075 19.6 78.4315 19.4507 78.6182 19.264C78.8142 19.068 78.9635 18.8487 79.0662 18.606C79.1688 18.354 79.2202 18.088 79.2202 17.808C79.2202 17.556 79.1642 17.3693 79.0522 17.248C78.9495 17.1173 78.7768 17.052 78.5342 17.052H77.0922V15.876H78.9402C79.3042 15.876 79.6075 15.9413 79.8502 16.072C80.1022 16.1933 80.2935 16.38 80.4242 16.632C80.5642 16.8747 80.6342 17.1733 80.6342 17.528V21H79.3042V19.712C79.2575 19.824 79.1735 19.9593 79.0522 20.118C78.9308 20.2767 78.7675 20.4307 78.5622 20.58C78.3662 20.7293 78.1235 20.8553 77.8342 20.958C77.5448 21.0607 77.2088 21.112 76.8262 21.112ZM82.3545 21V11.2H86.0365C86.6992 11.2 87.2685 11.326 87.7445 11.578C88.2205 11.83 88.5845 12.1753 88.8365 12.614C89.0885 13.0527 89.2145 13.566 89.2145 14.154C89.2145 14.5833 89.1399 14.98 88.9905 15.344C88.8505 15.708 88.6452 16.0207 88.3745 16.282C88.1039 16.5433 87.7725 16.7487 87.3805 16.898C86.9885 17.038 86.5405 17.108 86.0365 17.108H83.8105V21H82.3545ZM83.8105 15.848H86.0085C86.4285 15.848 86.7645 15.7687 87.0165 15.61C87.2779 15.4513 87.4645 15.246 87.5765 14.994C87.6979 14.7327 87.7585 14.4527 87.7585 14.154C87.7585 13.8553 87.6979 13.58 87.5765 13.328C87.4645 13.0667 87.2779 12.8567 87.0165 12.698C86.7645 12.5393 86.4285 12.46 86.0085 12.46H83.8105V15.848ZM94.2249 21.112C93.5062 21.112 92.8855 20.972 92.3629 20.692C91.8495 20.4027 91.4529 19.992 91.1729 19.46C90.8929 18.928 90.7529 18.298 90.7529 17.57V11.2H92.1529V17.612C92.1529 18.0693 92.2369 18.4613 92.4049 18.788C92.5729 19.1147 92.8109 19.3667 93.1189 19.544C93.4269 19.7213 93.7955 19.81 94.2249 19.81C94.8782 19.81 95.3869 19.614 95.7509 19.222C96.1242 18.83 96.3109 18.2933 96.3109 17.612V11.2H97.7109V17.57C97.7109 18.298 97.5709 18.928 97.2909 19.46C97.0109 19.992 96.6095 20.4027 96.0869 20.692C95.5735 20.972 94.9529 21.112 94.2249 21.112ZM102.483 10.78C102.875 11.3587 103.207 11.984 103.477 12.656C103.757 13.3187 103.967 14.0047 104.107 14.714C104.257 15.414 104.331 16.1093 104.331 16.8C104.331 17.4907 104.257 18.1907 104.107 18.9C103.967 19.6 103.757 20.286 103.477 20.958C103.207 21.63 102.875 22.2507 102.483 22.82H101.181C101.555 22.204 101.872 21.56 102.133 20.888C102.404 20.2067 102.609 19.5207 102.749 18.83C102.889 18.1393 102.959 17.4627 102.959 16.8C102.959 16.1373 102.889 15.4607 102.749 14.77C102.609 14.0793 102.404 13.398 102.133 12.726C101.872 12.054 101.555 11.4053 101.181 10.78H102.483ZM119.588 21V13.468C119.541 13.5427 119.462 13.608 119.35 13.664C119.247 13.7107 119.131 13.748 119 13.776C118.869 13.804 118.734 13.818 118.594 13.818H117.264V12.53H118.482C118.827 12.53 119.093 12.4413 119.28 12.264C119.476 12.0773 119.597 11.7227 119.644 11.2H121.044V21H119.588ZM116.9 21V19.712H123.438V21H116.9ZM130.016 21V18.704H124.962V17.416L129.834 11.2H131.486V17.416H132.9V18.704H131.486V21H130.016ZM126.46 17.416H130.03V12.866L126.46 17.416ZM136.791 19.502H138.303V21H136.791V19.502ZM142.949 14.462C142.93 13.7713 143.052 13.174 143.313 12.67C143.584 12.166 143.971 11.7787 144.475 11.508C144.988 11.228 145.595 11.088 146.295 11.088C146.93 11.088 147.49 11.2093 147.975 11.452C148.46 11.6947 148.843 12.0353 149.123 12.474C149.403 12.9127 149.543 13.4353 149.543 14.042C149.543 14.49 149.454 14.9053 149.277 15.288C149.1 15.6707 148.838 16.0207 148.493 16.338C148.157 16.646 147.742 16.926 147.247 17.178L145.805 17.892C145.572 18.0133 145.338 18.1627 145.105 18.34C144.872 18.5173 144.676 18.7227 144.517 18.956C144.368 19.1893 144.293 19.4413 144.293 19.712H149.571V21H142.865V19.992C142.865 19.4413 142.982 18.956 143.215 18.536C143.448 18.1067 143.742 17.7427 144.097 17.444C144.452 17.1453 144.816 16.898 145.189 16.702L146.715 15.946C147.2 15.694 147.546 15.414 147.751 15.106C147.956 14.7887 148.059 14.4293 148.059 14.028C148.059 13.524 147.896 13.118 147.569 12.81C147.242 12.4927 146.818 12.334 146.295 12.334C145.707 12.334 145.24 12.53 144.895 12.922C144.559 13.3047 144.405 13.818 144.433 14.462H142.949ZM154.609 21.112C153.816 21.112 153.167 20.9347 152.663 20.58C152.169 20.216 151.805 19.6933 151.571 19.012C151.338 18.3213 151.221 17.4767 151.221 16.478V15.722C151.221 14.7233 151.338 13.8833 151.571 13.202C151.805 12.5113 152.169 11.9887 152.663 11.634C153.167 11.27 153.816 11.088 154.609 11.088H155.127C155.93 11.088 156.579 11.27 157.073 11.634C157.568 11.9887 157.932 12.5113 158.165 13.202C158.408 13.8833 158.529 14.7233 158.529 15.722V16.478C158.529 17.4673 158.408 18.3073 158.165 18.998C157.932 19.6887 157.568 20.216 157.073 20.58C156.579 20.9347 155.93 21.112 155.127 21.112H154.609ZM155.085 19.824C155.533 19.824 155.902 19.712 156.191 19.488C156.49 19.2547 156.709 18.9093 156.849 18.452C156.999 17.9947 157.073 17.43 157.073 16.758V15.442C157.073 14.7607 156.999 14.196 156.849 13.748C156.709 13.2907 156.49 12.95 156.191 12.726C155.902 12.4927 155.533 12.376 155.085 12.376H154.665C154.227 12.376 153.858 12.4927 153.559 12.726C153.27 12.95 153.051 13.2907 152.901 13.748C152.752 14.196 152.677 14.7607 152.677 15.442V16.758C152.677 17.43 152.752 17.9947 152.901 18.452C153.051 18.9093 153.27 19.2547 153.559 19.488C153.858 19.712 154.227 19.824 154.665 19.824H155.085ZM163.624 21.112C163.017 21.112 162.494 21.0187 162.056 20.832C161.617 20.636 161.272 20.3607 161.02 20.006C160.768 19.642 160.623 19.208 160.586 18.704H161.86C161.916 19.124 162.088 19.446 162.378 19.67C162.676 19.8847 163.092 19.992 163.624 19.992C163.941 19.992 164.216 19.9547 164.45 19.88C164.683 19.796 164.86 19.6793 164.982 19.53C165.103 19.3807 165.164 19.2033 165.164 18.998C165.164 18.746 165.084 18.5547 164.926 18.424C164.767 18.284 164.552 18.1813 164.282 18.116C164.02 18.0507 163.731 17.9993 163.414 17.962C163.106 17.9153 162.793 17.8593 162.476 17.794C162.158 17.7193 161.864 17.6167 161.594 17.486C161.332 17.3553 161.122 17.164 160.964 16.912C160.805 16.66 160.726 16.3333 160.726 15.932C160.726 15.5027 160.842 15.134 161.076 14.826C161.318 14.5087 161.65 14.266 162.07 14.098C162.49 13.9207 162.97 13.832 163.512 13.832C164.1 13.832 164.604 13.9207 165.024 14.098C165.444 14.266 165.77 14.5133 166.004 14.84C166.237 15.1667 166.368 15.5633 166.396 16.03H165.108C165.08 15.7873 164.996 15.582 164.856 15.414C164.725 15.246 164.548 15.12 164.324 15.036C164.1 14.9427 163.829 14.896 163.512 14.896C163.064 14.896 162.704 14.9847 162.434 15.162C162.163 15.33 162.028 15.5587 162.028 15.848C162.028 16.0907 162.107 16.2773 162.266 16.408C162.424 16.5293 162.634 16.618 162.896 16.674C163.166 16.73 163.46 16.7813 163.778 16.828C164.104 16.8653 164.426 16.9167 164.744 16.982C165.061 17.038 165.35 17.136 165.612 17.276C165.882 17.4067 166.097 17.6027 166.256 17.864C166.414 18.116 166.494 18.452 166.494 18.872C166.494 19.2173 166.428 19.53 166.298 19.81C166.167 20.09 165.971 20.328 165.71 20.524C165.458 20.7107 165.154 20.8553 164.8 20.958C164.454 21.0607 164.062 21.112 163.624 21.112Z" fill="black"/>
<path d="M48.952 77.112C48.364 77.112 47.832 76.9953 47.356 76.762C46.8893 76.5287 46.488 76.1973 46.152 75.768C45.816 75.3293 45.5593 74.802 45.382 74.186C45.2047 73.5607 45.116 72.8653 45.116 72.1C45.116 71.484 45.172 70.9193 45.284 70.406C45.4053 69.8833 45.5733 69.4167 45.788 69.006C46.0027 68.5953 46.2687 68.25 46.586 67.97C46.9033 67.6807 47.258 67.4613 47.65 67.312C48.0513 67.1627 48.4853 67.088 48.952 67.088C49.5307 67.088 50.0487 67.2047 50.506 67.438C50.9727 67.6713 51.3693 68.0073 51.696 68.446C52.0227 68.8753 52.27 69.398 52.438 70.014C52.6153 70.63 52.704 71.3253 52.704 72.1C52.704 72.716 52.648 73.2853 52.536 73.808C52.424 74.3213 52.2607 74.7833 52.046 75.194C51.8313 75.6047 51.57 75.9547 51.262 76.244C50.9633 76.524 50.618 76.7387 50.226 76.888C49.8433 77.0373 49.4187 77.112 48.952 77.112ZM48.952 75.824C49.232 75.824 49.4887 75.7727 49.722 75.67C49.9553 75.558 50.1653 75.3947 50.352 75.18C50.5387 74.9653 50.6927 74.7087 50.814 74.41C50.9447 74.102 51.0427 73.7567 51.108 73.374C51.1827 72.982 51.22 72.5573 51.22 72.1C51.22 71.3347 51.1267 70.6767 50.94 70.126C50.7627 69.566 50.5013 69.1367 50.156 68.838C49.82 68.53 49.4187 68.376 48.952 68.376C48.6627 68.376 48.3967 68.432 48.154 68.544C47.9113 68.6467 47.692 68.8053 47.496 69.02C47.3093 69.2347 47.146 69.496 47.006 69.804C46.8753 70.1027 46.7727 70.448 46.698 70.84C46.6327 71.2227 46.6 71.6427 46.6 72.1C46.6 72.8653 46.6933 73.528 46.88 74.088C47.076 74.6387 47.3513 75.068 47.706 75.376C48.0607 75.6747 48.476 75.824 48.952 75.824ZM55.1664 77V69.944H56.5244V71.302C56.683 70.826 56.9117 70.4807 57.2104 70.266C57.509 70.0513 57.9057 69.944 58.4004 69.944H60.7524V71.12H58.2324C57.8124 71.12 57.4764 71.2367 57.2244 71.47C56.9724 71.7033 56.7904 72.0207 56.6784 72.422C56.5757 72.8233 56.5244 73.2853 56.5244 73.808V77H55.1664ZM66.1687 77V71.61C66.1687 71.2833 66.0054 71.12 65.6787 71.12H62.9627V69.944H65.9447C66.4394 69.944 66.8267 70.0887 67.1067 70.378C67.3867 70.658 67.5267 71.0407 67.5267 71.526V77H66.1687ZM66.0987 66.99H67.6107V68.698H66.0987V66.99ZM71.7671 77V69.944H73.1251V71.19C73.3211 70.7513 73.6151 70.4153 74.0071 70.182C74.4084 69.9487 74.8751 69.832 75.4071 69.832C75.9391 69.832 76.4011 69.9533 76.7931 70.196C77.1851 70.4293 77.4884 70.7607 77.7031 71.19C77.9177 71.61 78.0251 72.1 78.0251 72.66V77H76.6671V72.926C76.6671 72.366 76.5177 71.9133 76.2191 71.568C75.9204 71.2227 75.5237 71.05 75.0291 71.05C74.6557 71.05 74.3244 71.1433 74.0351 71.33C73.7551 71.5073 73.5311 71.7547 73.3631 72.072C73.2044 72.3893 73.1251 72.758 73.1251 73.178V77H71.7671ZM92.6378 78.848C92.2458 78.2693 91.9098 77.6487 91.6298 76.986C91.3591 76.314 91.1491 75.628 90.9998 74.928C90.8598 74.2187 90.7898 73.5187 90.7898 72.828C90.7898 72.1373 90.8598 71.442 90.9998 70.742C91.1491 70.0327 91.3591 69.342 91.6298 68.67C91.9098 67.998 92.2458 67.3773 92.6378 66.808H93.9398C93.5665 67.424 93.2445 68.0727 92.9738 68.754C92.7125 69.426 92.5118 70.1073 92.3718 70.798C92.2318 71.4887 92.1618 72.1653 92.1618 72.828C92.1618 73.4907 92.2318 74.1673 92.3718 74.858C92.5118 75.5487 92.7125 76.23 92.9738 76.902C93.2445 77.574 93.5665 78.2227 93.9398 78.848H92.6378ZM100.826 77.112C100.275 77.112 99.7715 76.9953 99.3142 76.762C98.8568 76.5287 98.4648 76.1927 98.1382 75.754C97.8115 75.3153 97.5595 74.788 97.3822 74.172C97.2142 73.5467 97.1302 72.8513 97.1302 72.086C97.1302 71.47 97.1862 70.9053 97.2982 70.392C97.4195 69.8693 97.5922 69.4027 97.8162 68.992C98.0402 68.5813 98.3155 68.236 98.6422 67.956C98.9688 67.676 99.3375 67.4613 99.7482 67.312C100.168 67.1627 100.63 67.088 101.134 67.088C101.815 67.088 102.403 67.2187 102.898 67.48C103.393 67.7413 103.789 68.11 104.088 68.586C104.387 69.062 104.569 69.622 104.634 70.266H103.178C103.122 69.874 103.005 69.538 102.828 69.258C102.66 68.978 102.436 68.7633 102.156 68.614C101.876 68.4553 101.535 68.376 101.134 68.376C100.807 68.376 100.509 68.432 100.238 68.544C99.9768 68.656 99.7388 68.8193 99.5242 69.034C99.3188 69.2393 99.1415 69.496 98.9922 69.804C98.8522 70.1027 98.7448 70.448 98.6702 70.84C98.5955 71.2227 98.5582 71.6473 98.5582 72.114C98.5582 72.8793 98.6562 73.542 98.8522 74.102C99.0575 74.662 99.3468 75.096 99.7202 75.404C100.093 75.712 100.546 75.866 101.078 75.866C101.395 75.866 101.685 75.8147 101.946 75.712C102.207 75.6 102.431 75.4507 102.618 75.264C102.814 75.068 102.963 74.8487 103.066 74.606C103.169 74.354 103.22 74.088 103.22 73.808C103.22 73.556 103.164 73.3693 103.052 73.248C102.949 73.1173 102.777 73.052 102.534 73.052H101.092V71.876H102.94C103.304 71.876 103.607 71.9413 103.85 72.072C104.102 72.1933 104.293 72.38 104.424 72.632C104.564 72.8747 104.634 73.1733 104.634 73.528V77H103.304V75.712C103.257 75.824 103.173 75.9593 103.052 76.118C102.931 76.2767 102.767 76.4307 102.562 76.58C102.366 76.7293 102.123 76.8553 101.834 76.958C101.545 77.0607 101.209 77.112 100.826 77.112ZM106.355 77V67.2H110.037C110.699 67.2 111.269 67.326 111.745 67.578C112.221 67.83 112.585 68.1753 112.837 68.614C113.089 69.0527 113.215 69.566 113.215 70.154C113.215 70.5833 113.14 70.98 112.991 71.344C112.851 71.708 112.645 72.0207 112.375 72.282C112.104 72.5433 111.773 72.7487 111.381 72.898C110.989 73.038 110.541 73.108 110.037 73.108H107.811V77H106.355ZM107.811 71.848H110.009C110.429 71.848 110.765 71.7687 111.017 71.61C111.278 71.4513 111.465 71.246 111.577 70.994C111.698 70.7327 111.759 70.4527 111.759 70.154C111.759 69.8553 111.698 69.58 111.577 69.328C111.465 69.0667 111.278 68.8567 111.017 68.698C110.765 68.5393 110.429 68.46 110.009 68.46H107.811V71.848ZM118.225 77.112C117.506 77.112 116.886 76.972 116.363 76.692C115.85 76.4027 115.453 75.992 115.173 75.46C114.893 74.928 114.753 74.298 114.753 73.57V67.2H116.153V73.612C116.153 74.0693 116.237 74.4613 116.405 74.788C116.573 75.1147 116.811 75.3667 117.119 75.544C117.427 75.7213 117.796 75.81 118.225 75.81C118.878 75.81 119.387 75.614 119.751 75.222C120.124 74.83 120.311 74.2933 120.311 73.612V67.2H121.711V73.57C121.711 74.298 121.571 74.928 121.291 75.46C121.011 75.992 120.61 76.4027 120.087 76.692C119.574 76.972 118.953 77.112 118.225 77.112ZM126.483 66.78C126.875 67.3587 127.207 67.984 127.477 68.656C127.757 69.3187 127.967 70.0047 128.107 70.714C128.257 71.414 128.331 72.1093 128.331 72.8C128.331 73.4907 128.257 74.1907 128.107 74.9C127.967 75.6 127.757 76.286 127.477 76.958C127.207 77.63 126.875 78.2507 126.483 78.82H125.181C125.555 78.204 125.872 77.56 126.133 76.888C126.404 76.2067 126.609 75.5207 126.749 74.83C126.889 74.1393 126.959 73.4627 126.959 72.8C126.959 72.1373 126.889 71.4607 126.749 70.77C126.609 70.0793 126.404 69.398 126.133 68.726C125.872 68.054 125.555 67.4053 125.181 66.78H126.483ZM145.352 77V74.704H140.298V73.416L145.17 67.2H146.822V73.416H148.236V74.704H146.822V77H145.352ZM141.796 73.416H145.366V68.866L141.796 73.416ZM152.252 77V69.468C152.206 69.5427 152.126 69.608 152.014 69.664C151.912 69.7107 151.795 69.748 151.664 69.776C151.534 69.804 151.398 69.818 151.258 69.818H149.928V68.53H151.146C151.492 68.53 151.758 68.4413 151.944 68.264C152.14 68.0773 152.262 67.7227 152.308 67.2H153.708V77H152.252ZM149.564 77V75.712H156.102V77H149.564ZM160.791 75.502H162.303V77H160.791V75.502ZM170.267 77.112C169.614 77.112 169.016 76.9813 168.475 76.72C167.943 76.4587 167.514 76.09 167.187 75.614C166.87 75.1287 166.711 74.564 166.711 73.92H168.139C168.139 74.312 168.232 74.6527 168.419 74.942C168.606 75.222 168.862 75.4413 169.189 75.6C169.516 75.7493 169.88 75.824 170.281 75.824C170.701 75.824 171.065 75.7587 171.373 75.628C171.681 75.4973 171.914 75.306 172.073 75.054C172.241 74.802 172.325 74.5033 172.325 74.158C172.325 73.626 172.138 73.2293 171.765 72.968C171.401 72.6973 170.906 72.562 170.281 72.562H169.455V71.316H170.253C170.608 71.316 170.911 71.2507 171.163 71.12C171.415 70.9893 171.606 70.8073 171.737 70.574C171.877 70.3407 171.947 70.0793 171.947 69.79C171.947 69.342 171.788 68.9967 171.471 68.754C171.154 68.502 170.724 68.376 170.183 68.376C169.66 68.376 169.24 68.5253 168.923 68.824C168.615 69.1133 168.447 69.5193 168.419 70.042H167.019C167.038 69.4447 167.182 68.9267 167.453 68.488C167.724 68.0493 168.092 67.7087 168.559 67.466C169.035 67.214 169.586 67.088 170.211 67.088C170.827 67.088 171.373 67.2 171.849 67.424C172.334 67.6387 172.712 67.942 172.983 68.334C173.263 68.726 173.403 69.174 173.403 69.678C173.403 69.9953 173.342 70.2987 173.221 70.588C173.1 70.868 172.936 71.12 172.731 71.344C172.535 71.5587 172.311 71.7267 172.059 71.848C172.554 72.0067 172.964 72.2867 173.291 72.688C173.627 73.08 173.795 73.5747 173.795 74.172C173.795 74.788 173.636 75.3153 173.319 75.754C173.002 76.1927 172.577 76.5287 172.045 76.762C171.513 76.9953 170.92 77.112 170.267 77.112ZM178.777 67.088C179.552 67.088 180.215 67.2793 180.765 67.662C181.325 68.0447 181.755 68.5813 182.053 69.272C182.352 69.9533 182.501 70.7513 182.501 71.666C182.501 72.3753 182.436 73.0193 182.305 73.598C182.184 74.1767 182.007 74.6853 181.773 75.124C181.54 75.5627 181.255 75.9313 180.919 76.23C180.593 76.5193 180.224 76.7387 179.813 76.888C179.412 77.0373 178.978 77.112 178.511 77.112C177.914 77.112 177.377 76.9953 176.901 76.762C176.425 76.5287 176.033 76.2113 175.725 75.81C175.427 75.4087 175.24 74.9513 175.165 74.438H176.565C176.668 74.8767 176.892 75.222 177.237 75.474C177.592 75.726 178.017 75.852 178.511 75.852C179.025 75.852 179.473 75.698 179.855 75.39C180.238 75.082 180.537 74.6667 180.751 74.144C180.966 73.6213 181.092 73.024 181.129 72.352C180.971 72.6227 180.761 72.8653 180.499 73.08C180.247 73.2853 179.949 73.4487 179.603 73.57C179.267 73.6913 178.908 73.752 178.525 73.752C177.881 73.752 177.312 73.612 176.817 73.332C176.323 73.0427 175.935 72.6507 175.655 72.156C175.385 71.6613 175.249 71.092 175.249 70.448C175.249 69.9627 175.333 69.5147 175.501 69.104C175.679 68.6933 175.926 68.3387 176.243 68.04C176.561 67.7413 176.934 67.508 177.363 67.34C177.793 67.172 178.264 67.088 178.777 67.088ZM178.791 68.376C178.483 68.376 178.203 68.4273 177.951 68.53C177.709 68.6327 177.494 68.7773 177.307 68.964C177.121 69.1413 176.976 69.356 176.873 69.608C176.78 69.86 176.733 70.14 176.733 70.448C176.733 71.0453 176.915 71.5307 177.279 71.904C177.643 72.2773 178.124 72.464 178.721 72.464C179.113 72.464 179.473 72.38 179.799 72.212C180.126 72.0347 180.383 71.792 180.569 71.484C180.756 71.176 180.849 70.826 180.849 70.434C180.849 70.042 180.761 69.692 180.583 69.384C180.406 69.0667 180.159 68.8193 179.841 68.642C179.533 68.4647 179.183 68.376 178.791 68.376ZM187.624 77.112C187.017 77.112 186.494 77.0187 186.056 76.832C185.617 76.636 185.272 76.3607 185.02 76.006C184.768 75.642 184.623 75.208 184.586 74.704H185.86C185.916 75.124 186.088 75.446 186.378 75.67C186.676 75.8847 187.092 75.992 187.624 75.992C187.941 75.992 188.216 75.9547 188.45 75.88C188.683 75.796 188.86 75.6793 188.982 75.53C189.103 75.3807 189.164 75.2033 189.164 74.998C189.164 74.746 189.084 74.5547 188.926 74.424C188.767 74.284 188.552 74.1813 188.282 74.116C188.02 74.0507 187.731 73.9993 187.414 73.962C187.106 73.9153 186.793 73.8593 186.476 73.794C186.158 73.7193 185.864 73.6167 185.594 73.486C185.332 73.3553 185.122 73.164 184.964 72.912C184.805 72.66 184.726 72.3333 184.726 71.932C184.726 71.5027 184.842 71.134 185.076 70.826C185.318 70.5087 185.65 70.266 186.07 70.098C186.49 69.9207 186.97 69.832 187.512 69.832C188.1 69.832 188.604 69.9207 189.024 70.098C189.444 70.266 189.77 70.5133 190.004 70.84C190.237 71.1667 190.368 71.5633 190.396 72.03H189.108C189.08 71.7873 188.996 71.582 188.856 71.414C188.725 71.246 188.548 71.12 188.324 71.036C188.1 70.9427 187.829 70.896 187.512 70.896C187.064 70.896 186.704 70.9847 186.434 71.162C186.163 71.33 186.028 71.5587 186.028 71.848C186.028 72.0907 186.107 72.2773 186.266 72.408C186.424 72.5293 186.634 72.618 186.896 72.674C187.166 72.73 187.46 72.7813 187.778 72.828C188.104 72.8653 188.426 72.9167 188.744 72.982C189.061 73.038 189.35 73.136 189.612 73.276C189.882 73.4067 190.097 73.6027 190.256 73.864C190.414 74.116 190.494 74.452 190.494 74.872C190.494 75.2173 190.428 75.53 190.298 75.81C190.167 76.09 189.971 76.328 189.71 76.524C189.458 76.7107 189.154 76.8553 188.8 76.958C188.454 77.0607 188.062 77.112 187.624 77.112Z" fill="black"/>
<path d="M0.5 0H12.5V32H0.5V0Z" fill="#596647"/>
<path d="M0.5 56H36.5V88H0.5V56Z" fill="#9BAB87"/>
<path d="M0.5 112H663.5V144H0.5V112Z" fill="#BFC9B2"/>
<path d="M461.905 133V123.2H465.503C466.165 123.2 466.735 123.317 467.211 123.55C467.687 123.774 468.051 124.096 468.303 124.516C468.555 124.927 468.681 125.426 468.681 126.014C468.681 126.593 468.517 127.092 468.191 127.512C467.864 127.923 467.43 128.24 466.889 128.464C466.347 128.679 465.745 128.786 465.083 128.786H463.361V133H461.905ZM467.253 133L467.057 130.62C467.019 130.181 466.865 129.827 466.595 129.556C466.324 129.276 465.983 129.136 465.573 129.136H463.109V127.974H465.783C466.296 127.974 466.744 128.081 467.127 128.296C467.519 128.511 467.831 128.809 468.065 129.192C468.307 129.565 468.443 129.999 468.471 130.494L468.667 133H467.253ZM463.361 127.848H465.461C465.89 127.848 466.231 127.769 466.483 127.61C466.744 127.442 466.931 127.227 467.043 126.966C467.164 126.705 467.225 126.429 467.225 126.14C467.225 125.841 467.164 125.566 467.043 125.314C466.931 125.062 466.744 124.857 466.483 124.698C466.231 124.539 465.89 124.46 465.461 124.46H463.361V127.848ZM473.159 133.112C472.683 133.112 472.263 133.023 471.899 132.846C471.535 132.659 471.25 132.407 471.045 132.09C470.849 131.773 470.751 131.404 470.751 130.984C470.751 130.527 470.863 130.13 471.087 129.794C471.32 129.458 471.642 129.197 472.053 129.01C472.464 128.823 472.944 128.73 473.495 128.73H474.979C475.138 128.73 475.254 128.702 475.329 128.646C475.413 128.581 475.455 128.487 475.455 128.366C475.455 127.937 475.306 127.591 475.007 127.33C474.708 127.059 474.288 126.924 473.747 126.924C473.42 126.924 473.126 126.985 472.865 127.106C472.613 127.227 472.412 127.391 472.263 127.596C472.114 127.792 472.03 128.011 472.011 128.254H470.751C470.788 127.787 470.942 127.372 471.213 127.008C471.484 126.644 471.838 126.359 472.277 126.154C472.725 125.939 473.229 125.832 473.789 125.832C474.396 125.832 474.923 125.944 475.371 126.168C475.828 126.383 476.178 126.686 476.421 127.078C476.673 127.47 476.799 127.927 476.799 128.45V133H475.455V131.838C475.343 132.09 475.17 132.314 474.937 132.51C474.713 132.697 474.447 132.846 474.139 132.958C473.84 133.061 473.514 133.112 473.159 133.112ZM473.425 132.034C474.06 132.034 474.554 131.843 474.909 131.46C475.273 131.077 475.455 130.559 475.455 129.906V129.78H473.635C473.178 129.78 472.809 129.883 472.529 130.088C472.249 130.293 472.109 130.583 472.109 130.956C472.109 131.273 472.226 131.535 472.459 131.74C472.702 131.936 473.024 132.034 473.425 132.034ZM482.553 133.112C481.946 133.112 481.423 133.019 480.985 132.832C480.546 132.636 480.201 132.361 479.949 132.006C479.697 131.642 479.552 131.208 479.515 130.704H480.789C480.845 131.124 481.017 131.446 481.307 131.67C481.605 131.885 482.021 131.992 482.553 131.992C482.87 131.992 483.145 131.955 483.379 131.88C483.612 131.796 483.789 131.679 483.911 131.53C484.032 131.381 484.093 131.203 484.093 130.998C484.093 130.746 484.013 130.555 483.855 130.424C483.696 130.284 483.481 130.181 483.211 130.116C482.949 130.051 482.66 129.999 482.343 129.962C482.035 129.915 481.722 129.859 481.405 129.794C481.087 129.719 480.793 129.617 480.523 129.486C480.261 129.355 480.051 129.164 479.893 128.912C479.734 128.66 479.655 128.333 479.655 127.932C479.655 127.503 479.771 127.134 480.005 126.826C480.247 126.509 480.579 126.266 480.999 126.098C481.419 125.921 481.899 125.832 482.441 125.832C483.029 125.832 483.533 125.921 483.953 126.098C484.373 126.266 484.699 126.513 484.933 126.84C485.166 127.167 485.297 127.563 485.325 128.03H484.037C484.009 127.787 483.925 127.582 483.785 127.414C483.654 127.246 483.477 127.12 483.253 127.036C483.029 126.943 482.758 126.896 482.441 126.896C481.993 126.896 481.633 126.985 481.363 127.162C481.092 127.33 480.957 127.559 480.957 127.848C480.957 128.091 481.036 128.277 481.195 128.408C481.353 128.529 481.563 128.618 481.825 128.674C482.095 128.73 482.389 128.781 482.707 128.828C483.033 128.865 483.355 128.917 483.673 128.982C483.99 129.038 484.279 129.136 484.541 129.276C484.811 129.407 485.026 129.603 485.185 129.864C485.343 130.116 485.423 130.452 485.423 130.872C485.423 131.217 485.357 131.53 485.227 131.81C485.096 132.09 484.9 132.328 484.639 132.524C484.387 132.711 484.083 132.855 483.729 132.958C483.383 133.061 482.991 133.112 482.553 133.112ZM487.885 135.856V125.944H489.243V126.98C489.458 126.635 489.77 126.359 490.181 126.154C490.592 125.939 491.035 125.832 491.511 125.832C492.22 125.832 492.822 125.991 493.317 126.308C493.812 126.625 494.19 127.059 494.451 127.61C494.712 128.151 494.843 128.772 494.843 129.472C494.843 129.995 494.768 130.48 494.619 130.928C494.47 131.367 494.255 131.749 493.975 132.076C493.695 132.403 493.345 132.659 492.925 132.846C492.514 133.023 492.048 133.112 491.525 133.112C491.198 133.112 490.89 133.065 490.601 132.972C490.312 132.869 490.05 132.734 489.817 132.566C489.584 132.389 489.392 132.183 489.243 131.95V135.856H487.885ZM491.301 131.922C491.628 131.922 491.922 131.866 492.183 131.754C492.454 131.633 492.682 131.465 492.869 131.25C493.065 131.035 493.214 130.779 493.317 130.48C493.42 130.181 493.471 129.845 493.471 129.472C493.471 128.735 493.275 128.142 492.883 127.694C492.491 127.246 491.964 127.022 491.301 127.022C490.974 127.022 490.68 127.083 490.419 127.204C490.158 127.316 489.929 127.479 489.733 127.694C489.537 127.909 489.388 128.165 489.285 128.464C489.192 128.763 489.145 129.099 489.145 129.472C489.145 130.209 489.341 130.802 489.733 131.25C490.125 131.698 490.648 131.922 491.301 131.922ZM496.592 133V123.2H500.274C500.936 123.2 501.506 123.326 501.982 123.578C502.458 123.83 502.822 124.175 503.074 124.614C503.326 125.053 503.452 125.566 503.452 126.154C503.452 126.583 503.377 126.98 503.228 127.344C503.088 127.708 502.882 128.021 502.612 128.282C502.341 128.543 502.01 128.749 501.618 128.898C501.226 129.038 500.778 129.108 500.274 129.108H498.048V133H496.592ZM498.048 127.848H500.246C500.666 127.848 501.002 127.769 501.254 127.61C501.515 127.451 501.702 127.246 501.814 126.994C501.935 126.733 501.996 126.453 501.996 126.154C501.996 125.855 501.935 125.58 501.814 125.328C501.702 125.067 501.515 124.857 501.254 124.698C501.002 124.539 500.666 124.46 500.246 124.46H498.048V127.848ZM508.392 133V127.61C508.392 127.283 508.229 127.12 507.902 127.12H505.186V125.944H508.168C508.663 125.944 509.05 126.089 509.33 126.378C509.61 126.658 509.75 127.041 509.75 127.526V133H508.392ZM508.322 122.99H509.834V124.698H508.322V122.99ZM525.707 133.112C525.081 133.112 524.521 132.991 524.027 132.748C523.532 132.496 523.131 132.151 522.823 131.712C522.524 131.273 522.347 130.765 522.291 130.186H523.691C523.765 130.718 523.975 131.124 524.321 131.404C524.675 131.684 525.128 131.824 525.679 131.824C526.108 131.824 526.481 131.74 526.799 131.572C527.116 131.404 527.363 131.166 527.541 130.858C527.727 130.55 527.821 130.181 527.821 129.752C527.821 129.108 527.62 128.599 527.219 128.226C526.827 127.843 526.299 127.652 525.637 127.652C525.179 127.652 524.778 127.745 524.433 127.932C524.097 128.109 523.854 128.361 523.705 128.688H522.487L523.257 123.2H528.619V124.488H524.349L523.957 127.134C524.209 126.91 524.507 126.737 524.853 126.616C525.207 126.485 525.595 126.42 526.015 126.42C526.631 126.42 527.186 126.565 527.681 126.854C528.185 127.134 528.581 127.521 528.871 128.016C529.16 128.511 529.305 129.089 529.305 129.752C529.305 130.247 529.211 130.704 529.025 131.124C528.847 131.535 528.595 131.889 528.269 132.188C527.942 132.487 527.559 132.715 527.121 132.874C526.691 133.033 526.22 133.112 525.707 133.112ZM543.525 134.848C543.133 134.269 542.797 133.649 542.517 132.986C542.247 132.314 542.037 131.628 541.887 130.928C541.747 130.219 541.677 129.519 541.677 128.828C541.677 128.137 541.747 127.442 541.887 126.742C542.037 126.033 542.247 125.342 542.517 124.67C542.797 123.998 543.133 123.377 543.525 122.808H544.827C544.454 123.424 544.132 124.073 543.861 124.754C543.6 125.426 543.399 126.107 543.259 126.798C543.119 127.489 543.049 128.165 543.049 128.828C543.049 129.491 543.119 130.167 543.259 130.858C543.399 131.549 543.6 132.23 543.861 132.902C544.132 133.574 544.454 134.223 544.827 134.848H543.525ZM552.022 133.112C551.378 133.112 550.804 133 550.3 132.776C549.805 132.543 549.385 132.211 549.04 131.782C548.694 131.353 548.433 130.825 548.256 130.2C548.078 129.575 547.99 128.875 547.99 128.1C547.99 127.475 548.046 126.901 548.158 126.378C548.279 125.855 548.452 125.393 548.676 124.992C548.9 124.581 549.17 124.236 549.488 123.956C549.814 123.667 550.188 123.452 550.608 123.312C551.037 123.163 551.508 123.088 552.022 123.088C552.694 123.088 553.272 123.219 553.758 123.48C554.252 123.741 554.649 124.115 554.948 124.6C555.246 125.085 555.438 125.669 555.522 126.35H553.996C553.949 125.939 553.842 125.589 553.674 125.3C553.515 125.001 553.296 124.773 553.016 124.614C552.745 124.455 552.409 124.376 552.008 124.376C551.681 124.376 551.387 124.432 551.126 124.544C550.864 124.647 550.631 124.805 550.426 125.02C550.22 125.235 550.048 125.491 549.908 125.79C549.768 126.089 549.66 126.434 549.586 126.826C549.52 127.209 549.488 127.633 549.488 128.1C549.488 128.875 549.586 129.542 549.782 130.102C549.978 130.653 550.262 131.077 550.636 131.376C551.018 131.675 551.476 131.824 552.008 131.824C552.39 131.824 552.722 131.745 553.002 131.586C553.291 131.427 553.524 131.199 553.702 130.9C553.879 130.601 553.986 130.251 554.024 129.85H555.508C555.442 130.522 555.256 131.105 554.948 131.6C554.649 132.085 554.252 132.459 553.758 132.72C553.263 132.981 552.684 133.112 552.022 133.112ZM557.242 133V123.2H560.924C561.587 123.2 562.156 123.326 562.632 123.578C563.108 123.83 563.472 124.175 563.724 124.614C563.976 125.053 564.102 125.566 564.102 126.154C564.102 126.583 564.027 126.98 563.878 127.344C563.738 127.708 563.533 128.021 563.262 128.282C562.991 128.543 562.66 128.749 562.268 128.898C561.876 129.038 561.428 129.108 560.924 129.108H558.698V133H557.242ZM558.698 127.848H560.896C561.316 127.848 561.652 127.769 561.904 127.61C562.165 127.451 562.352 127.246 562.464 126.994C562.585 126.733 562.646 126.453 562.646 126.154C562.646 125.855 562.585 125.58 562.464 125.328C562.352 125.067 562.165 124.857 561.904 124.698C561.652 124.539 561.316 124.46 560.896 124.46H558.698V127.848ZM569.112 133.112C568.394 133.112 567.773 132.972 567.25 132.692C566.737 132.403 566.34 131.992 566.06 131.46C565.78 130.928 565.64 130.298 565.64 129.57V123.2H567.04V129.612C567.04 130.069 567.124 130.461 567.292 130.788C567.46 131.115 567.698 131.367 568.006 131.544C568.314 131.721 568.683 131.81 569.112 131.81C569.766 131.81 570.274 131.614 570.638 131.222C571.012 130.83 571.198 130.293 571.198 129.612V123.2H572.598V129.57C572.598 130.298 572.458 130.928 572.178 131.46C571.898 131.992 571.497 132.403 570.974 132.692C570.461 132.972 569.84 133.112 569.112 133.112ZM577.371 122.78C577.763 123.359 578.094 123.984 578.365 124.656C578.645 125.319 578.855 126.005 578.995 126.714C579.144 127.414 579.219 128.109 579.219 128.8C579.219 129.491 579.144 130.191 578.995 130.9C578.855 131.6 578.645 132.286 578.365 132.958C578.094 133.63 577.763 134.251 577.371 134.82H576.069C576.442 134.204 576.759 133.56 577.021 132.888C577.291 132.207 577.497 131.521 577.637 130.83C577.777 130.139 577.847 129.463 577.847 128.8C577.847 128.137 577.777 127.461 577.637 126.77C577.497 126.079 577.291 125.398 577.021 124.726C576.759 124.054 576.442 123.405 576.069 122.78H577.371ZM593.341 133C593.341 132.468 593.379 131.95 593.453 131.446C593.528 130.933 593.668 130.396 593.873 129.836C594.088 129.276 594.401 128.665 594.811 128.002L596.995 124.488H591.507V123.2H598.633V124.362L596.001 128.66C595.656 129.22 595.395 129.743 595.217 130.228C595.049 130.704 594.937 131.166 594.881 131.614C594.825 132.062 594.797 132.524 594.797 133H593.341ZM602.006 133C602.006 132.468 602.043 131.95 602.118 131.446C602.192 130.933 602.332 130.396 602.538 129.836C602.752 129.276 603.065 128.665 603.476 128.002L605.66 124.488H600.172V123.2H607.298V124.362L604.666 128.66C604.32 129.22 604.059 129.743 603.882 130.228C603.714 130.704 603.602 131.166 603.546 131.614C603.49 132.062 603.462 132.524 603.462 133H602.006ZM612.49 133.112C611.837 133.112 611.24 132.981 610.698 132.72C610.166 132.459 609.737 132.09 609.41 131.614C609.093 131.129 608.934 130.564 608.934 129.92H610.362C610.362 130.312 610.456 130.653 610.642 130.942C610.829 131.222 611.086 131.441 611.412 131.6C611.739 131.749 612.103 131.824 612.504 131.824C612.924 131.824 613.288 131.759 613.596 131.628C613.904 131.497 614.138 131.306 614.296 131.054C614.464 130.802 614.548 130.503 614.548 130.158C614.548 129.626 614.362 129.229 613.988 128.968C613.624 128.697 613.13 128.562 612.504 128.562H611.678V127.316H612.476C612.831 127.316 613.134 127.251 613.386 127.12C613.638 126.989 613.83 126.807 613.96 126.574C614.1 126.341 614.17 126.079 614.17 125.79C614.17 125.342 614.012 124.997 613.694 124.754C613.377 124.502 612.948 124.376 612.406 124.376C611.884 124.376 611.464 124.525 611.146 124.824C610.838 125.113 610.67 125.519 610.642 126.042H609.242C609.261 125.445 609.406 124.927 609.676 124.488C609.947 124.049 610.316 123.709 610.782 123.466C611.258 123.214 611.809 123.088 612.434 123.088C613.05 123.088 613.596 123.2 614.072 123.424C614.558 123.639 614.936 123.942 615.206 124.334C615.486 124.726 615.626 125.174 615.626 125.678C615.626 125.995 615.566 126.299 615.444 126.588C615.323 126.868 615.16 127.12 614.954 127.344C614.758 127.559 614.534 127.727 614.282 127.848C614.777 128.007 615.188 128.287 615.514 128.688C615.85 129.08 616.018 129.575 616.018 130.172C616.018 130.788 615.86 131.315 615.542 131.754C615.225 132.193 614.8 132.529 614.268 132.762C613.736 132.995 613.144 133.112 612.49 133.112ZM620.343 131.502H621.855V133H620.343V131.502ZM629.833 133.112C629.058 133.112 628.391 132.921 627.831 132.538C627.28 132.155 626.856 131.623 626.557 130.942C626.258 130.251 626.109 129.449 626.109 128.534C626.109 127.825 626.17 127.181 626.291 126.602C626.422 126.023 626.604 125.515 626.837 125.076C627.07 124.637 627.35 124.273 627.677 123.984C628.013 123.685 628.382 123.461 628.783 123.312C629.194 123.163 629.632 123.088 630.099 123.088C630.696 123.088 631.233 123.205 631.709 123.438C632.185 123.671 632.572 123.989 632.871 124.39C633.179 124.791 633.37 125.249 633.445 125.762H632.045C631.942 125.323 631.714 124.978 631.359 124.726C631.014 124.474 630.594 124.348 630.099 124.348C629.586 124.348 629.138 124.502 628.755 124.81C628.372 125.118 628.074 125.533 627.859 126.056C627.644 126.579 627.518 127.176 627.481 127.848C627.64 127.577 627.845 127.339 628.097 127.134C628.358 126.919 628.657 126.751 628.993 126.63C629.338 126.509 629.702 126.448 630.085 126.448C630.729 126.448 631.298 126.593 631.793 126.882C632.288 127.162 632.67 127.549 632.941 128.044C633.221 128.539 633.361 129.108 633.361 129.752C633.361 130.237 633.272 130.685 633.095 131.096C632.927 131.507 632.684 131.861 632.367 132.16C632.05 132.459 631.676 132.692 631.247 132.86C630.818 133.028 630.346 133.112 629.833 133.112ZM629.819 131.824C630.127 131.824 630.402 131.773 630.645 131.67C630.897 131.567 631.116 131.427 631.303 131.25C631.49 131.063 631.63 130.844 631.723 130.592C631.826 130.34 631.877 130.06 631.877 129.752C631.877 129.155 631.695 128.669 631.331 128.296C630.967 127.923 630.486 127.736 629.889 127.736C629.497 127.736 629.138 127.825 628.811 128.002C628.484 128.17 628.228 128.408 628.041 128.716C627.854 129.024 627.761 129.374 627.761 129.766C627.761 130.158 627.85 130.513 628.027 130.83C628.204 131.138 628.447 131.381 628.755 131.558C629.072 131.735 629.427 131.824 629.819 131.824ZM637.797 133V125.468C637.751 125.543 637.671 125.608 637.559 125.664C637.457 125.711 637.34 125.748 637.209 125.776C637.079 125.804 636.943 125.818 636.803 125.818H635.473V124.53H636.691C637.037 124.53 637.303 124.441 637.489 124.264C637.685 124.077 637.807 123.723 637.853 123.2H639.253V133H637.797ZM635.109 133V131.712H641.647V133H635.109ZM647.176 133.112C646.569 133.112 646.046 133.019 645.608 132.832C645.169 132.636 644.824 132.361 644.572 132.006C644.32 131.642 644.175 131.208 644.138 130.704H645.412C645.468 131.124 645.64 131.446 645.93 131.67C646.228 131.885 646.644 131.992 647.176 131.992C647.493 131.992 647.768 131.955 648.002 131.88C648.235 131.796 648.412 131.679 648.534 131.53C648.655 131.381 648.716 131.203 648.716 130.998C648.716 130.746 648.636 130.555 648.478 130.424C648.319 130.284 648.104 130.181 647.834 130.116C647.572 130.051 647.283 129.999 646.966 129.962C646.658 129.915 646.345 129.859 646.028 129.794C645.71 129.719 645.416 129.617 645.146 129.486C644.884 129.355 644.674 129.164 644.516 128.912C644.357 128.66 644.278 128.333 644.278 127.932C644.278 127.503 644.394 127.134 644.628 126.826C644.87 126.509 645.202 126.266 645.622 126.098C646.042 125.921 646.522 125.832 647.064 125.832C647.652 125.832 648.156 125.921 648.576 126.098C648.996 126.266 649.322 126.513 649.556 126.84C649.789 127.167 649.92 127.563 649.948 128.03H648.66C648.632 127.787 648.548 127.582 648.408 127.414C648.277 127.246 648.1 127.12 647.876 127.036C647.652 126.943 647.381 126.896 647.064 126.896C646.616 126.896 646.256 126.985 645.986 127.162C645.715 127.33 645.58 127.559 645.58 127.848C645.58 128.091 645.659 128.277 645.818 128.408C645.976 128.529 646.186 128.618 646.448 128.674C646.718 128.73 647.012 128.781 647.33 128.828C647.656 128.865 647.978 128.917 648.296 128.982C648.613 129.038 648.902 129.136 649.164 129.276C649.434 129.407 649.649 129.603 649.808 129.864C649.966 130.116 650.046 130.452 650.046 130.872C650.046 131.217 649.98 131.53 649.85 131.81C649.719 132.09 649.523 132.328 649.262 132.524C649.01 132.711 648.706 132.855 648.352 132.958C648.006 133.061 647.614 133.112 647.176 133.112Z" fill="black"/>
</svg>
