<svg width="668" height="296" viewBox="0 0 668 296" fill="none" xmlns="http://www.w3.org/2000/svg">
<path opacity="0.4" d="M0 4C0 1.79086 1.79086 0 4 0H664C666.209 0 668 1.79086 668 4V292C668 294.209 666.209 296 664 296H3.99999C1.79085 296 0 294.209 0 292V4Z" fill="#B8C6B0"/>
<path d="M10 8.5H658C658.828 8.5 659.5 9.17158 659.5 10V286C659.5 286.828 658.828 287.5 658 287.5H10C9.17157 287.5 8.5 286.828 8.5 286V10C8.5 9.17157 9.17157 8.5 10 8.5Z" fill="#D7DDD4" stroke="#B8C6B0"/>
<path d="M48.0092 72.4029C45.1887 72.4029 42.9222 71.7817 41.2097 70.5394C39.4973 69.2634 38.2549 67.3999 37.4826 64.9487C36.7103 62.4975 36.3242 59.4755 36.3242 55.8827V52.8608C36.3242 49.268 36.7103 46.246 37.4826 43.7948C38.2549 41.3436 39.4973 39.4969 41.2097 38.2545C42.9222 36.9785 45.1887 36.3406 48.0092 36.3406H49.6713C52.5254 36.3406 54.7919 36.9785 56.4708 38.2545C58.1832 39.4969 59.4256 41.3436 60.1979 43.7948C60.9702 46.246 61.3563 49.268 61.3563 52.8608V55.8827C61.3563 59.4755 60.9702 62.4975 60.1979 64.9487C59.4256 67.3999 58.1832 69.2634 56.4708 70.5394C54.7919 71.7817 52.5254 72.4029 49.6713 72.4029H48.0092ZM49.6713 69.2802C51.7195 69.2802 53.348 68.7933 54.5568 67.8196C55.7656 66.8123 56.6386 65.3181 57.1759 63.337C57.7467 61.3223 58.0321 58.8376 58.0321 55.8827V52.8608C58.0321 49.8724 57.7467 47.3876 57.1759 45.4065C56.6386 43.4255 55.7656 41.948 54.5568 40.9743C53.348 39.967 51.7195 39.4633 49.6713 39.4633H48.0596C46.0449 39.4633 44.4164 39.967 43.174 40.9743C41.9652 41.948 41.0754 43.4255 40.5046 45.4065C39.9674 47.3876 39.6987 49.8724 39.6987 52.8608V55.8827C39.6987 58.8376 39.9674 61.3223 40.5046 63.337C41.0754 65.3181 41.9652 66.8123 43.174 67.8196C44.4164 68.7933 46.0449 69.2802 48.0596 69.2802H49.6713ZM79.1801 72V43.2911C79.0122 43.5262 78.794 43.7444 78.5253 43.9459C78.2903 44.1138 77.9881 44.2481 77.6187 44.3488C77.283 44.416 76.88 44.4496 76.41 44.4496H70.8193V41.3268H75.8056C76.8465 41.3268 77.6355 41.0246 78.1728 40.4203C78.7436 39.8159 79.0794 38.5903 79.1801 36.7435H82.5547V72H79.1801ZM69.0565 72V68.8773H91.7717V72H69.0565Z" fill="black" fill-opacity="0.8"/>
<path d="M105.218 49V39.2H111.812V41.006H107.318V43.092H110.888V44.898H107.318V47.194H111.966V49H105.218ZM115.702 49H113.602L118.53 41.944H120.672L115.702 49ZM120.854 49H118.754L113.784 41.944H115.926L120.854 49ZM126.607 49C125.813 49 125.183 48.7713 124.717 48.314C124.259 47.8473 124.031 47.2173 124.031 46.424V43.568H122.323V41.944H124.031V39.858H125.977V41.944H128.539V43.568H125.977V46.34C125.977 46.6573 126.07 46.9093 126.257 47.096C126.443 47.2827 126.695 47.376 127.013 47.376H129.561V49H126.607ZM132.261 49V41.944H134.221V43.12C134.408 42.6813 134.641 42.378 134.921 42.21C135.201 42.0327 135.556 41.944 135.985 41.944H138.211V43.568H135.621C135.304 43.568 135.038 43.652 134.823 43.82C134.618 43.988 134.464 44.2213 134.361 44.52C134.268 44.8187 134.221 45.1687 134.221 45.57V49H132.261ZM142.787 49.112C142.33 49.112 141.924 49.0187 141.569 48.832C141.215 48.6453 140.935 48.3933 140.729 48.076C140.533 47.7587 140.435 47.3993 140.435 46.998C140.435 46.5313 140.543 46.1347 140.757 45.808C140.981 45.472 141.289 45.2153 141.681 45.038C142.083 44.8513 142.545 44.758 143.067 44.758H144.285C144.463 44.758 144.598 44.7113 144.691 44.618C144.785 44.5247 144.831 44.4033 144.831 44.254C144.831 43.9553 144.715 43.7173 144.481 43.54C144.257 43.3533 143.94 43.26 143.529 43.26C143.24 43.26 142.993 43.316 142.787 43.428C142.591 43.5307 142.442 43.666 142.339 43.834C142.237 44.002 142.181 44.184 142.171 44.38H140.435C140.463 43.904 140.608 43.4747 140.869 43.092C141.131 42.7093 141.495 42.406 141.961 42.182C142.428 41.9487 142.983 41.832 143.627 41.832C144.234 41.832 144.771 41.9393 145.237 42.154C145.713 42.3687 146.087 42.6767 146.357 43.078C146.628 43.47 146.763 43.932 146.763 44.464V49H144.831V48.02C144.747 48.2347 144.603 48.426 144.397 48.594C144.201 48.7527 143.963 48.8787 143.683 48.972C143.413 49.0653 143.114 49.112 142.787 49.112ZM143.277 47.698C143.763 47.698 144.141 47.5487 144.411 47.25C144.691 46.942 144.831 46.5593 144.831 46.102V46.018H143.417C143.081 46.018 142.811 46.0973 142.605 46.256C142.409 46.4147 142.311 46.6293 142.311 46.9C142.311 47.1333 142.4 47.3247 142.577 47.474C142.755 47.6233 142.988 47.698 143.277 47.698ZM152.572 49.112C151.844 49.112 151.205 48.9533 150.654 48.636C150.113 48.3093 149.693 47.8707 149.394 47.32C149.096 46.7693 148.946 46.1533 148.946 45.472C148.946 44.9587 149.03 44.4827 149.198 44.044C149.366 43.6053 149.614 43.218 149.94 42.882C150.267 42.546 150.65 42.2893 151.088 42.112C151.536 41.9253 152.031 41.832 152.572 41.832C153.198 41.832 153.762 41.9487 154.266 42.182C154.77 42.4153 155.176 42.7373 155.484 43.148C155.802 43.5587 155.984 44.0393 156.03 44.59H154.07C154.033 44.3753 153.944 44.1887 153.804 44.03C153.664 43.8713 153.492 43.7453 153.286 43.652C153.09 43.5493 152.876 43.498 152.642 43.498C152.288 43.498 151.984 43.5867 151.732 43.764C151.48 43.932 151.289 44.1607 151.158 44.45C151.028 44.7393 150.962 45.08 150.962 45.472C150.962 45.8547 151.028 46.1953 151.158 46.494C151.298 46.7833 151.494 47.0167 151.746 47.194C151.998 47.362 152.302 47.446 152.656 47.446C153.02 47.446 153.333 47.348 153.594 47.152C153.856 46.9467 154.019 46.69 154.084 46.382H156.072C155.998 46.914 155.802 47.3853 155.484 47.796C155.167 48.2067 154.756 48.5287 154.252 48.762C153.758 48.9953 153.198 49.112 152.572 49.112ZM161.853 49C161.059 49 160.429 48.7713 159.963 48.314C159.505 47.8473 159.277 47.2173 159.277 46.424V43.568H157.569V41.944H159.277V39.858H161.223V41.944H163.785V43.568H161.223V46.34C161.223 46.6573 161.316 46.9093 161.503 47.096C161.689 47.2827 161.941 47.376 162.259 47.376H164.807V49H161.853ZM104.42 70L107.696 60.2H109.124L112.4 70H110.916L108.424 61.992L105.89 70H104.42ZM105.876 67.508L106.072 66.234H110.748L110.958 67.508H105.876ZM116.724 70.112C116.202 70.112 115.74 69.9953 115.338 69.762C114.946 69.5193 114.643 69.188 114.428 68.768C114.214 68.3387 114.106 67.844 114.106 67.284V62.944H115.464V67.018C115.464 67.5687 115.614 68.0213 115.912 68.376C116.211 68.7213 116.608 68.894 117.102 68.894C117.476 68.894 117.802 68.8053 118.082 68.628C118.372 68.4413 118.596 68.1893 118.754 67.872C118.922 67.5453 119.006 67.1767 119.006 66.766V62.944H120.364V70H119.006V68.754C118.82 69.1927 118.526 69.5287 118.124 69.762C117.723 69.9953 117.256 70.112 116.724 70.112ZM125.655 70.112C124.955 70.112 124.357 69.9533 123.863 69.636C123.368 69.3187 122.99 68.8893 122.729 68.348C122.467 67.7973 122.337 67.172 122.337 66.472C122.337 65.9493 122.411 65.4687 122.561 65.03C122.71 64.582 122.925 64.1947 123.205 63.868C123.485 63.5413 123.83 63.2893 124.241 63.112C124.661 62.9253 125.137 62.832 125.669 62.832C126.145 62.832 126.588 62.9393 126.999 63.154C127.409 63.3593 127.722 63.6347 127.937 63.98V59.99H129.295V70H127.937V68.95C127.722 69.2953 127.409 69.5753 126.999 69.79C126.588 70.0047 126.14 70.112 125.655 70.112ZM125.879 68.922C126.205 68.922 126.499 68.866 126.761 68.754C127.022 68.6327 127.251 68.4647 127.447 68.25C127.643 68.0353 127.787 67.7787 127.881 67.48C127.983 67.1813 128.035 66.8453 128.035 66.472C128.035 65.7347 127.839 65.142 127.447 64.694C127.055 64.246 126.532 64.022 125.879 64.022C125.552 64.022 125.253 64.0827 124.983 64.204C124.721 64.316 124.493 64.4793 124.297 64.694C124.11 64.9087 123.965 65.1653 123.863 65.464C123.76 65.7627 123.709 66.0987 123.709 66.472C123.709 67.2093 123.905 67.802 124.297 68.25C124.698 68.698 125.225 68.922 125.879 68.922ZM134.795 70V64.61C134.795 64.2833 134.632 64.12 134.305 64.12H131.589V62.944H134.571C135.066 62.944 135.453 63.0887 135.733 63.378C136.013 63.658 136.153 64.0407 136.153 64.526V70H134.795ZM134.725 59.99H136.237V61.698H134.725V59.99ZM143.683 70.112C142.983 70.112 142.358 69.958 141.807 69.65C141.257 69.3327 140.827 68.8987 140.519 68.348C140.211 67.7973 140.057 67.172 140.057 66.472C140.057 65.7627 140.211 65.1373 140.519 64.596C140.827 64.0453 141.257 63.616 141.807 63.308C142.358 62.9907 142.983 62.832 143.683 62.832C144.393 62.832 145.018 62.9907 145.559 63.308C146.11 63.616 146.539 64.0453 146.847 64.596C147.155 65.1373 147.309 65.7627 147.309 66.472C147.309 67.172 147.155 67.7973 146.847 68.348C146.539 68.8987 146.11 69.3327 145.559 69.65C145.018 69.958 144.393 70.112 143.683 70.112ZM143.683 68.922C144.131 68.922 144.523 68.8193 144.859 68.614C145.195 68.3993 145.457 68.11 145.643 67.746C145.83 67.3727 145.923 66.948 145.923 66.472C145.923 65.996 145.83 65.576 145.643 65.212C145.457 64.8387 145.195 64.5493 144.859 64.344C144.523 64.1293 144.131 64.022 143.683 64.022C143.235 64.022 142.843 64.1293 142.507 64.344C142.171 64.5493 141.91 64.8387 141.723 65.212C141.537 65.576 141.443 65.996 141.443 66.472C141.443 66.948 141.537 67.3727 141.723 67.746C141.91 68.11 142.171 68.3993 142.507 68.614C142.843 68.8193 143.235 68.922 143.683 68.922ZM158.03 70V60.2H161.628C162.291 60.2 162.86 60.3167 163.336 60.55C163.812 60.774 164.176 61.096 164.428 61.516C164.68 61.9267 164.806 62.426 164.806 63.014C164.806 63.5927 164.643 64.092 164.316 64.512C163.989 64.9227 163.555 65.24 163.014 65.464C162.473 65.6787 161.871 65.786 161.208 65.786H159.486V70H158.03ZM163.378 70L163.182 67.62C163.145 67.1813 162.991 66.8267 162.72 66.556C162.449 66.276 162.109 66.136 161.698 66.136H159.234V64.974H161.908C162.421 64.974 162.869 65.0813 163.252 65.296C163.644 65.5107 163.957 65.8093 164.19 66.192C164.433 66.5653 164.568 66.9993 164.596 67.494L164.792 70H163.378ZM159.486 64.848H161.586C162.015 64.848 162.356 64.7687 162.608 64.61C162.869 64.442 163.056 64.2273 163.168 63.966C163.289 63.7047 163.35 63.4293 163.35 63.14C163.35 62.8413 163.289 62.566 163.168 62.314C163.056 62.062 162.869 61.8567 162.608 61.698C162.356 61.5393 162.015 61.46 161.586 61.46H159.486V64.848ZM170.265 70.112C169.723 70.112 169.233 70.014 168.795 69.818C168.356 69.622 167.983 69.3513 167.675 69.006C167.376 68.6607 167.143 68.2687 166.975 67.83C166.816 67.382 166.737 66.9153 166.737 66.43C166.737 65.9353 166.811 65.4733 166.961 65.044C167.11 64.6053 167.329 64.2227 167.619 63.896C167.917 63.56 168.277 63.2987 168.697 63.112C169.117 62.9253 169.597 62.832 170.139 62.832C170.68 62.832 171.156 62.9207 171.567 63.098C171.987 63.2753 172.337 63.5227 172.617 63.84C172.897 64.148 173.107 64.5027 173.247 64.904C173.396 65.3053 173.471 65.73 173.471 66.178C173.471 66.2713 173.466 66.3693 173.457 66.472C173.457 66.5747 173.452 66.6587 173.443 66.724H167.521V65.674H172.099C172.061 65.1327 171.87 64.708 171.525 64.4C171.179 64.0827 170.717 63.924 170.139 63.924C169.812 63.924 169.518 63.98 169.257 64.092C168.995 64.1947 168.776 64.3533 168.599 64.568C168.421 64.7733 168.286 65.03 168.193 65.338C168.099 65.646 168.053 66.0053 168.053 66.416C168.053 66.9107 168.141 67.3493 168.319 67.732C168.505 68.1147 168.767 68.4133 169.103 68.628C169.439 68.8427 169.826 68.95 170.265 68.95C170.787 68.95 171.212 68.8427 171.539 68.628C171.865 68.4133 172.075 68.1053 172.169 67.704H173.527C173.452 68.1893 173.265 68.614 172.967 68.978C172.668 69.3327 172.29 69.6127 171.833 69.818C171.375 70.014 170.853 70.112 170.265 70.112ZM179.083 70.112C178.346 70.112 177.716 69.944 177.193 69.608C176.68 69.272 176.283 68.8287 176.003 68.278C175.732 67.718 175.597 67.116 175.597 66.472C175.597 65.9867 175.672 65.5293 175.821 65.1C175.98 64.6613 176.208 64.2693 176.507 63.924C176.815 63.5787 177.184 63.3127 177.613 63.126C178.042 62.93 178.532 62.832 179.083 62.832C179.643 62.832 180.156 62.9347 180.623 63.14C181.099 63.3453 181.491 63.6393 181.799 64.022C182.116 64.4047 182.303 64.8667 182.359 65.408H181.015C180.968 65.1373 180.852 64.8993 180.665 64.694C180.488 64.4887 180.264 64.3253 179.993 64.204C179.732 64.0827 179.438 64.022 179.111 64.022C178.644 64.022 178.252 64.134 177.935 64.358C177.627 64.582 177.394 64.876 177.235 65.24C177.086 65.604 177.011 66.0147 177.011 66.472C177.011 66.92 177.09 67.3307 177.249 67.704C177.408 68.068 177.641 68.362 177.949 68.586C178.266 68.81 178.658 68.922 179.125 68.922C179.61 68.922 180.021 68.8053 180.357 68.572C180.693 68.3293 180.912 68.012 181.015 67.62H182.373C182.289 68.1147 182.098 68.5533 181.799 68.936C181.51 69.3093 181.132 69.5987 180.665 69.804C180.198 70.0093 179.671 70.112 179.083 70.112ZM187.775 70.112C187.075 70.112 186.45 69.958 185.899 69.65C185.349 69.3327 184.919 68.8987 184.611 68.348C184.303 67.7973 184.149 67.172 184.149 66.472C184.149 65.7627 184.303 65.1373 184.611 64.596C184.919 64.0453 185.349 63.616 185.899 63.308C186.45 62.9907 187.075 62.832 187.775 62.832C188.485 62.832 189.11 62.9907 189.651 63.308C190.202 63.616 190.631 64.0453 190.939 64.596C191.247 65.1373 191.401 65.7627 191.401 66.472C191.401 67.172 191.247 67.7973 190.939 68.348C190.631 68.8987 190.202 69.3327 189.651 69.65C189.11 69.958 188.485 70.112 187.775 70.112ZM187.775 68.922C188.223 68.922 188.615 68.8193 188.951 68.614C189.287 68.3993 189.549 68.11 189.735 67.746C189.922 67.3727 190.015 66.948 190.015 66.472C190.015 65.996 189.922 65.576 189.735 65.212C189.549 64.8387 189.287 64.5493 188.951 64.344C188.615 64.1293 188.223 64.022 187.775 64.022C187.327 64.022 186.935 64.1293 186.599 64.344C186.263 64.5493 186.002 64.8387 185.815 65.212C185.629 65.576 185.535 65.996 185.535 66.472C185.535 66.948 185.629 67.3727 185.815 67.746C186.002 68.11 186.263 68.3993 186.599 68.614C186.935 68.8193 187.327 68.922 187.775 68.922ZM194.186 70V62.944H195.544V64.302C195.702 63.826 195.931 63.4807 196.23 63.266C196.528 63.0513 196.925 62.944 197.42 62.944H199.772V64.12H197.252C196.832 64.12 196.496 64.2367 196.244 64.47C195.992 64.7033 195.81 65.0207 195.698 65.422C195.595 65.8233 195.544 66.2853 195.544 66.808V70H194.186ZM205.02 70.112C204.32 70.112 203.723 69.9533 203.228 69.636C202.733 69.3187 202.355 68.8893 202.094 68.348C201.833 67.7973 201.702 67.172 201.702 66.472C201.702 65.9493 201.777 65.4687 201.926 65.03C202.075 64.582 202.29 64.1947 202.57 63.868C202.85 63.5413 203.195 63.2893 203.606 63.112C204.026 62.9253 204.502 62.832 205.034 62.832C205.51 62.832 205.953 62.9393 206.364 63.154C206.775 63.3593 207.087 63.6347 207.302 63.98V59.99H208.66V70H207.302V68.95C207.087 69.2953 206.775 69.5753 206.364 69.79C205.953 70.0047 205.505 70.112 205.02 70.112ZM205.244 68.922C205.571 68.922 205.865 68.866 206.126 68.754C206.387 68.6327 206.616 68.4647 206.812 68.25C207.008 68.0353 207.153 67.7787 207.246 67.48C207.349 67.1813 207.4 66.8453 207.4 66.472C207.4 65.7347 207.204 65.142 206.812 64.694C206.42 64.246 205.897 64.022 205.244 64.022C204.917 64.022 204.619 64.0827 204.348 64.204C204.087 64.316 203.858 64.4793 203.662 64.694C203.475 64.9087 203.331 65.1653 203.228 65.464C203.125 65.7627 203.074 66.0987 203.074 66.472C203.074 67.2093 203.27 67.802 203.662 68.25C204.063 68.698 204.591 68.922 205.244 68.922ZM214.16 70V64.61C214.16 64.2833 213.997 64.12 213.67 64.12H210.954V62.944H213.936C214.431 62.944 214.818 63.0887 215.098 63.378C215.378 63.658 215.518 64.0407 215.518 64.526V70H214.16ZM214.09 59.99H215.602V61.698H214.09V59.99ZM219.913 70V62.944H221.271V64.19C221.467 63.7513 221.761 63.4153 222.153 63.182C222.554 62.9487 223.021 62.832 223.553 62.832C224.085 62.832 224.547 62.9533 224.939 63.196C225.331 63.4293 225.634 63.7607 225.849 64.19C226.063 64.61 226.171 65.1 226.171 65.66V70H224.813V65.926C224.813 65.366 224.663 64.9133 224.365 64.568C224.066 64.2227 223.669 64.05 223.175 64.05C222.801 64.05 222.47 64.1433 222.181 64.33C221.901 64.5073 221.677 64.7547 221.509 65.072C221.35 65.3893 221.271 65.758 221.271 66.178V70H219.913ZM229.123 72.856V71.722H232.595C232.959 71.722 233.248 71.61 233.463 71.386C233.678 71.1713 233.785 70.8727 233.785 70.49V69.104C233.608 69.4027 233.309 69.6453 232.889 69.832C232.478 70.0187 232.016 70.112 231.503 70.112C230.803 70.112 230.206 69.9533 229.711 69.636C229.216 69.3187 228.838 68.8893 228.577 68.348C228.316 67.7973 228.185 67.172 228.185 66.472C228.185 65.9493 228.26 65.4687 228.409 65.03C228.558 64.582 228.773 64.1947 229.053 63.868C229.333 63.5413 229.678 63.2893 230.089 63.112C230.509 62.9253 230.985 62.832 231.517 62.832C231.825 62.832 232.124 62.8787 232.413 62.972C232.702 63.056 232.964 63.1773 233.197 63.336C233.44 63.4947 233.636 63.6767 233.785 63.882V62.944H235.143V70.532C235.143 71.0173 235.045 71.4327 234.849 71.778C234.662 72.1233 234.387 72.3893 234.023 72.576C233.668 72.7627 233.239 72.856 232.735 72.856H229.123ZM231.727 68.922C232.166 68.922 232.544 68.8193 232.861 68.614C233.188 68.4087 233.44 68.124 233.617 67.76C233.794 67.396 233.883 66.9667 233.883 66.472C233.883 65.7347 233.687 65.142 233.295 64.694C232.903 64.246 232.38 64.022 231.727 64.022C231.4 64.022 231.102 64.0827 230.831 64.204C230.57 64.316 230.341 64.4793 230.145 64.694C229.958 64.9087 229.814 65.1653 229.711 65.464C229.608 65.7627 229.557 66.0987 229.557 66.472C229.557 67.2093 229.753 67.802 230.145 68.25C230.546 68.698 231.074 68.922 231.727 68.922ZM248.65 70.112C248.034 70.112 247.497 70 247.04 69.776C246.582 69.552 246.223 69.2347 245.962 68.824C245.7 68.404 245.57 67.9 245.57 67.312C245.57 66.8547 245.654 66.4673 245.822 66.15C245.99 65.8327 246.204 65.562 246.466 65.338C246.736 65.1047 247.035 64.904 247.362 64.736C247.688 64.5587 248.015 64.3907 248.342 64.232C248.668 64.0733 248.967 63.91 249.238 63.742C249.508 63.574 249.723 63.3827 249.882 63.168C250.05 62.944 250.134 62.678 250.134 62.37C250.134 62.0153 250.017 61.726 249.784 61.502C249.56 61.278 249.261 61.166 248.888 61.166C248.636 61.166 248.412 61.222 248.216 61.334C248.029 61.4367 247.884 61.586 247.782 61.782C247.679 61.978 247.628 62.202 247.628 62.454C247.628 62.6873 247.698 62.9347 247.838 63.196C247.987 63.448 248.16 63.6907 248.356 63.924C248.561 64.148 248.743 64.3533 248.902 64.54L253.746 70H252.22L247.95 65.268C247.66 64.9413 247.394 64.624 247.152 64.316C246.909 63.9987 246.718 63.6907 246.578 63.392C246.438 63.084 246.368 62.776 246.368 62.468C246.368 62.1133 246.428 61.7913 246.55 61.502C246.671 61.2127 246.844 60.9607 247.068 60.746C247.292 60.5313 247.558 60.368 247.866 60.256C248.174 60.144 248.514 60.088 248.888 60.088C249.382 60.088 249.816 60.186 250.19 60.382C250.563 60.578 250.852 60.8487 251.058 61.194C251.272 61.53 251.38 61.9267 251.38 62.384C251.38 62.832 251.296 63.2147 251.128 63.532C250.969 63.8493 250.754 64.1247 250.484 64.358C250.222 64.582 249.928 64.7827 249.602 64.96C249.284 65.128 248.967 65.2913 248.65 65.45C248.342 65.5993 248.052 65.758 247.782 65.926C247.511 66.094 247.296 66.29 247.138 66.514C246.979 66.738 246.9 67.0087 246.9 67.326C246.9 67.8207 247.054 68.208 247.362 68.488C247.679 68.768 248.108 68.908 248.65 68.908C248.93 68.908 249.186 68.866 249.42 68.782C249.662 68.698 249.896 68.5627 250.12 68.376C250.344 68.18 250.558 67.9187 250.764 67.592L251.604 66.444C251.828 66.108 252.047 65.8607 252.262 65.702C252.476 65.534 252.696 65.4267 252.92 65.38C253.153 65.324 253.386 65.296 253.62 65.296V66.584C253.414 66.584 253.223 66.6213 253.046 66.696C252.878 66.7707 252.728 66.8687 252.598 66.99C252.467 67.1113 252.355 67.2467 252.262 67.396L251.73 68.292C251.524 68.6187 251.3 68.8987 251.058 69.132C250.824 69.3653 250.577 69.5567 250.316 69.706C250.054 69.846 249.784 69.9487 249.504 70.014C249.233 70.0793 248.948 70.112 248.65 70.112ZM267.378 70.112C266.734 70.112 266.16 70 265.656 69.776C265.162 69.5427 264.742 69.2113 264.396 68.782C264.051 68.3527 263.79 67.8253 263.612 67.2C263.435 66.5747 263.346 65.8747 263.346 65.1C263.346 64.4747 263.402 63.9007 263.514 63.378C263.636 62.8553 263.808 62.3933 264.032 61.992C264.256 61.5813 264.527 61.236 264.844 60.956C265.171 60.6667 265.544 60.452 265.964 60.312C266.394 60.1627 266.865 60.088 267.378 60.088C268.05 60.088 268.629 60.2187 269.114 60.48C269.609 60.7413 270.006 61.1147 270.304 61.6C270.603 62.0853 270.794 62.6687 270.878 63.35H269.352C269.306 62.9393 269.198 62.5893 269.03 62.3C268.872 62.0013 268.652 61.7727 268.372 61.614C268.102 61.4553 267.766 61.376 267.364 61.376C267.038 61.376 266.744 61.432 266.482 61.544C266.221 61.6467 265.988 61.8053 265.782 62.02C265.577 62.2347 265.404 62.4913 265.264 62.79C265.124 63.0887 265.017 63.434 264.942 63.826C264.877 64.2087 264.844 64.6333 264.844 65.1C264.844 65.8747 264.942 66.542 265.138 67.102C265.334 67.6527 265.619 68.0773 265.992 68.376C266.375 68.6747 266.832 68.824 267.364 68.824C267.747 68.824 268.078 68.7447 268.358 68.586C268.648 68.4273 268.881 68.1987 269.058 67.9C269.236 67.6013 269.343 67.2513 269.38 66.85H270.864C270.799 67.522 270.612 68.1053 270.304 68.6C270.006 69.0853 269.609 69.4587 269.114 69.72C268.62 69.9813 268.041 70.112 267.378 70.112ZM272.865 70V59.99H274.223V64.19C274.409 63.7513 274.703 63.4153 275.105 63.182C275.506 62.9487 275.968 62.832 276.491 62.832C277.023 62.832 277.485 62.9533 277.877 63.196C278.278 63.4293 278.586 63.7607 278.801 64.19C279.015 64.61 279.123 65.1 279.123 65.66V70H277.765V65.926C277.765 65.366 277.615 64.9133 277.317 64.568C277.018 64.2227 276.617 64.05 276.113 64.05C275.749 64.05 275.422 64.1433 275.133 64.33C274.843 64.5073 274.619 64.7547 274.461 65.072C274.302 65.3893 274.223 65.758 274.223 66.178V70H272.865ZM284.273 70.112C283.751 70.112 283.289 69.9953 282.887 69.762C282.495 69.5193 282.192 69.188 281.977 68.768C281.763 68.3387 281.655 67.844 281.655 67.284V62.944H283.013V67.018C283.013 67.5687 283.163 68.0213 283.461 68.376C283.76 68.7213 284.157 68.894 284.651 68.894C285.025 68.894 285.351 68.8053 285.631 68.628C285.921 68.4413 286.145 68.1893 286.303 67.872C286.471 67.5453 286.555 67.1767 286.555 66.766V62.944H287.913V70H286.555V68.754C286.369 69.1927 286.075 69.5287 285.673 69.762C285.272 69.9953 284.805 70.112 284.273 70.112ZM290.46 70V62.944H291.818V64.19C292.014 63.7513 292.308 63.4153 292.7 63.182C293.101 62.9487 293.568 62.832 294.1 62.832C294.632 62.832 295.094 62.9533 295.486 63.196C295.878 63.4293 296.181 63.7607 296.396 64.19C296.61 64.61 296.718 65.1 296.718 65.66V70H295.36V65.926C295.36 65.366 295.21 64.9133 294.912 64.568C294.613 64.2227 294.216 64.05 293.722 64.05C293.348 64.05 293.017 64.1433 292.728 64.33C292.448 64.5073 292.224 64.7547 292.056 65.072C291.897 65.3893 291.818 65.758 291.818 66.178V70H290.46ZM300.566 67.802L300.58 66.108L304.024 62.944H305.788L300.566 67.802ZM299.572 70V59.99H300.944V70H299.572ZM304.36 70L301.504 66.178L302.652 65.478L306.04 70H304.36ZM311.162 70V64.61C311.162 64.2833 310.999 64.12 310.672 64.12H307.956V62.944H310.938C311.433 62.944 311.82 63.0887 312.1 63.378C312.38 63.658 312.52 64.0407 312.52 64.526V70H311.162ZM311.092 59.99H312.604V61.698H311.092V59.99ZM316.915 70V62.944H318.273V64.19C318.469 63.7513 318.763 63.4153 319.155 63.182C319.556 62.9487 320.023 62.832 320.555 62.832C321.087 62.832 321.549 62.9533 321.941 63.196C322.333 63.4293 322.636 63.7607 322.851 64.19C323.065 64.61 323.173 65.1 323.173 65.66V70H321.815V65.926C321.815 65.366 321.665 64.9133 321.367 64.568C321.068 64.2227 320.671 64.05 320.177 64.05C319.803 64.05 319.472 64.1433 319.183 64.33C318.903 64.5073 318.679 64.7547 318.511 65.072C318.352 65.3893 318.273 65.758 318.273 66.178V70H316.915ZM326.125 72.856V71.722H329.597C329.961 71.722 330.25 71.61 330.465 71.386C330.68 71.1713 330.787 70.8727 330.787 70.49V69.104C330.61 69.4027 330.311 69.6453 329.891 69.832C329.48 70.0187 329.018 70.112 328.505 70.112C327.805 70.112 327.208 69.9533 326.713 69.636C326.218 69.3187 325.84 68.8893 325.579 68.348C325.318 67.7973 325.187 67.172 325.187 66.472C325.187 65.9493 325.262 65.4687 325.411 65.03C325.56 64.582 325.775 64.1947 326.055 63.868C326.335 63.5413 326.68 63.2893 327.091 63.112C327.511 62.9253 327.987 62.832 328.519 62.832C328.827 62.832 329.126 62.8787 329.415 62.972C329.704 63.056 329.966 63.1773 330.199 63.336C330.442 63.4947 330.638 63.6767 330.787 63.882V62.944H332.145V70.532C332.145 71.0173 332.047 71.4327 331.851 71.778C331.664 72.1233 331.389 72.3893 331.025 72.576C330.67 72.7627 330.241 72.856 329.737 72.856H326.125ZM328.729 68.922C329.168 68.922 329.546 68.8193 329.863 68.614C330.19 68.4087 330.442 68.124 330.619 67.76C330.796 67.396 330.885 66.9667 330.885 66.472C330.885 65.7347 330.689 65.142 330.297 64.694C329.905 64.246 329.382 64.022 328.729 64.022C328.402 64.022 328.104 64.0827 327.833 64.204C327.572 64.316 327.343 64.4793 327.147 64.694C326.96 64.9087 326.816 65.1653 326.713 65.464C326.61 65.7627 326.559 66.0987 326.559 66.472C326.559 67.2093 326.755 67.802 327.147 68.25C327.548 68.698 328.076 68.922 328.729 68.922Z" fill="black" fill-opacity="0.8"/>
<path d="M43.678 235V225.2H50.062V226.488H45.134V229.414H49.138V230.702H45.134V235H43.678ZM54.7364 235.112C54.2604 235.112 53.8404 235.023 53.4764 234.846C53.1124 234.659 52.8277 234.407 52.6224 234.09C52.4264 233.773 52.3284 233.404 52.3284 232.984C52.3284 232.527 52.4404 232.13 52.6644 231.794C52.8977 231.458 53.2197 231.197 53.6304 231.01C54.041 230.823 54.5217 230.73 55.0724 230.73H56.5564C56.715 230.73 56.8317 230.702 56.9064 230.646C56.9904 230.581 57.0324 230.487 57.0324 230.366C57.0324 229.937 56.883 229.591 56.5844 229.33C56.2857 229.059 55.8657 228.924 55.3244 228.924C54.9977 228.924 54.7037 228.985 54.4424 229.106C54.1904 229.227 53.9897 229.391 53.8404 229.596C53.691 229.792 53.607 230.011 53.5884 230.254H52.3284C52.3657 229.787 52.5197 229.372 52.7904 229.008C53.061 228.644 53.4157 228.359 53.8544 228.154C54.3024 227.939 54.8064 227.832 55.3664 227.832C55.973 227.832 56.5004 227.944 56.9484 228.168C57.4057 228.383 57.7557 228.686 57.9984 229.078C58.2504 229.47 58.3764 229.927 58.3764 230.45V235H57.0324V233.838C56.9204 234.09 56.7477 234.314 56.5144 234.51C56.2904 234.697 56.0244 234.846 55.7164 234.958C55.4177 235.061 55.091 235.112 54.7364 235.112ZM55.0024 234.034C55.637 234.034 56.1317 233.843 56.4864 233.46C56.8504 233.077 57.0324 232.559 57.0324 231.906V231.78H55.2124C54.755 231.78 54.3864 231.883 54.1064 232.088C53.8264 232.293 53.6864 232.583 53.6864 232.956C53.6864 233.273 53.803 233.535 54.0364 233.74C54.279 233.936 54.601 234.034 55.0024 234.034ZM60.35 235V227.944H61.694V228.784C61.8154 228.532 61.9787 228.313 62.184 228.126C62.3894 227.93 62.6927 227.832 63.094 227.832C63.4767 227.832 63.7847 227.939 64.018 228.154C64.2607 228.359 64.438 228.579 64.55 228.812C64.634 228.663 64.7554 228.513 64.914 228.364C65.0727 228.215 65.264 228.089 65.488 227.986C65.712 227.883 65.964 227.832 66.244 227.832C66.608 227.832 66.9254 227.921 67.196 228.098C67.4667 228.275 67.6767 228.541 67.826 228.896C67.9754 229.241 68.05 229.675 68.05 230.198V235H66.706V230.464C66.706 229.997 66.6407 229.652 66.51 229.428C66.3794 229.204 66.1694 229.092 65.88 229.092C65.6654 229.092 65.4834 229.143 65.334 229.246C65.1847 229.339 65.068 229.489 64.984 229.694C64.9094 229.89 64.872 230.147 64.872 230.464V235H63.528V230.464C63.528 229.997 63.458 229.652 63.318 229.428C63.178 229.204 62.9587 229.092 62.66 229.092C62.464 229.092 62.2914 229.143 62.142 229.246C62.002 229.339 61.89 229.489 61.806 229.694C61.7314 229.89 61.694 230.147 61.694 230.464V235H60.35ZM72.9484 235V229.61C72.9484 229.283 72.7851 229.12 72.4584 229.12H69.7424V227.944H72.7244C73.2191 227.944 73.6064 228.089 73.8864 228.378C74.1664 228.658 74.3064 229.041 74.3064 229.526V235H72.9484ZM72.8784 224.99H74.3904V226.698H72.8784V224.99ZM81.6968 235V226.656C81.6968 226.497 81.6548 226.376 81.5708 226.292C81.4868 226.208 81.3654 226.166 81.2068 226.166H78.5328V224.99H81.4728C81.9674 224.99 82.3548 225.13 82.6348 225.41C82.9148 225.69 83.0548 226.077 83.0548 226.572V235H81.6968ZM88.9471 237.856L89.9971 235.112L87.1691 227.944H88.5691L90.6411 233.376L92.7271 227.944H94.1271L90.2771 237.856H88.9471ZM104.694 235V225.2H106.444L108.292 232.494L110.154 225.2H111.904V235H110.602V227.734L108.796 235H107.802L105.982 227.734V235H104.694ZM117.236 235.112C116.695 235.112 116.205 235.014 115.766 234.818C115.328 234.622 114.954 234.351 114.646 234.006C114.348 233.661 114.114 233.269 113.946 232.83C113.788 232.382 113.708 231.915 113.708 231.43C113.708 230.935 113.783 230.473 113.932 230.044C114.082 229.605 114.301 229.223 114.59 228.896C114.889 228.56 115.248 228.299 115.668 228.112C116.088 227.925 116.569 227.832 117.11 227.832C117.652 227.832 118.128 227.921 118.538 228.098C118.958 228.275 119.308 228.523 119.588 228.84C119.868 229.148 120.078 229.503 120.218 229.904C120.368 230.305 120.442 230.73 120.442 231.178C120.442 231.271 120.438 231.369 120.428 231.472C120.428 231.575 120.424 231.659 120.414 231.724H114.492V230.674H119.07C119.033 230.133 118.842 229.708 118.496 229.4C118.151 229.083 117.689 228.924 117.11 228.924C116.784 228.924 116.49 228.98 116.228 229.092C115.967 229.195 115.748 229.353 115.57 229.568C115.393 229.773 115.258 230.03 115.164 230.338C115.071 230.646 115.024 231.005 115.024 231.416C115.024 231.911 115.113 232.349 115.29 232.732C115.477 233.115 115.738 233.413 116.074 233.628C116.41 233.843 116.798 233.95 117.236 233.95C117.759 233.95 118.184 233.843 118.51 233.628C118.837 233.413 119.047 233.105 119.14 232.704H120.498C120.424 233.189 120.237 233.614 119.938 233.978C119.64 234.333 119.262 234.613 118.804 234.818C118.347 235.014 117.824 235.112 117.236 235.112ZM122.079 235V227.944H123.423V228.784C123.544 228.532 123.707 228.313 123.913 228.126C124.118 227.93 124.421 227.832 124.823 227.832C125.205 227.832 125.513 227.939 125.747 228.154C125.989 228.359 126.167 228.579 126.279 228.812C126.363 228.663 126.484 228.513 126.643 228.364C126.801 228.215 126.993 228.089 127.217 227.986C127.441 227.883 127.693 227.832 127.973 227.832C128.337 227.832 128.654 227.921 128.925 228.098C129.195 228.275 129.405 228.541 129.555 228.896C129.704 229.241 129.779 229.675 129.779 230.198V235H128.435V230.464C128.435 229.997 128.369 229.652 128.239 229.428C128.108 229.204 127.898 229.092 127.609 229.092C127.394 229.092 127.212 229.143 127.063 229.246C126.913 229.339 126.797 229.489 126.713 229.694C126.638 229.89 126.601 230.147 126.601 230.464V235H125.257V230.464C125.257 229.997 125.187 229.652 125.047 229.428C124.907 229.204 124.687 229.092 124.389 229.092C124.193 229.092 124.02 229.143 123.871 229.246C123.731 229.339 123.619 229.489 123.535 229.694C123.46 229.89 123.423 230.147 123.423 230.464V235H122.079ZM135.139 235.112C134.812 235.112 134.504 235.065 134.215 234.972C133.926 234.869 133.664 234.734 133.431 234.566C133.198 234.389 133.006 234.183 132.857 233.95V235H131.499V224.99H132.857V228.98C133.072 228.635 133.384 228.359 133.795 228.154C134.206 227.939 134.649 227.832 135.125 227.832C135.834 227.832 136.436 227.991 136.931 228.308C137.426 228.625 137.804 229.059 138.065 229.61C138.326 230.151 138.457 230.772 138.457 231.472C138.457 231.995 138.382 232.48 138.233 232.928C138.084 233.367 137.869 233.749 137.589 234.076C137.309 234.403 136.959 234.659 136.539 234.846C136.128 235.023 135.662 235.112 135.139 235.112ZM134.915 233.922C135.242 233.922 135.536 233.866 135.797 233.754C136.068 233.633 136.296 233.465 136.483 233.25C136.679 233.035 136.828 232.779 136.931 232.48C137.034 232.181 137.085 231.845 137.085 231.472C137.085 230.735 136.889 230.142 136.497 229.694C136.105 229.246 135.578 229.022 134.915 229.022C134.486 229.022 134.108 229.125 133.781 229.33C133.454 229.535 133.202 229.82 133.025 230.184C132.848 230.548 132.759 230.977 132.759 231.472C132.759 232.209 132.955 232.802 133.347 233.25C133.739 233.698 134.262 233.922 134.915 233.922ZM143.691 235.112C143.15 235.112 142.66 235.014 142.221 234.818C141.783 234.622 141.409 234.351 141.101 234.006C140.803 233.661 140.569 233.269 140.401 232.83C140.243 232.382 140.163 231.915 140.163 231.43C140.163 230.935 140.238 230.473 140.387 230.044C140.537 229.605 140.756 229.223 141.045 228.896C141.344 228.56 141.703 228.299 142.123 228.112C142.543 227.925 143.024 227.832 143.565 227.832C144.107 227.832 144.583 227.921 144.993 228.098C145.413 228.275 145.763 228.523 146.043 228.84C146.323 229.148 146.533 229.503 146.673 229.904C146.823 230.305 146.897 230.73 146.897 231.178C146.897 231.271 146.893 231.369 146.883 231.472C146.883 231.575 146.879 231.659 146.869 231.724H140.947V230.674H145.525C145.488 230.133 145.297 229.708 144.951 229.4C144.606 229.083 144.144 228.924 143.565 228.924C143.239 228.924 142.945 228.98 142.683 229.092C142.422 229.195 142.203 229.353 142.025 229.568C141.848 229.773 141.713 230.03 141.619 230.338C141.526 230.646 141.479 231.005 141.479 231.416C141.479 231.911 141.568 232.349 141.745 232.732C141.932 233.115 142.193 233.413 142.529 233.628C142.865 233.843 143.253 233.95 143.691 233.95C144.214 233.95 144.639 233.843 144.965 233.628C145.292 233.413 145.502 233.105 145.595 232.704H146.953C146.879 233.189 146.692 233.614 146.393 233.978C146.095 234.333 145.717 234.613 145.259 234.818C144.802 235.014 144.279 235.112 143.691 235.112ZM149.976 235V227.944H151.334V229.302C151.492 228.826 151.721 228.481 152.02 228.266C152.318 228.051 152.715 227.944 153.21 227.944H155.562V229.12H153.042C152.622 229.12 152.286 229.237 152.034 229.47C151.782 229.703 151.6 230.021 151.488 230.422C151.385 230.823 151.334 231.285 151.334 231.808V235H149.976ZM77.6929 256.112C77.0489 256.112 76.4749 256 75.9709 255.776C75.4763 255.543 75.0563 255.211 74.7109 254.782C74.3656 254.353 74.1043 253.825 73.9269 253.2C73.7496 252.575 73.6609 251.875 73.6609 251.1C73.6609 250.475 73.7169 249.901 73.8289 249.378C73.9503 248.855 74.1229 248.393 74.3469 247.992C74.5709 247.581 74.8416 247.236 75.1589 246.956C75.4856 246.667 75.8589 246.452 76.2789 246.312C76.7083 246.163 77.1796 246.088 77.6929 246.088C78.3649 246.088 78.9436 246.219 79.4289 246.48C79.9236 246.741 80.3203 247.115 80.6189 247.6C80.9176 248.085 81.1089 248.669 81.1929 249.35H79.6669C79.6203 248.939 79.5129 248.589 79.3449 248.3C79.1863 248.001 78.9669 247.773 78.6869 247.614C78.4163 247.455 78.0803 247.376 77.6789 247.376C77.3523 247.376 77.0583 247.432 76.7969 247.544C76.5356 247.647 76.3023 247.805 76.0969 248.02C75.8916 248.235 75.7189 248.491 75.5789 248.79C75.4389 249.089 75.3316 249.434 75.2569 249.826C75.1916 250.209 75.1589 250.633 75.1589 251.1C75.1589 251.875 75.2569 252.542 75.4529 253.102C75.6489 253.653 75.9336 254.077 76.3069 254.376C76.6896 254.675 77.1469 254.824 77.6789 254.824C78.0616 254.824 78.3929 254.745 78.6729 254.586C78.9623 254.427 79.1956 254.199 79.3729 253.9C79.5503 253.601 79.6576 253.251 79.6949 252.85H81.1789C81.1136 253.522 80.9269 254.105 80.6189 254.6C80.3203 255.085 79.9236 255.459 79.4289 255.72C78.9343 255.981 78.3556 256.112 77.6929 256.112ZM86.2733 256.112C85.5733 256.112 84.9479 255.958 84.3973 255.65C83.8466 255.333 83.4173 254.899 83.1093 254.348C82.8013 253.797 82.6473 253.172 82.6473 252.472C82.6473 251.763 82.8013 251.137 83.1093 250.596C83.4173 250.045 83.8466 249.616 84.3973 249.308C84.9479 248.991 85.5733 248.832 86.2733 248.832C86.9826 248.832 87.6079 248.991 88.1493 249.308C88.6999 249.616 89.1293 250.045 89.4373 250.596C89.7453 251.137 89.8993 251.763 89.8993 252.472C89.8993 253.172 89.7453 253.797 89.4373 254.348C89.1293 254.899 88.6999 255.333 88.1493 255.65C87.6079 255.958 86.9826 256.112 86.2733 256.112ZM86.2733 254.922C86.7213 254.922 87.1133 254.819 87.4493 254.614C87.7853 254.399 88.0466 254.11 88.2333 253.746C88.4199 253.373 88.5133 252.948 88.5133 252.472C88.5133 251.996 88.4199 251.576 88.2333 251.212C88.0466 250.839 87.7853 250.549 87.4493 250.344C87.1133 250.129 86.7213 250.022 86.2733 250.022C85.8253 250.022 85.4333 250.129 85.0973 250.344C84.7613 250.549 84.4999 250.839 84.3133 251.212C84.1266 251.576 84.0333 251.996 84.0333 252.472C84.0333 252.948 84.1266 253.373 84.3133 253.746C84.4999 254.11 84.7613 254.399 85.0973 254.614C85.4333 254.819 85.8253 254.922 86.2733 254.922ZM91.9556 256V248.944H93.3136V250.19C93.5096 249.751 93.8036 249.415 94.1956 249.182C94.597 248.949 95.0636 248.832 95.5956 248.832C96.1276 248.832 96.5896 248.953 96.9816 249.196C97.3736 249.429 97.677 249.761 97.8916 250.19C98.1063 250.61 98.2136 251.1 98.2136 251.66V256H96.8556V251.926C96.8556 251.366 96.7063 250.913 96.4076 250.568C96.109 250.223 95.7123 250.05 95.2176 250.05C94.8443 250.05 94.513 250.143 94.2236 250.33C93.9436 250.507 93.7196 250.755 93.5516 251.072C93.393 251.389 93.3136 251.758 93.3136 252.178V256H91.9556ZM103.238 256L100.424 248.944H101.824L103.91 254.292L105.982 248.944H107.382L104.582 256H103.238ZM112.728 256.112C112.028 256.112 111.403 255.958 110.852 255.65C110.302 255.333 109.872 254.899 109.564 254.348C109.256 253.797 109.102 253.172 109.102 252.472C109.102 251.763 109.256 251.137 109.564 250.596C109.872 250.045 110.302 249.616 110.852 249.308C111.403 248.991 112.028 248.832 112.728 248.832C113.438 248.832 114.063 248.991 114.604 249.308C115.155 249.616 115.584 250.045 115.892 250.596C116.2 251.137 116.354 251.763 116.354 252.472C116.354 253.172 116.2 253.797 115.892 254.348C115.584 254.899 115.155 255.333 114.604 255.65C114.063 255.958 113.438 256.112 112.728 256.112ZM112.728 254.922C113.176 254.922 113.568 254.819 113.904 254.614C114.24 254.399 114.502 254.11 114.688 253.746C114.875 253.373 114.968 252.948 114.968 252.472C114.968 251.996 114.875 251.576 114.688 251.212C114.502 250.839 114.24 250.549 113.904 250.344C113.568 250.129 113.176 250.022 112.728 250.022C112.28 250.022 111.888 250.129 111.552 250.344C111.216 250.549 110.955 250.839 110.768 251.212C110.582 251.576 110.488 251.996 110.488 252.472C110.488 252.948 110.582 253.373 110.768 253.746C110.955 254.11 111.216 254.399 111.552 254.614C111.888 254.819 112.28 254.922 112.728 254.922ZM121.631 256.112C121.024 256.112 120.501 256.019 120.063 255.832C119.624 255.636 119.279 255.361 119.027 255.006C118.775 254.642 118.63 254.208 118.593 253.704H119.867C119.923 254.124 120.095 254.446 120.385 254.67C120.683 254.885 121.099 254.992 121.631 254.992C121.948 254.992 122.223 254.955 122.457 254.88C122.69 254.796 122.867 254.679 122.989 254.53C123.11 254.381 123.171 254.203 123.171 253.998C123.171 253.746 123.091 253.555 122.933 253.424C122.774 253.284 122.559 253.181 122.289 253.116C122.027 253.051 121.738 252.999 121.421 252.962C121.113 252.915 120.8 252.859 120.483 252.794C120.165 252.719 119.871 252.617 119.601 252.486C119.339 252.355 119.129 252.164 118.971 251.912C118.812 251.66 118.733 251.333 118.733 250.932C118.733 250.503 118.849 250.134 119.083 249.826C119.325 249.509 119.657 249.266 120.077 249.098C120.497 248.921 120.977 248.832 121.519 248.832C122.107 248.832 122.611 248.921 123.031 249.098C123.451 249.266 123.777 249.513 124.011 249.84C124.244 250.167 124.375 250.563 124.403 251.03H123.115C123.087 250.787 123.003 250.582 122.863 250.414C122.732 250.246 122.555 250.12 122.331 250.036C122.107 249.943 121.836 249.896 121.519 249.896C121.071 249.896 120.711 249.985 120.441 250.162C120.17 250.33 120.035 250.559 120.035 250.848C120.035 251.091 120.114 251.277 120.273 251.408C120.431 251.529 120.641 251.618 120.903 251.674C121.173 251.73 121.467 251.781 121.785 251.828C122.111 251.865 122.433 251.917 122.751 251.982C123.068 252.038 123.357 252.136 123.619 252.276C123.889 252.407 124.104 252.603 124.263 252.864C124.421 253.116 124.501 253.452 124.501 253.872C124.501 254.217 124.435 254.53 124.305 254.81C124.174 255.09 123.978 255.328 123.717 255.524C123.465 255.711 123.161 255.855 122.807 255.958C122.461 256.061 122.069 256.112 121.631 256.112Z" fill="black" fill-opacity="0.8"/>
<path d="M67 190.166C67 181.037 74.4003 171.637 83.5289 171.637C92.6576 171.637 100.058 181.037 100.058 190.166H67Z" fill="#B8C6B0"/>
<circle cx="83.1981" cy="161.065" r="8.26446" fill="#B8C6B0"/>
<path d="M106.33 199.001C106.33 191.881 112.102 186.109 119.222 186.109C126.342 186.109 132.114 191.881 132.114 199.001H106.33Z" fill="#B8C6B0"/>
<circle cx="118.964" cy="177.083" r="6.44598" fill="#B8C6B0"/>
<path d="M132.727 147.198C132.727 156.144 125.475 163.397 116.528 163.397C113.804 163.397 111.236 162.724 108.983 161.536C106.927 160.452 105.133 158.939 103.72 157.116C101.595 154.375 100.33 150.935 100.33 147.198C100.33 138.252 107.582 131 116.528 131C125.475 131 132.727 138.252 132.727 147.198Z" fill="#B8C6B0"/>
<path d="M103.72 157.116L102.037 163.397L108.983 161.536C106.927 160.452 105.133 158.939 103.72 157.116Z" fill="#B8C6B0"/>
<path d="M8 100L660 100" stroke="#B8C6B0"/>
<path d="M443.046 235.112C442.271 235.112 441.608 234.977 441.058 234.706C440.507 234.426 440.082 234.034 439.784 233.53C439.485 233.026 439.317 232.433 439.28 231.752H440.694C440.75 232.387 440.969 232.891 441.352 233.264C441.734 233.637 442.299 233.824 443.046 233.824C443.456 233.824 443.82 233.773 444.138 233.67C444.455 233.558 444.702 233.39 444.88 233.166C445.057 232.933 445.146 232.639 445.146 232.284C445.146 231.929 445.043 231.649 444.838 231.444C444.642 231.239 444.376 231.075 444.04 230.954C443.713 230.833 443.349 230.725 442.948 230.632C442.556 230.539 442.159 230.431 441.758 230.31C441.366 230.189 441.002 230.03 440.666 229.834C440.339 229.638 440.073 229.377 439.868 229.05C439.672 228.714 439.574 228.285 439.574 227.762C439.574 227.221 439.718 226.754 440.008 226.362C440.297 225.961 440.694 225.648 441.198 225.424C441.702 225.2 442.28 225.088 442.934 225.088C443.606 225.088 444.194 225.209 444.698 225.452C445.211 225.695 445.617 226.035 445.916 226.474C446.224 226.913 446.396 227.435 446.434 228.042H445.02C444.973 227.538 444.763 227.137 444.39 226.838C444.026 226.53 443.54 226.376 442.934 226.376C442.542 226.376 442.201 226.432 441.912 226.544C441.632 226.656 441.417 226.815 441.268 227.02C441.118 227.225 441.044 227.468 441.044 227.748C441.044 228.103 441.142 228.383 441.338 228.588C441.543 228.784 441.809 228.943 442.136 229.064C442.472 229.176 442.84 229.274 443.242 229.358C443.643 229.442 444.04 229.545 444.432 229.666C444.833 229.778 445.197 229.932 445.524 230.128C445.86 230.324 446.126 230.595 446.322 230.94C446.527 231.276 446.63 231.719 446.63 232.27C446.63 232.867 446.476 233.381 446.168 233.81C445.869 234.23 445.449 234.552 444.908 234.776C444.366 235 443.746 235.112 443.046 235.112ZM452.214 235C451.467 235 450.875 234.785 450.436 234.356C450.007 233.917 449.792 233.329 449.792 232.592V229.12H447.888V227.944H449.792V225.732H451.15V227.944H454.076V229.12H451.15V232.592C451.15 232.975 451.262 233.278 451.486 233.502C451.71 233.717 452.013 233.824 452.396 233.824H454.944V235H452.214ZM457.882 235V227.944H459.24V229.302C459.399 228.826 459.628 228.481 459.926 228.266C460.225 228.051 460.622 227.944 461.116 227.944H463.468V229.12H460.948C460.528 229.12 460.192 229.237 459.94 229.47C459.688 229.703 459.506 230.021 459.394 230.422C459.292 230.823 459.24 231.285 459.24 231.808V235H457.882ZM469.081 235.112C468.539 235.112 468.049 235.014 467.611 234.818C467.172 234.622 466.799 234.351 466.491 234.006C466.192 233.661 465.959 233.269 465.791 232.83C465.632 232.382 465.553 231.915 465.553 231.43C465.553 230.935 465.627 230.473 465.777 230.044C465.926 229.605 466.145 229.223 466.435 228.896C466.733 228.56 467.093 228.299 467.513 228.112C467.933 227.925 468.413 227.832 468.955 227.832C469.496 227.832 469.972 227.921 470.383 228.098C470.803 228.275 471.153 228.523 471.433 228.84C471.713 229.148 471.923 229.503 472.063 229.904C472.212 230.305 472.287 230.73 472.287 231.178C472.287 231.271 472.282 231.369 472.273 231.472C472.273 231.575 472.268 231.659 472.259 231.724H466.337V230.674H470.915C470.877 230.133 470.686 229.708 470.341 229.4C469.995 229.083 469.533 228.924 468.955 228.924C468.628 228.924 468.334 228.98 468.073 229.092C467.811 229.195 467.592 229.353 467.415 229.568C467.237 229.773 467.102 230.03 467.009 230.338C466.915 230.646 466.869 231.005 466.869 231.416C466.869 231.911 466.957 232.349 467.135 232.732C467.321 233.115 467.583 233.413 467.919 233.628C468.255 233.843 468.642 233.95 469.081 233.95C469.603 233.95 470.028 233.843 470.355 233.628C470.681 233.413 470.891 233.105 470.985 232.704H472.343C472.268 233.189 472.081 233.614 471.783 233.978C471.484 234.333 471.106 234.613 470.649 234.818C470.191 235.014 469.669 235.112 469.081 235.112ZM476.919 235.112C476.443 235.112 476.023 235.023 475.659 234.846C475.295 234.659 475.01 234.407 474.805 234.09C474.609 233.773 474.511 233.404 474.511 232.984C474.511 232.527 474.623 232.13 474.847 231.794C475.08 231.458 475.402 231.197 475.813 231.01C476.224 230.823 476.704 230.73 477.255 230.73H478.739C478.898 230.73 479.014 230.702 479.089 230.646C479.173 230.581 479.215 230.487 479.215 230.366C479.215 229.937 479.066 229.591 478.767 229.33C478.468 229.059 478.048 228.924 477.507 228.924C477.18 228.924 476.886 228.985 476.625 229.106C476.373 229.227 476.172 229.391 476.023 229.596C475.874 229.792 475.79 230.011 475.771 230.254H474.511C474.548 229.787 474.702 229.372 474.973 229.008C475.244 228.644 475.598 228.359 476.037 228.154C476.485 227.939 476.989 227.832 477.549 227.832C478.156 227.832 478.683 227.944 479.131 228.168C479.588 228.383 479.938 228.686 480.181 229.078C480.433 229.47 480.559 229.927 480.559 230.45V235H479.215V233.838C479.103 234.09 478.93 234.314 478.697 234.51C478.473 234.697 478.207 234.846 477.899 234.958C477.6 235.061 477.274 235.112 476.919 235.112ZM477.185 234.034C477.82 234.034 478.314 233.843 478.669 233.46C479.033 233.077 479.215 232.559 479.215 231.906V231.78H477.395C476.938 231.78 476.569 231.883 476.289 232.088C476.009 232.293 475.869 232.583 475.869 232.956C475.869 233.273 475.986 233.535 476.219 233.74C476.462 233.936 476.784 234.034 477.185 234.034ZM482.379 235V227.944H483.723V228.784C483.844 228.532 484.007 228.313 484.213 228.126C484.418 227.93 484.721 227.832 485.123 227.832C485.505 227.832 485.813 227.939 486.047 228.154C486.289 228.359 486.467 228.579 486.579 228.812C486.663 228.663 486.784 228.513 486.943 228.364C487.101 228.215 487.293 228.089 487.517 227.986C487.741 227.883 487.993 227.832 488.273 227.832C488.637 227.832 488.954 227.921 489.225 228.098C489.495 228.275 489.705 228.541 489.855 228.896C490.004 229.241 490.079 229.675 490.079 230.198V235H488.735V230.464C488.735 229.997 488.669 229.652 488.539 229.428C488.408 229.204 488.198 229.092 487.909 229.092C487.694 229.092 487.512 229.143 487.363 229.246C487.213 229.339 487.097 229.489 487.013 229.694C486.938 229.89 486.901 230.147 486.901 230.464V235H485.557V230.464C485.557 229.997 485.487 229.652 485.347 229.428C485.207 229.204 484.987 229.092 484.689 229.092C484.493 229.092 484.32 229.143 484.171 229.246C484.031 229.339 483.919 229.489 483.835 229.694C483.76 229.89 483.723 230.147 483.723 230.464V235H482.379ZM495.019 235.112C494.478 235.112 493.988 235.014 493.549 234.818C493.11 234.622 492.737 234.351 492.429 234.006C492.13 233.661 491.897 233.269 491.729 232.83C491.57 232.382 491.491 231.915 491.491 231.43C491.491 230.935 491.566 230.473 491.715 230.044C491.864 229.605 492.084 229.223 492.373 228.896C492.672 228.56 493.031 228.299 493.451 228.112C493.871 227.925 494.352 227.832 494.893 227.832C495.434 227.832 495.91 227.921 496.321 228.098C496.741 228.275 497.091 228.523 497.371 228.84C497.651 229.148 497.861 229.503 498.001 229.904C498.15 230.305 498.225 230.73 498.225 231.178C498.225 231.271 498.22 231.369 498.211 231.472C498.211 231.575 498.206 231.659 498.197 231.724H492.275V230.674H496.853C496.816 230.133 496.624 229.708 496.279 229.4C495.934 229.083 495.472 228.924 494.893 228.924C494.566 228.924 494.272 228.98 494.011 229.092C493.75 229.195 493.53 229.353 493.353 229.568C493.176 229.773 493.04 230.03 492.947 230.338C492.854 230.646 492.807 231.005 492.807 231.416C492.807 231.911 492.896 232.349 493.073 232.732C493.26 233.115 493.521 233.413 493.857 233.628C494.193 233.843 494.58 233.95 495.019 233.95C495.542 233.95 495.966 233.843 496.293 233.628C496.62 233.413 496.83 233.105 496.923 232.704H498.281C498.206 233.189 498.02 233.614 497.721 233.978C497.422 234.333 497.044 234.613 496.587 234.818C496.13 235.014 495.607 235.112 495.019 235.112ZM503.165 235.112C502.465 235.112 501.868 234.953 501.373 234.636C500.879 234.319 500.501 233.889 500.239 233.348C499.978 232.797 499.847 232.172 499.847 231.472C499.847 230.949 499.922 230.469 500.071 230.03C500.221 229.582 500.435 229.195 500.715 228.868C500.995 228.541 501.341 228.289 501.751 228.112C502.171 227.925 502.647 227.832 503.179 227.832C503.655 227.832 504.099 227.939 504.509 228.154C504.92 228.359 505.233 228.635 505.447 228.98V224.99H506.805V235H505.447V233.95C505.233 234.295 504.92 234.575 504.509 234.79C504.099 235.005 503.651 235.112 503.165 235.112ZM503.389 233.922C503.716 233.922 504.01 233.866 504.271 233.754C504.533 233.633 504.761 233.465 504.957 233.25C505.153 233.035 505.298 232.779 505.391 232.48C505.494 232.181 505.545 231.845 505.545 231.472C505.545 230.735 505.349 230.142 504.957 229.694C504.565 229.246 504.043 229.022 503.389 229.022C503.063 229.022 502.764 229.083 502.493 229.204C502.232 229.316 502.003 229.479 501.807 229.694C501.621 229.909 501.476 230.165 501.373 230.464C501.271 230.763 501.219 231.099 501.219 231.472C501.219 232.209 501.415 232.802 501.807 233.25C502.209 233.698 502.736 233.922 503.389 233.922ZM521.474 235C520.727 235 520.135 234.785 519.696 234.356C519.267 233.917 519.052 233.329 519.052 232.592V229.12H517.148V227.944H519.052V225.732H520.41V227.944H523.336V229.12H520.41V232.592C520.41 232.975 520.522 233.278 520.746 233.502C520.97 233.717 521.273 233.824 521.656 233.824H524.204V235H521.474ZM529.55 235.112C528.85 235.112 528.225 234.958 527.674 234.65C527.124 234.333 526.694 233.899 526.386 233.348C526.078 232.797 525.924 232.172 525.924 231.472C525.924 230.763 526.078 230.137 526.386 229.596C526.694 229.045 527.124 228.616 527.674 228.308C528.225 227.991 528.85 227.832 529.55 227.832C530.26 227.832 530.885 227.991 531.426 228.308C531.977 228.616 532.406 229.045 532.714 229.596C533.022 230.137 533.176 230.763 533.176 231.472C533.176 232.172 533.022 232.797 532.714 233.348C532.406 233.899 531.977 234.333 531.426 234.65C530.885 234.958 530.26 235.112 529.55 235.112ZM529.55 233.922C529.998 233.922 530.39 233.819 530.726 233.614C531.062 233.399 531.324 233.11 531.51 232.746C531.697 232.373 531.79 231.948 531.79 231.472C531.79 230.996 531.697 230.576 531.51 230.212C531.324 229.839 531.062 229.549 530.726 229.344C530.39 229.129 529.998 229.022 529.55 229.022C529.102 229.022 528.71 229.129 528.374 229.344C528.038 229.549 527.777 229.839 527.59 230.212C527.404 230.576 527.31 230.996 527.31 231.472C527.31 231.948 527.404 232.373 527.59 232.746C527.777 233.11 528.038 233.399 528.374 233.614C528.71 233.819 529.102 233.922 529.55 233.922ZM543.869 235V225.2H550.211V226.488H545.325V229.302H549.287V230.59H545.325V233.712H550.365V235H543.869ZM552.408 235V227.944H553.766V229.19C553.962 228.751 554.256 228.415 554.648 228.182C555.049 227.949 555.516 227.832 556.048 227.832C556.58 227.832 557.042 227.953 557.434 228.196C557.826 228.429 558.129 228.761 558.344 229.19C558.558 229.61 558.666 230.1 558.666 230.66V235H557.308V230.926C557.308 230.366 557.158 229.913 556.86 229.568C556.561 229.223 556.164 229.05 555.67 229.05C555.296 229.05 554.965 229.143 554.676 229.33C554.396 229.507 554.172 229.755 554.004 230.072C553.845 230.389 553.766 230.758 553.766 231.178V235H552.408ZM564.334 235.112C563.597 235.112 562.967 234.944 562.444 234.608C561.931 234.272 561.534 233.829 561.254 233.278C560.983 232.718 560.848 232.116 560.848 231.472C560.848 230.987 560.923 230.529 561.072 230.1C561.231 229.661 561.459 229.269 561.758 228.924C562.066 228.579 562.435 228.313 562.864 228.126C563.293 227.93 563.783 227.832 564.334 227.832C564.894 227.832 565.407 227.935 565.874 228.14C566.35 228.345 566.742 228.639 567.05 229.022C567.367 229.405 567.554 229.867 567.61 230.408H566.266C566.219 230.137 566.103 229.899 565.916 229.694C565.739 229.489 565.515 229.325 565.244 229.204C564.983 229.083 564.689 229.022 564.362 229.022C563.895 229.022 563.503 229.134 563.186 229.358C562.878 229.582 562.645 229.876 562.486 230.24C562.337 230.604 562.262 231.015 562.262 231.472C562.262 231.92 562.341 232.331 562.5 232.704C562.659 233.068 562.892 233.362 563.2 233.586C563.517 233.81 563.909 233.922 564.376 233.922C564.861 233.922 565.272 233.805 565.608 233.572C565.944 233.329 566.163 233.012 566.266 232.62H567.624C567.54 233.115 567.349 233.553 567.05 233.936C566.761 234.309 566.383 234.599 565.916 234.804C565.449 235.009 564.922 235.112 564.334 235.112ZM570.464 235V227.944H571.822V229.302C571.981 228.826 572.21 228.481 572.508 228.266C572.807 228.051 573.204 227.944 573.698 227.944H576.05V229.12H573.53C573.11 229.12 572.774 229.237 572.522 229.47C572.27 229.703 572.088 230.021 571.976 230.422C571.874 230.823 571.822 231.285 571.822 231.808V235H570.464ZM579.829 237.856L580.879 235.112L578.051 227.944H579.451L581.523 233.376L583.609 227.944H585.009L581.159 237.856H579.829ZM586.953 237.856V227.944H588.311V228.98C588.526 228.635 588.838 228.359 589.249 228.154C589.66 227.939 590.103 227.832 590.579 227.832C591.288 227.832 591.89 227.991 592.385 228.308C592.88 228.625 593.258 229.059 593.519 229.61C593.78 230.151 593.911 230.772 593.911 231.472C593.911 231.995 593.836 232.48 593.687 232.928C593.538 233.367 593.323 233.749 593.043 234.076C592.763 234.403 592.413 234.659 591.993 234.846C591.582 235.023 591.116 235.112 590.593 235.112C590.266 235.112 589.958 235.065 589.669 234.972C589.38 234.869 589.118 234.734 588.885 234.566C588.652 234.389 588.46 234.183 588.311 233.95V237.856H586.953ZM590.369 233.922C590.696 233.922 590.99 233.866 591.251 233.754C591.522 233.633 591.75 233.465 591.937 233.25C592.133 233.035 592.282 232.779 592.385 232.48C592.488 232.181 592.539 231.845 592.539 231.472C592.539 230.735 592.343 230.142 591.951 229.694C591.559 229.246 591.032 229.022 590.369 229.022C590.042 229.022 589.748 229.083 589.487 229.204C589.226 229.316 588.997 229.479 588.801 229.694C588.605 229.909 588.456 230.165 588.353 230.464C588.26 230.763 588.213 231.099 588.213 231.472C588.213 232.209 588.409 232.802 588.801 233.25C589.193 233.698 589.716 233.922 590.369 233.922ZM599.453 235C598.707 235 598.114 234.785 597.675 234.356C597.246 233.917 597.031 233.329 597.031 232.592V229.12H595.127V227.944H597.031V225.732H598.389V227.944H601.315V229.12H598.389V232.592C598.389 232.975 598.501 233.278 598.725 233.502C598.949 233.717 599.253 233.824 599.635 233.824H602.183V235H599.453ZM607.656 235.112C607.114 235.112 606.624 235.014 606.186 234.818C605.747 234.622 605.374 234.351 605.066 234.006C604.767 233.661 604.534 233.269 604.366 232.83C604.207 232.382 604.128 231.915 604.128 231.43C604.128 230.935 604.202 230.473 604.352 230.044C604.501 229.605 604.72 229.223 605.01 228.896C605.308 228.56 605.668 228.299 606.088 228.112C606.508 227.925 606.988 227.832 607.53 227.832C608.071 227.832 608.547 227.921 608.958 228.098C609.378 228.275 609.728 228.523 610.008 228.84C610.288 229.148 610.498 229.503 610.638 229.904C610.787 230.305 610.862 230.73 610.862 231.178C610.862 231.271 610.857 231.369 610.848 231.472C610.848 231.575 610.843 231.659 610.834 231.724H604.912V230.674H609.49C609.452 230.133 609.261 229.708 608.916 229.4C608.57 229.083 608.108 228.924 607.53 228.924C607.203 228.924 606.909 228.98 606.648 229.092C606.386 229.195 606.167 229.353 605.99 229.568C605.812 229.773 605.677 230.03 605.584 230.338C605.49 230.646 605.444 231.005 605.444 231.416C605.444 231.911 605.532 232.349 605.71 232.732C605.896 233.115 606.158 233.413 606.494 233.628C606.83 233.843 607.217 233.95 607.656 233.95C608.178 233.95 608.603 233.843 608.93 233.628C609.256 233.413 609.466 233.105 609.56 232.704H610.918C610.843 233.189 610.656 233.614 610.358 233.978C610.059 234.333 609.681 234.613 609.224 234.818C608.766 235.014 608.244 235.112 607.656 235.112ZM615.802 235.112C615.102 235.112 614.505 234.953 614.01 234.636C613.515 234.319 613.137 233.889 612.876 233.348C612.615 232.797 612.484 232.172 612.484 231.472C612.484 230.949 612.559 230.469 612.708 230.03C612.857 229.582 613.072 229.195 613.352 228.868C613.632 228.541 613.977 228.289 614.388 228.112C614.808 227.925 615.284 227.832 615.816 227.832C616.292 227.832 616.735 227.939 617.146 228.154C617.557 228.359 617.869 228.635 618.084 228.98V224.99H619.442V235H618.084V233.95C617.869 234.295 617.557 234.575 617.146 234.79C616.735 235.005 616.287 235.112 615.802 235.112ZM616.026 233.922C616.353 233.922 616.647 233.866 616.908 233.754C617.169 233.633 617.398 233.465 617.594 233.25C617.79 233.035 617.935 232.779 618.028 232.48C618.131 232.181 618.182 231.845 618.182 231.472C618.182 230.735 617.986 230.142 617.594 229.694C617.202 229.246 616.679 229.022 616.026 229.022C615.699 229.022 615.401 229.083 615.13 229.204C614.869 229.316 614.64 229.479 614.444 229.694C614.257 229.909 614.113 230.165 614.01 230.464C613.907 230.763 613.856 231.099 613.856 231.472C613.856 232.209 614.052 232.802 614.444 233.25C614.845 233.698 615.373 233.922 616.026 233.922ZM477.857 256L481.133 246.2H482.561L485.837 256H484.353L481.861 247.992L479.327 256H477.857ZM479.313 253.508L479.509 252.234H484.185L484.395 253.508H479.313ZM490.007 256.112C489.485 256.112 489.023 255.995 488.621 255.762C488.229 255.519 487.926 255.188 487.711 254.768C487.497 254.339 487.389 253.844 487.389 253.284V248.944H488.747V253.018C488.747 253.569 488.897 254.021 489.195 254.376C489.494 254.721 489.891 254.894 490.385 254.894C490.759 254.894 491.085 254.805 491.365 254.628C491.655 254.441 491.879 254.189 492.037 253.872C492.205 253.545 492.289 253.177 492.289 252.766V248.944H493.647V256H492.289V254.754C492.103 255.193 491.809 255.529 491.407 255.762C491.006 255.995 490.539 256.112 490.007 256.112ZM498.784 256.112C498.084 256.112 497.486 255.953 496.992 255.636C496.497 255.319 496.119 254.889 495.858 254.348C495.596 253.797 495.466 253.172 495.466 252.472C495.466 251.949 495.54 251.469 495.69 251.03C495.839 250.582 496.054 250.195 496.334 249.868C496.614 249.541 496.959 249.289 497.37 249.112C497.79 248.925 498.266 248.832 498.798 248.832C499.274 248.832 499.717 248.939 500.128 249.154C500.538 249.359 500.851 249.635 501.066 249.98V245.99H502.424V256H501.066V254.95C500.851 255.295 500.538 255.575 500.128 255.79C499.717 256.005 499.269 256.112 498.784 256.112ZM499.008 254.922C499.334 254.922 499.628 254.866 499.89 254.754C500.151 254.633 500.38 254.465 500.576 254.25C500.772 254.035 500.916 253.779 501.01 253.48C501.112 253.181 501.164 252.845 501.164 252.472C501.164 251.735 500.968 251.142 500.576 250.694C500.184 250.246 499.661 250.022 499.008 250.022C498.681 250.022 498.382 250.083 498.112 250.204C497.85 250.316 497.622 250.479 497.426 250.694C497.239 250.909 497.094 251.165 496.992 251.464C496.889 251.763 496.838 252.099 496.838 252.472C496.838 253.209 497.034 253.802 497.426 254.25C497.827 254.698 498.354 254.922 499.008 254.922ZM507.77 256V250.61C507.77 250.283 507.607 250.12 507.28 250.12H504.564V248.944H507.546C508.041 248.944 508.428 249.089 508.708 249.378C508.988 249.658 509.128 250.041 509.128 250.526V256H507.77ZM507.7 245.99H509.212V247.698H507.7V245.99ZM516.504 256.112C515.804 256.112 515.179 255.958 514.628 255.65C514.078 255.333 513.648 254.899 513.34 254.348C513.032 253.797 512.878 253.172 512.878 252.472C512.878 251.763 513.032 251.137 513.34 250.596C513.648 250.045 514.078 249.616 514.628 249.308C515.179 248.991 515.804 248.832 516.504 248.832C517.214 248.832 517.839 248.991 518.38 249.308C518.931 249.616 519.36 250.045 519.668 250.596C519.976 251.137 520.13 251.763 520.13 252.472C520.13 253.172 519.976 253.797 519.668 254.348C519.36 254.899 518.931 255.333 518.38 255.65C517.839 255.958 517.214 256.112 516.504 256.112ZM516.504 254.922C516.952 254.922 517.344 254.819 517.68 254.614C518.016 254.399 518.278 254.11 518.464 253.746C518.651 253.373 518.744 252.948 518.744 252.472C518.744 251.996 518.651 251.576 518.464 251.212C518.278 250.839 518.016 250.549 517.68 250.344C517.344 250.129 516.952 250.022 516.504 250.022C516.056 250.022 515.664 250.129 515.328 250.344C514.992 250.549 514.731 250.839 514.544 251.212C514.358 251.576 514.264 251.996 514.264 252.472C514.264 252.948 514.358 253.373 514.544 253.746C514.731 254.11 514.992 254.399 515.328 254.614C515.664 254.819 516.056 254.922 516.504 254.922ZM534.071 256.112C533.427 256.112 532.853 256 532.349 255.776C531.854 255.543 531.434 255.211 531.089 254.782C530.744 254.353 530.482 253.825 530.305 253.2C530.128 252.575 530.039 251.875 530.039 251.1C530.039 250.475 530.095 249.901 530.207 249.378C530.328 248.855 530.501 248.393 530.725 247.992C530.949 247.581 531.22 247.236 531.537 246.956C531.864 246.667 532.237 246.452 532.657 246.312C533.086 246.163 533.558 246.088 534.071 246.088C534.743 246.088 535.322 246.219 535.807 246.48C536.302 246.741 536.698 247.115 536.997 247.6C537.296 248.085 537.487 248.669 537.571 249.35H536.045C535.998 248.939 535.891 248.589 535.723 248.3C535.564 248.001 535.345 247.773 535.065 247.614C534.794 247.455 534.458 247.376 534.057 247.376C533.73 247.376 533.436 247.432 533.175 247.544C532.914 247.647 532.68 247.805 532.475 248.02C532.27 248.235 532.097 248.491 531.957 248.79C531.817 249.089 531.71 249.434 531.635 249.826C531.57 250.209 531.537 250.633 531.537 251.1C531.537 251.875 531.635 252.542 531.831 253.102C532.027 253.653 532.312 254.077 532.685 254.376C533.068 254.675 533.525 254.824 534.057 254.824C534.44 254.824 534.771 254.745 535.051 254.586C535.34 254.427 535.574 254.199 535.751 253.9C535.928 253.601 536.036 253.251 536.073 252.85H537.557C537.492 253.522 537.305 254.105 536.997 254.6C536.698 255.085 536.302 255.459 535.807 255.72C535.312 255.981 534.734 256.112 534.071 256.112ZM539.403 256V245.99H540.761V250.19C540.948 249.751 541.242 249.415 541.643 249.182C542.045 248.949 542.507 248.832 543.029 248.832C543.561 248.832 544.023 248.953 544.415 249.196C544.817 249.429 545.125 249.761 545.339 250.19C545.554 250.61 545.661 251.1 545.661 251.66V256H544.303V251.926C544.303 251.366 544.154 250.913 543.855 250.568C543.557 250.223 543.155 250.05 542.651 250.05C542.287 250.05 541.961 250.143 541.671 250.33C541.382 250.507 541.158 250.755 540.999 251.072C540.841 251.389 540.761 251.758 540.761 252.178V256H539.403ZM550.658 256.112C550.135 256.112 549.673 255.995 549.272 255.762C548.88 255.519 548.576 255.188 548.362 254.768C548.147 254.339 548.04 253.844 548.04 253.284V248.944H549.398V253.018C549.398 253.569 549.547 254.021 549.846 254.376C550.144 254.721 550.541 254.894 551.036 254.894C551.409 254.894 551.736 254.805 552.016 254.628C552.305 254.441 552.529 254.189 552.688 253.872C552.856 253.545 552.94 253.177 552.94 252.766V248.944H554.298V256H552.94V254.754C552.753 255.193 552.459 255.529 552.058 255.762C551.656 255.995 551.19 256.112 550.658 256.112ZM556.69 256V248.944H558.048V250.19C558.244 249.751 558.538 249.415 558.93 249.182C559.331 248.949 559.798 248.832 560.33 248.832C560.862 248.832 561.324 248.953 561.716 249.196C562.108 249.429 562.411 249.761 562.626 250.19C562.841 250.61 562.948 251.1 562.948 251.66V256H561.59V251.926C561.59 251.366 561.441 250.913 561.142 250.568C560.843 250.223 560.447 250.05 559.952 250.05C559.579 250.05 559.247 250.143 558.958 250.33C558.678 250.507 558.454 250.755 558.286 251.072C558.127 251.389 558.048 251.758 558.048 252.178V256H556.69ZM566.642 253.802L566.656 252.108L570.1 248.944H571.864L566.642 253.802ZM565.648 256V245.99H567.02V256H565.648ZM570.436 256L567.58 252.178L568.728 251.478L572.116 256H570.436ZM577.239 256.112C576.632 256.112 576.109 256.019 575.671 255.832C575.232 255.636 574.887 255.361 574.635 255.006C574.383 254.642 574.238 254.208 574.201 253.704H575.475C575.531 254.124 575.703 254.446 575.993 254.67C576.291 254.885 576.707 254.992 577.239 254.992C577.556 254.992 577.831 254.955 578.065 254.88C578.298 254.796 578.475 254.679 578.597 254.53C578.718 254.381 578.779 254.203 578.779 253.998C578.779 253.746 578.699 253.555 578.541 253.424C578.382 253.284 578.167 253.181 577.897 253.116C577.635 253.051 577.346 252.999 577.029 252.962C576.721 252.915 576.408 252.859 576.091 252.794C575.773 252.719 575.479 252.617 575.209 252.486C574.947 252.355 574.737 252.164 574.579 251.912C574.42 251.66 574.341 251.333 574.341 250.932C574.341 250.503 574.457 250.134 574.691 249.826C574.933 249.509 575.265 249.266 575.685 249.098C576.105 248.921 576.585 248.832 577.127 248.832C577.715 248.832 578.219 248.921 578.639 249.098C579.059 249.266 579.385 249.513 579.619 249.84C579.852 250.167 579.983 250.563 580.011 251.03H578.723C578.695 250.787 578.611 250.582 578.471 250.414C578.34 250.246 578.163 250.12 577.939 250.036C577.715 249.943 577.444 249.896 577.127 249.896C576.679 249.896 576.319 249.985 576.049 250.162C575.778 250.33 575.643 250.559 575.643 250.848C575.643 251.091 575.722 251.277 575.881 251.408C576.039 251.529 576.249 251.618 576.511 251.674C576.781 251.73 577.075 251.781 577.393 251.828C577.719 251.865 578.041 251.917 578.359 251.982C578.676 252.038 578.965 252.136 579.227 252.276C579.497 252.407 579.712 252.603 579.871 252.864C580.029 253.116 580.109 253.452 580.109 253.872C580.109 254.217 580.043 254.53 579.913 254.81C579.782 255.09 579.586 255.328 579.325 255.524C579.073 255.711 578.769 255.855 578.415 255.958C578.069 256.061 577.677 256.112 577.239 256.112Z" fill="black" fill-opacity="0.8"/>
<rect x="496" y="133" width="48.1649" height="48.1649" rx="4" fill="#B8C6B0" stroke="#D7DDD4" stroke-width="2"/>
<rect x="503.918" y="140.918" width="48.1649" height="48.1649" rx="4" fill="#B8C6B0" stroke="#D7DDD4" stroke-width="2"/>
<rect x="511.836" y="148.836" width="48.1649" height="48.1649" rx="4" fill="#B8C6B0" stroke="#D7DDD4" stroke-width="2"/>
<path d="M184 164.5H212.5M212.5 164.5L207 170M212.5 164.5L207 159" stroke="#5E7B29" stroke-width="1.5" stroke-linecap="round" stroke-linejoin="round"/>
<path d="M400 164.5H428.5M428.5 164.5L423 170M428.5 164.5L423 159" stroke="#5E7B29" stroke-width="1.5" stroke-linecap="round" stroke-linejoin="round"/>
<path d="M244.357 235V225.2H246.107L247.955 232.494L249.817 225.2H251.567V235H250.265V227.734L248.459 235H247.465L245.645 227.734V235H244.357ZM256.549 235V229.61C256.549 229.283 256.386 229.12 256.059 229.12H253.343V227.944H256.325C256.82 227.944 257.207 228.089 257.487 228.378C257.767 228.658 257.907 229.041 257.907 229.526V235H256.549ZM256.479 224.99H257.991V226.698H256.479V224.99ZM265.409 235.112C264.672 235.112 264.042 234.944 263.519 234.608C263.006 234.272 262.609 233.829 262.329 233.278C262.059 232.718 261.923 232.116 261.923 231.472C261.923 230.987 261.998 230.529 262.147 230.1C262.306 229.661 262.535 229.269 262.833 228.924C263.141 228.579 263.51 228.313 263.939 228.126C264.369 227.93 264.859 227.832 265.409 227.832C265.969 227.832 266.483 227.935 266.949 228.14C267.425 228.345 267.817 228.639 268.125 229.022C268.443 229.405 268.629 229.867 268.685 230.408H267.341C267.295 230.137 267.178 229.899 266.991 229.694C266.814 229.489 266.59 229.325 266.319 229.204C266.058 229.083 265.764 229.022 265.437 229.022C264.971 229.022 264.579 229.134 264.261 229.358C263.953 229.582 263.72 229.876 263.561 230.24C263.412 230.604 263.337 231.015 263.337 231.472C263.337 231.92 263.417 232.331 263.575 232.704C263.734 233.068 263.967 233.362 264.275 233.586C264.593 233.81 264.985 233.922 265.451 233.922C265.937 233.922 266.347 233.805 266.683 233.572C267.019 233.329 267.239 233.012 267.341 232.62H268.699C268.615 233.115 268.424 233.553 268.125 233.936C267.836 234.309 267.458 234.599 266.991 234.804C266.525 235.009 265.997 235.112 265.409 235.112ZM280.078 235L278.454 227.944H279.728L280.806 232.956L282.094 227.944H283.13L284.432 232.97L285.524 227.944H286.77L285.146 235H283.816L282.612 230.058L281.408 235H280.078ZM288.462 235L292.858 225.2H294.076L289.666 235H288.462ZM305.399 235V225.2H309.081C309.744 225.2 310.313 225.326 310.789 225.578C311.265 225.83 311.629 226.175 311.881 226.614C312.133 227.053 312.259 227.566 312.259 228.154C312.259 228.583 312.184 228.98 312.035 229.344C311.895 229.708 311.69 230.021 311.419 230.282C311.148 230.543 310.817 230.749 310.425 230.898C310.033 231.038 309.585 231.108 309.081 231.108H306.855V235H305.399ZM306.855 229.848H309.053C309.473 229.848 309.809 229.769 310.061 229.61C310.322 229.451 310.509 229.246 310.621 228.994C310.742 228.733 310.803 228.453 310.803 228.154C310.803 227.855 310.742 227.58 310.621 227.328C310.509 227.067 310.322 226.857 310.061 226.698C309.809 226.539 309.473 226.46 309.053 226.46H306.855V229.848ZM314.176 235V224.99H315.534V229.19C315.72 228.751 316.014 228.415 316.416 228.182C316.817 227.949 317.279 227.832 317.802 227.832C318.334 227.832 318.796 227.953 319.188 228.196C319.589 228.429 319.897 228.761 320.112 229.19C320.326 229.61 320.434 230.1 320.434 230.66V235H319.076V230.926C319.076 230.366 318.926 229.913 318.628 229.568C318.329 229.223 317.928 229.05 317.424 229.05C317.06 229.05 316.733 229.143 316.444 229.33C316.154 229.507 315.93 229.755 315.772 230.072C315.613 230.389 315.534 230.758 315.534 231.178V235H314.176ZM324.226 237.856L325.276 235.112L322.448 227.944H323.848L325.92 233.376L328.006 227.944H329.406L325.556 237.856H324.226ZM334.682 235.112C334.076 235.112 333.553 235.019 333.114 234.832C332.676 234.636 332.33 234.361 332.078 234.006C331.826 233.642 331.682 233.208 331.644 232.704H332.918C332.974 233.124 333.147 233.446 333.436 233.67C333.735 233.885 334.15 233.992 334.682 233.992C335 233.992 335.275 233.955 335.508 233.88C335.742 233.796 335.919 233.679 336.04 233.53C336.162 233.381 336.222 233.203 336.222 232.998C336.222 232.746 336.143 232.555 335.984 232.424C335.826 232.284 335.611 232.181 335.34 232.116C335.079 232.051 334.79 231.999 334.472 231.962C334.164 231.915 333.852 231.859 333.534 231.794C333.217 231.719 332.923 231.617 332.652 231.486C332.391 231.355 332.181 231.164 332.022 230.912C331.864 230.66 331.784 230.333 331.784 229.932C331.784 229.503 331.901 229.134 332.134 228.826C332.377 228.509 332.708 228.266 333.128 228.098C333.548 227.921 334.029 227.832 334.57 227.832C335.158 227.832 335.662 227.921 336.082 228.098C336.502 228.266 336.829 228.513 337.062 228.84C337.296 229.167 337.426 229.563 337.454 230.03H336.166C336.138 229.787 336.054 229.582 335.914 229.414C335.784 229.246 335.606 229.12 335.382 229.036C335.158 228.943 334.888 228.896 334.57 228.896C334.122 228.896 333.763 228.985 333.492 229.162C333.222 229.33 333.086 229.559 333.086 229.848C333.086 230.091 333.166 230.277 333.324 230.408C333.483 230.529 333.693 230.618 333.954 230.674C334.225 230.73 334.519 230.781 334.836 230.828C335.163 230.865 335.485 230.917 335.802 230.982C336.12 231.038 336.409 231.136 336.67 231.276C336.941 231.407 337.156 231.603 337.314 231.864C337.473 232.116 337.552 232.452 337.552 232.872C337.552 233.217 337.487 233.53 337.356 233.81C337.226 234.09 337.03 234.328 336.768 234.524C336.516 234.711 336.213 234.855 335.858 234.958C335.513 235.061 335.121 235.112 334.682 235.112ZM343.193 235V229.61C343.193 229.283 343.029 229.12 342.703 229.12H339.987V227.944H342.969C343.463 227.944 343.851 228.089 344.131 228.378C344.411 228.658 344.551 229.041 344.551 229.526V235H343.193ZM343.123 224.99H344.635V226.698H343.123V224.99ZM352.053 235.112C351.316 235.112 350.686 234.944 350.163 234.608C349.65 234.272 349.253 233.829 348.973 233.278C348.702 232.718 348.567 232.116 348.567 231.472C348.567 230.987 348.642 230.529 348.791 230.1C348.95 229.661 349.178 229.269 349.477 228.924C349.785 228.579 350.154 228.313 350.583 228.126C351.012 227.93 351.502 227.832 352.053 227.832C352.613 227.832 353.126 227.935 353.593 228.14C354.069 228.345 354.461 228.639 354.769 229.022C355.086 229.405 355.273 229.867 355.329 230.408H353.985C353.938 230.137 353.822 229.899 353.635 229.694C353.458 229.489 353.234 229.325 352.963 229.204C352.702 229.083 352.408 229.022 352.081 229.022C351.614 229.022 351.222 229.134 350.905 229.358C350.597 229.582 350.364 229.876 350.205 230.24C350.056 230.604 349.981 231.015 349.981 231.472C349.981 231.92 350.06 232.331 350.219 232.704C350.378 233.068 350.611 233.362 350.919 233.586C351.236 233.81 351.628 233.922 352.095 233.922C352.58 233.922 352.991 233.805 353.327 233.572C353.663 233.329 353.882 233.012 353.985 232.62H355.343C355.259 233.115 355.068 233.553 354.769 233.936C354.48 234.309 354.102 234.599 353.635 234.804C353.168 235.009 352.641 235.112 352.053 235.112ZM359.891 235.112C359.415 235.112 358.995 235.023 358.631 234.846C358.267 234.659 357.983 234.407 357.777 234.09C357.581 233.773 357.483 233.404 357.483 232.984C357.483 232.527 357.595 232.13 357.819 231.794C358.053 231.458 358.375 231.197 358.785 231.01C359.196 230.823 359.677 230.73 360.227 230.73H361.711C361.87 230.73 361.987 230.702 362.061 230.646C362.145 230.581 362.187 230.487 362.187 230.366C362.187 229.937 362.038 229.591 361.739 229.33C361.441 229.059 361.021 228.924 360.479 228.924C360.153 228.924 359.859 228.985 359.597 229.106C359.345 229.227 359.145 229.391 358.995 229.596C358.846 229.792 358.762 230.011 358.743 230.254H357.483C357.521 229.787 357.675 229.372 357.945 229.008C358.216 228.644 358.571 228.359 359.009 228.154C359.457 227.939 359.961 227.832 360.521 227.832C361.128 227.832 361.655 227.944 362.103 228.168C362.561 228.383 362.911 228.686 363.153 229.078C363.405 229.47 363.531 229.927 363.531 230.45V235H362.187V233.838C362.075 234.09 361.903 234.314 361.669 234.51C361.445 234.697 361.179 234.846 360.871 234.958C360.573 235.061 360.246 235.112 359.891 235.112ZM360.157 234.034C360.792 234.034 361.287 233.843 361.641 233.46C362.005 233.077 362.187 232.559 362.187 231.906V231.78H360.367C359.91 231.78 359.541 231.883 359.261 232.088C358.981 232.293 358.841 232.583 358.841 232.956C358.841 233.273 358.958 233.535 359.191 233.74C359.434 233.936 359.756 234.034 360.157 234.034ZM369.061 235V226.656C369.061 226.497 369.019 226.376 368.935 226.292C368.851 226.208 368.73 226.166 368.571 226.166H365.897V224.99H368.837C369.332 224.99 369.719 225.13 369.999 225.41C370.279 225.69 370.419 226.077 370.419 226.572V235H369.061ZM235.7 256V246.2H238.486C239.121 246.2 239.709 246.307 240.25 246.522C240.801 246.737 241.277 247.049 241.678 247.46C242.089 247.871 242.406 248.384 242.63 249C242.854 249.607 242.966 250.307 242.966 251.1C242.966 251.893 242.854 252.598 242.63 253.214C242.406 253.821 242.089 254.329 241.678 254.74C241.277 255.151 240.801 255.463 240.25 255.678C239.709 255.893 239.121 256 238.486 256H235.7ZM237.156 254.712H238.416C238.827 254.712 239.214 254.647 239.578 254.516C239.942 254.376 240.264 254.161 240.544 253.872C240.833 253.583 241.057 253.209 241.216 252.752C241.384 252.295 241.468 251.744 241.468 251.1C241.468 250.232 241.328 249.537 241.048 249.014C240.768 248.482 240.395 248.095 239.928 247.852C239.461 247.609 238.957 247.488 238.416 247.488H237.156V254.712ZM247.78 256V250.61C247.78 250.283 247.617 250.12 247.29 250.12H244.574V248.944H247.556C248.051 248.944 248.438 249.089 248.718 249.378C248.998 249.658 249.138 250.041 249.138 250.526V256H247.78ZM247.71 245.99H249.222V247.698H247.71V245.99ZM256.599 256.112C255.992 256.112 255.469 256.019 255.031 255.832C254.592 255.636 254.247 255.361 253.995 255.006C253.743 254.642 253.598 254.208 253.561 253.704H254.835C254.891 254.124 255.063 254.446 255.353 254.67C255.651 254.885 256.067 254.992 256.599 254.992C256.916 254.992 257.191 254.955 257.425 254.88C257.658 254.796 257.835 254.679 257.957 254.53C258.078 254.381 258.139 254.203 258.139 253.998C258.139 253.746 258.059 253.555 257.901 253.424C257.742 253.284 257.527 253.181 257.257 253.116C256.995 253.051 256.706 252.999 256.389 252.962C256.081 252.915 255.768 252.859 255.451 252.794C255.133 252.719 254.839 252.617 254.569 252.486C254.307 252.355 254.097 252.164 253.939 251.912C253.78 251.66 253.701 251.333 253.701 250.932C253.701 250.503 253.817 250.134 254.051 249.826C254.293 249.509 254.625 249.266 255.045 249.098C255.465 248.921 255.945 248.832 256.487 248.832C257.075 248.832 257.579 248.921 257.999 249.098C258.419 249.266 258.745 249.513 258.979 249.84C259.212 250.167 259.343 250.563 259.371 251.03H258.083C258.055 250.787 257.971 250.582 257.831 250.414C257.7 250.246 257.523 250.12 257.299 250.036C257.075 249.943 256.804 249.896 256.487 249.896C256.039 249.896 255.679 249.985 255.409 250.162C255.138 250.33 255.003 250.559 255.003 250.848C255.003 251.091 255.082 251.277 255.241 251.408C255.399 251.529 255.609 251.618 255.871 251.674C256.141 251.73 256.435 251.781 256.753 251.828C257.079 251.865 257.401 251.917 257.719 251.982C258.036 252.038 258.325 252.136 258.587 252.276C258.857 252.407 259.072 252.603 259.231 252.864C259.389 253.116 259.469 253.452 259.469 253.872C259.469 254.217 259.403 254.53 259.273 254.81C259.142 255.09 258.946 255.328 258.685 255.524C258.433 255.711 258.129 255.855 257.775 255.958C257.429 256.061 257.037 256.112 256.599 256.112ZM265.305 256.112C264.568 256.112 263.938 255.944 263.415 255.608C262.902 255.272 262.505 254.829 262.225 254.278C261.954 253.718 261.819 253.116 261.819 252.472C261.819 251.987 261.894 251.529 262.043 251.1C262.202 250.661 262.43 250.269 262.729 249.924C263.037 249.579 263.406 249.313 263.835 249.126C264.264 248.93 264.754 248.832 265.305 248.832C265.865 248.832 266.378 248.935 266.845 249.14C267.321 249.345 267.713 249.639 268.021 250.022C268.338 250.405 268.525 250.867 268.581 251.408H267.237C267.19 251.137 267.074 250.899 266.887 250.694C266.71 250.489 266.486 250.325 266.215 250.204C265.954 250.083 265.66 250.022 265.333 250.022C264.866 250.022 264.474 250.134 264.157 250.358C263.849 250.582 263.616 250.876 263.457 251.24C263.308 251.604 263.233 252.015 263.233 252.472C263.233 252.92 263.312 253.331 263.471 253.704C263.63 254.068 263.863 254.362 264.171 254.586C264.488 254.81 264.88 254.922 265.347 254.922C265.832 254.922 266.243 254.805 266.579 254.572C266.915 254.329 267.134 254.012 267.237 253.62H268.595C268.511 254.115 268.32 254.553 268.021 254.936C267.732 255.309 267.354 255.599 266.887 255.804C266.42 256.009 265.893 256.112 265.305 256.112ZM273.843 256.112C273.143 256.112 272.518 255.958 271.967 255.65C271.417 255.333 270.987 254.899 270.679 254.348C270.371 253.797 270.217 253.172 270.217 252.472C270.217 251.763 270.371 251.137 270.679 250.596C270.987 250.045 271.417 249.616 271.967 249.308C272.518 248.991 273.143 248.832 273.843 248.832C274.553 248.832 275.178 248.991 275.719 249.308C276.27 249.616 276.699 250.045 277.007 250.596C277.315 251.137 277.469 251.763 277.469 252.472C277.469 253.172 277.315 253.797 277.007 254.348C276.699 254.899 276.27 255.333 275.719 255.65C275.178 255.958 274.553 256.112 273.843 256.112ZM273.843 254.922C274.291 254.922 274.683 254.819 275.019 254.614C275.355 254.399 275.617 254.11 275.803 253.746C275.99 253.373 276.083 252.948 276.083 252.472C276.083 251.996 275.99 251.576 275.803 251.212C275.617 250.839 275.355 250.549 275.019 250.344C274.683 250.129 274.291 250.022 273.843 250.022C273.395 250.022 273.003 250.129 272.667 250.344C272.331 250.549 272.07 250.839 271.883 251.212C271.697 251.576 271.603 251.996 271.603 252.472C271.603 252.948 271.697 253.373 271.883 253.746C272.07 254.11 272.331 254.399 272.667 254.614C273.003 254.819 273.395 254.922 273.843 254.922ZM279.372 256V248.944H280.73V250.19C280.926 249.751 281.22 249.415 281.612 249.182C282.013 248.949 282.48 248.832 283.012 248.832C283.544 248.832 284.006 248.953 284.398 249.196C284.79 249.429 285.093 249.761 285.308 250.19C285.522 250.61 285.63 251.1 285.63 251.66V256H284.272V251.926C284.272 251.366 284.122 250.913 283.824 250.568C283.525 250.223 283.128 250.05 282.634 250.05C282.26 250.05 281.929 250.143 281.64 250.33C281.36 250.507 281.136 250.755 280.968 251.072C280.809 251.389 280.73 251.758 280.73 252.178V256H279.372ZM288.036 256V248.944H289.394V250.19C289.59 249.751 289.884 249.415 290.276 249.182C290.677 248.949 291.144 248.832 291.676 248.832C292.208 248.832 292.67 248.953 293.062 249.196C293.454 249.429 293.757 249.761 293.972 250.19C294.187 250.61 294.294 251.1 294.294 251.66V256H292.936V251.926C292.936 251.366 292.787 250.913 292.488 250.568C292.189 250.223 291.793 250.05 291.298 250.05C290.925 250.05 290.593 250.143 290.304 250.33C290.024 250.507 289.8 250.755 289.632 251.072C289.473 251.389 289.394 251.758 289.394 252.178V256H288.036ZM299.962 256.112C299.421 256.112 298.931 256.014 298.492 255.818C298.054 255.622 297.68 255.351 297.372 255.006C297.074 254.661 296.84 254.269 296.672 253.83C296.514 253.382 296.434 252.915 296.434 252.43C296.434 251.935 296.509 251.473 296.658 251.044C296.808 250.605 297.027 250.223 297.316 249.896C297.615 249.56 297.974 249.299 298.394 249.112C298.814 248.925 299.295 248.832 299.836 248.832C300.378 248.832 300.854 248.921 301.264 249.098C301.684 249.275 302.034 249.523 302.314 249.84C302.594 250.148 302.804 250.503 302.944 250.904C303.094 251.305 303.168 251.73 303.168 252.178C303.168 252.271 303.164 252.369 303.154 252.472C303.154 252.575 303.15 252.659 303.14 252.724H297.218V251.674H301.796C301.759 251.133 301.568 250.708 301.222 250.4C300.877 250.083 300.415 249.924 299.836 249.924C299.51 249.924 299.216 249.98 298.954 250.092C298.693 250.195 298.474 250.353 298.296 250.568C298.119 250.773 297.984 251.03 297.89 251.338C297.797 251.646 297.75 252.005 297.75 252.416C297.75 252.911 297.839 253.349 298.016 253.732C298.203 254.115 298.464 254.413 298.8 254.628C299.136 254.843 299.524 254.95 299.962 254.95C300.485 254.95 300.91 254.843 301.236 254.628C301.563 254.413 301.773 254.105 301.866 253.704H303.224C303.15 254.189 302.963 254.614 302.664 254.978C302.366 255.333 301.988 255.613 301.53 255.818C301.073 256.014 300.55 256.112 299.962 256.112ZM308.627 256.112C307.889 256.112 307.259 255.944 306.737 255.608C306.223 255.272 305.827 254.829 305.547 254.278C305.276 253.718 305.141 253.116 305.141 252.472C305.141 251.987 305.215 251.529 305.365 251.1C305.523 250.661 305.752 250.269 306.051 249.924C306.359 249.579 306.727 249.313 307.157 249.126C307.586 248.93 308.076 248.832 308.627 248.832C309.187 248.832 309.7 248.935 310.167 249.14C310.643 249.345 311.035 249.639 311.343 250.022C311.66 250.405 311.847 250.867 311.903 251.408H310.559C310.512 251.137 310.395 250.899 310.209 250.694C310.031 250.489 309.807 250.325 309.537 250.204C309.275 250.083 308.981 250.022 308.655 250.022C308.188 250.022 307.796 250.134 307.479 250.358C307.171 250.582 306.937 250.876 306.779 251.24C306.629 251.604 306.555 252.015 306.555 252.472C306.555 252.92 306.634 253.331 306.793 253.704C306.951 254.068 307.185 254.362 307.493 254.586C307.81 254.81 308.202 254.922 308.669 254.922C309.154 254.922 309.565 254.805 309.901 254.572C310.237 254.329 310.456 254.012 310.559 253.62H311.917C311.833 254.115 311.641 254.553 311.343 254.936C311.053 255.309 310.675 255.599 310.209 255.804C309.742 256.009 309.215 256.112 308.627 256.112ZM317.753 256C317.007 256 316.414 255.785 315.975 255.356C315.546 254.917 315.331 254.329 315.331 253.592V250.12H313.427V248.944H315.331V246.732H316.689V248.944H319.615V250.12H316.689V253.592C316.689 253.975 316.801 254.278 317.025 254.502C317.249 254.717 317.553 254.824 317.935 254.824H320.483V256H317.753ZM334.578 256.112C333.803 256.112 333.141 255.977 332.59 255.706C332.039 255.426 331.615 255.034 331.316 254.53C331.017 254.026 330.849 253.433 330.812 252.752H332.226C332.282 253.387 332.501 253.891 332.884 254.264C333.267 254.637 333.831 254.824 334.578 254.824C334.989 254.824 335.353 254.773 335.67 254.67C335.987 254.558 336.235 254.39 336.412 254.166C336.589 253.933 336.678 253.639 336.678 253.284C336.678 252.929 336.575 252.649 336.37 252.444C336.174 252.239 335.908 252.075 335.572 251.954C335.245 251.833 334.881 251.725 334.48 251.632C334.088 251.539 333.691 251.431 333.29 251.31C332.898 251.189 332.534 251.03 332.198 250.834C331.871 250.638 331.605 250.377 331.4 250.05C331.204 249.714 331.106 249.285 331.106 248.762C331.106 248.221 331.251 247.754 331.54 247.362C331.829 246.961 332.226 246.648 332.73 246.424C333.234 246.2 333.813 246.088 334.466 246.088C335.138 246.088 335.726 246.209 336.23 246.452C336.743 246.695 337.149 247.035 337.448 247.474C337.756 247.913 337.929 248.435 337.966 249.042H336.552C336.505 248.538 336.295 248.137 335.922 247.838C335.558 247.53 335.073 247.376 334.466 247.376C334.074 247.376 333.733 247.432 333.444 247.544C333.164 247.656 332.949 247.815 332.8 248.02C332.651 248.225 332.576 248.468 332.576 248.748C332.576 249.103 332.674 249.383 332.87 249.588C333.075 249.784 333.341 249.943 333.668 250.064C334.004 250.176 334.373 250.274 334.774 250.358C335.175 250.442 335.572 250.545 335.964 250.666C336.365 250.778 336.729 250.932 337.056 251.128C337.392 251.324 337.658 251.595 337.854 251.94C338.059 252.276 338.162 252.719 338.162 253.27C338.162 253.867 338.008 254.381 337.7 254.81C337.401 255.23 336.981 255.552 336.44 255.776C335.899 256 335.278 256.112 334.578 256.112ZM340.624 256L339 248.944H340.274L341.352 253.956L342.64 248.944H343.676L344.978 253.97L346.07 248.944H347.316L345.692 256H344.362L343.158 251.058L341.954 256H340.624ZM351.753 256V250.61C351.753 250.283 351.589 250.12 351.263 250.12H348.547V248.944H351.529C352.023 248.944 352.411 249.089 352.691 249.378C352.971 249.658 353.111 250.041 353.111 250.526V256H351.753ZM351.683 245.99H353.195V247.698H351.683V245.99ZM361.075 256C360.328 256 359.736 255.785 359.297 255.356C358.868 254.917 358.653 254.329 358.653 253.592V250.12H356.749V248.944H358.653V246.732H360.011V248.944H362.937V250.12H360.011V253.592C360.011 253.975 360.123 254.278 360.347 254.502C360.571 254.717 360.874 254.824 361.257 254.824H363.805V256H361.075ZM369.277 256.112C368.54 256.112 367.91 255.944 367.387 255.608C366.874 255.272 366.477 254.829 366.197 254.278C365.927 253.718 365.791 253.116 365.791 252.472C365.791 251.987 365.866 251.529 366.015 251.1C366.174 250.661 366.403 250.269 366.701 249.924C367.009 249.579 367.378 249.313 367.807 249.126C368.237 248.93 368.727 248.832 369.277 248.832C369.837 248.832 370.351 248.935 370.817 249.14C371.293 249.345 371.685 249.639 371.993 250.022C372.311 250.405 372.497 250.867 372.553 251.408H371.209C371.163 251.137 371.046 250.899 370.859 250.694C370.682 250.489 370.458 250.325 370.187 250.204C369.926 250.083 369.632 250.022 369.305 250.022C368.839 250.022 368.447 250.134 368.129 250.358C367.821 250.582 367.588 250.876 367.429 251.24C367.28 251.604 367.205 252.015 367.205 252.472C367.205 252.92 367.285 253.331 367.443 253.704C367.602 254.068 367.835 254.362 368.143 254.586C368.461 254.81 368.853 254.922 369.319 254.922C369.805 254.922 370.215 254.805 370.551 254.572C370.887 254.329 371.107 254.012 371.209 253.62H372.567C372.483 254.115 372.292 254.553 371.993 254.936C371.704 255.309 371.326 255.599 370.859 255.804C370.393 256.009 369.865 256.112 369.277 256.112ZM374.722 256V245.99H376.08V250.19C376.266 249.751 376.56 249.415 376.962 249.182C377.363 248.949 377.825 248.832 378.348 248.832C378.88 248.832 379.342 248.953 379.734 249.196C380.135 249.429 380.443 249.761 380.658 250.19C380.872 250.61 380.98 251.1 380.98 251.66V256H379.622V251.926C379.622 251.366 379.472 250.913 379.174 250.568C378.875 250.223 378.474 250.05 377.97 250.05C377.606 250.05 377.279 250.143 376.99 250.33C376.7 250.507 376.476 250.755 376.318 251.072C376.159 251.389 376.08 251.758 376.08 252.178V256H374.722Z" fill="black" fill-opacity="0.8"/>
<circle cx="308" cy="164.996" r="28" fill="#B8C6B0" stroke="#D7DDD4" stroke-width="2"/>
<circle cx="308" cy="164.996" r="31" stroke="#B8C6B0" stroke-width="2"/>
<circle cx="308" cy="164.996" r="3" fill="#D7DDD4"/>
<circle cx="323" cy="164.996" r="3" fill="#D7DDD4"/>
<circle cx="293" cy="164.996" r="3" fill="#D7DDD4"/>
<circle cx="308" cy="179.996" r="3" transform="rotate(90 308 179.996)" fill="#D7DDD4"/>
<circle cx="308" cy="149.996" r="3" transform="rotate(90 308 149.996)" fill="#D7DDD4"/>
<circle cx="315.07" cy="172.071" r="3" transform="rotate(45 315.07 172.071)" fill="#D7DDD4"/>
<circle cx="322.141" cy="179.141" r="3" transform="rotate(45 322.141 179.141)" fill="#D7DDD4"/>
<circle cx="300.928" cy="157.926" r="3" transform="rotate(45 300.928 157.926)" fill="#D7DDD4"/>
<circle cx="293.857" cy="150.856" r="3" transform="rotate(45 293.857 150.856)" fill="#D7DDD4"/>
<circle cx="315.071" cy="157.93" r="3" transform="rotate(-45 315.071 157.93)" fill="#D7DDD4"/>
<circle cx="322.141" cy="150.855" r="3" transform="rotate(-45 322.141 150.855)" fill="#D7DDD4"/>
<circle cx="300.928" cy="172.07" r="3" transform="rotate(-45 300.928 172.07)" fill="#D7DDD4"/>
<circle cx="293.856" cy="179.141" r="3" transform="rotate(-45 293.856 179.141)" fill="#D7DDD4"/>
<path d="M321.202 134.977C321.381 134.668 321.711 134.477 322.068 134.477L331.873 134.477C332.23 134.477 332.56 134.668 332.739 134.977L337.641 143.468C337.82 143.778 337.82 144.159 337.641 144.468L332.739 152.959C332.56 153.269 332.23 153.459 331.873 153.459L322.068 153.459C321.711 153.459 321.381 153.269 321.202 152.959L316.3 144.468C316.121 144.159 316.121 143.778 316.3 143.468L321.202 134.977Z" fill="#C15757" stroke="#D7DDD4"/>
</svg>
