<svg width="157" height="694" viewBox="0 0 157 694" fill="none" xmlns="http://www.w3.org/2000/svg">
<path fill-rule="evenodd" clip-rule="evenodd" d="M42.0409 693.338L39.9197 693.692L39.1034 692.822L41.713 690.373L42.5293 691.243L42.0409 693.338Z" fill="#5E7B29"/>
<path fill-rule="evenodd" clip-rule="evenodd" d="M40.914 688.662L39.2278 688.608L39.2812 686.922L40.9675 686.975L40.914 688.662Z" fill="#5E7B29"/>
<path fill-rule="evenodd" clip-rule="evenodd" d="M41.0781 683.603L39.3918 683.55L39.4453 681.863L41.1316 681.917L41.0781 683.603Z" fill="#5E7B29"/>
<path fill-rule="evenodd" clip-rule="evenodd" d="M39.3731 684.395L36.7635 686.845L35.9471 685.975L36.4355 683.88L38.5567 683.526L39.3731 684.395Z" fill="#5E7B29"/>
<path fill-rule="evenodd" clip-rule="evenodd" d="M36.0234 683.439L34.3371 683.385L34.3906 681.699L36.0769 681.753L36.0234 683.439Z" fill="#5E7B29"/>
<path fill-rule="evenodd" clip-rule="evenodd" d="M38.6595 680.153L36.1301 680.073L37.0267 678.413L39.5561 678.494L38.6595 680.153Z" fill="#5E7B29"/>
<path fill-rule="evenodd" clip-rule="evenodd" d="M35.7714 677.947L33.6502 678.302L32.8338 677.432L35.4434 674.983L36.2598 675.852L35.7714 677.947Z" fill="#5E7B29"/>
<path fill-rule="evenodd" clip-rule="evenodd" d="M36.341 673.324L34.7082 671.585L34.7617 669.898L36.4212 670.795L36.341 673.324Z" fill="#5E7B29"/>
<path fill-rule="evenodd" clip-rule="evenodd" d="M31.3293 671.485L29.6965 669.745L29.75 668.059L31.4095 668.955L31.3293 671.485Z" fill="#5E7B29"/>
<path fill-rule="evenodd" clip-rule="evenodd" d="M33.9681 668.188L31.4387 668.108L32.3353 666.449L34.8647 666.529L33.9681 668.188Z" fill="#5E7B29"/>
<path fill-rule="evenodd" clip-rule="evenodd" d="M28.9079 668.023L24.826 663.674L27.4356 661.225L29.8848 663.834L29.7778 667.207L28.9079 668.023Z" fill="#5E7B29"/>
<path fill-rule="evenodd" clip-rule="evenodd" d="M25.8052 659.488L23.7108 658.999L23.3561 656.878L24.2259 656.062L26.6751 658.672L25.8052 659.488Z" fill="#5E7B29"/>
<path fill-rule="evenodd" clip-rule="evenodd" d="M23.3789 656.041L21.6926 655.987L21.7461 654.301L23.4323 654.354L23.3789 656.041Z" fill="#5E7B29"/>
<path fill-rule="evenodd" clip-rule="evenodd" d="M25.1718 652.716L23.4856 652.663L23.5391 650.977L25.2253 651.03L25.1718 652.716Z" fill="#5E7B29"/>
<path fill-rule="evenodd" clip-rule="evenodd" d="M27.0234 647.712L25.3371 647.659L25.3906 645.973L27.0769 646.026L27.0234 647.712Z" fill="#5E7B29"/>
<path fill-rule="evenodd" clip-rule="evenodd" d="M23.6496 647.606L22.0168 645.866L22.0703 644.18L23.7298 645.076L23.6496 647.606Z" fill="#5E7B29"/>
<path fill-rule="evenodd" clip-rule="evenodd" d="M26.3392 642.622L23.8098 642.542L24.7064 640.882L27.2358 640.962L26.3392 642.622Z" fill="#5E7B29"/>
<path fill-rule="evenodd" clip-rule="evenodd" d="M29.0312 637.646L27.3449 637.592L27.3984 635.906L29.0847 635.96L29.0312 637.646Z" fill="#5E7B29"/>
<path fill-rule="evenodd" clip-rule="evenodd" d="M27.4531 634.224L25.7668 634.171L25.8203 632.484L27.5066 632.538L27.4531 634.224Z" fill="#5E7B29"/>
<path fill-rule="evenodd" clip-rule="evenodd" d="M30.8749 632.638L29.1887 632.585L29.2422 630.898L30.9284 630.952L30.8749 632.638Z" fill="#5E7B29"/>
<path fill-rule="evenodd" clip-rule="evenodd" d="M29.246 630.904L27.5598 630.85L27.6133 629.164L29.2995 629.218L29.246 630.904Z" fill="#5E7B29"/>
<path fill-rule="evenodd" clip-rule="evenodd" d="M30.9804 629.267L29.2942 629.214L29.3477 627.527L31.0339 627.581L30.9804 629.267Z" fill="#5E7B29"/>
<path fill-rule="evenodd" clip-rule="evenodd" d="M28.563 625.816L26.4686 625.328L26.1139 623.206L26.9837 622.39L29.4329 625L28.563 625.816Z" fill="#5E7B29"/>
<path fill-rule="evenodd" clip-rule="evenodd" d="M26.1367 622.369L24.4504 622.315L24.5039 620.629L26.1902 620.682L26.1367 622.369Z" fill="#5E7B29"/>
<path fill-rule="evenodd" clip-rule="evenodd" d="M33.2031 612.458L31.5168 612.405L31.5703 610.719L33.2566 610.772L33.2031 612.458Z" fill="#5E7B29"/>
<path fill-rule="evenodd" clip-rule="evenodd" d="M28.7727 619.071L24.992 618.529L25.7715 613.912L26.484 611.403L26.5108 610.56L28.1703 611.456L28.1168 613.143L29.7495 614.882L28.8797 615.699L26.3503 615.618L27.1399 617.331L29.6693 617.412L28.7727 619.071Z" fill="#5E7B29"/>
<path fill-rule="evenodd" clip-rule="evenodd" d="M34.9453 610.822L33.259 610.768L33.3125 609.082L34.9987 609.136L34.9453 610.822Z" fill="#5E7B29"/>
<path fill-rule="evenodd" clip-rule="evenodd" d="M29.8828 610.666L28.1965 610.612L28.25 608.926L29.9362 608.979L29.8828 610.666Z" fill="#5E7B29"/>
<path fill-rule="evenodd" clip-rule="evenodd" d="M14.0814 603.415L11.552 603.335L12.4486 601.675L14.978 601.755L14.0814 603.415Z" fill="#5E7B29"/>
<path fill-rule="evenodd" clip-rule="evenodd" d="M32.4677 609.061L30.7814 609.008L28.3323 606.398L28.4928 601.339L29.3627 600.523L30.9954 602.263L35.211 602.396L34.3144 604.056L30.9419 603.949L30.0721 604.765L33.3376 608.245L32.4677 609.061Z" fill="#5E7B29"/>
<path fill-rule="evenodd" clip-rule="evenodd" d="M9.91911 601.594L8.28635 599.854L8.33984 598.168L9.99935 599.065L9.91911 601.594Z" fill="#5E7B29"/>
<path fill-rule="evenodd" clip-rule="evenodd" d="M34.8534 600.276L30.6377 600.143L30.3633 595.492L32.0228 596.389L31.9693 598.075L32.7857 598.945L34.5254 597.312L35.3418 598.182L34.8534 600.276Z" fill="#5E7B29"/>
<path fill-rule="evenodd" clip-rule="evenodd" d="M13.4531 596.638L11.7668 596.585L11.8203 594.898L13.5066 594.952L13.4531 596.638Z" fill="#5E7B29"/>
<path fill-rule="evenodd" clip-rule="evenodd" d="M38.9648 590.693L37.2785 590.639L37.332 588.953L39.0183 589.007L38.9648 590.693Z" fill="#5E7B29"/>
<path fill-rule="evenodd" clip-rule="evenodd" d="M36.3207 593.987L34.688 592.247L32.9482 593.88L31.262 593.826L30.4456 592.957L32.1853 591.324L32.3191 587.108L33.9786 588.005L34.3333 590.126L36.8359 591.049L37.1906 593.171L36.3207 593.987Z" fill="#5E7B29"/>
<path fill-rule="evenodd" clip-rule="evenodd" d="M37.4402 585.585L36.5435 587.244L35.7539 585.531L37.4402 585.585Z" fill="#5E7B29"/>
<path fill-rule="evenodd" clip-rule="evenodd" d="M37.4883 583.898L39.1478 584.795L37.4348 585.585L37.4883 583.898Z" fill="#5E7B29"/>
<path fill-rule="evenodd" clip-rule="evenodd" d="M35.7531 585.53L34.5018 585.068L34.582 582.539L37.4928 583.897L36.6497 583.871L35.7799 584.687L35.7531 585.53Z" fill="#5E7B29"/>
<path fill-rule="evenodd" clip-rule="evenodd" d="M40.5136 581.884L38.3924 582.239L37.576 581.369L40.1856 578.92L41.002 579.79L40.5136 581.884Z" fill="#5E7B29"/>
<path fill-rule="evenodd" clip-rule="evenodd" d="M37.5988 580.524L35.966 578.784L36.0195 577.098L37.679 577.994L37.5988 580.524Z" fill="#5E7B29"/>
<path fill-rule="evenodd" clip-rule="evenodd" d="M40.671 576.826L38.5498 577.181L36.1006 574.571L36.2344 570.355L37.8939 571.252L38.2486 573.373L40.7512 574.297L40.671 576.826Z" fill="#5E7B29"/>
<path fill-rule="evenodd" clip-rule="evenodd" d="M39.6026 570.463L37.9699 568.723L36.3639 566.14L37.2337 565.324L39.3282 565.812L39.6026 570.463Z" fill="#5E7B29"/>
<path fill-rule="evenodd" clip-rule="evenodd" d="M11.1855 588.132L9.49924 588.078L7.0501 585.469L8.23774 581.287L8.5555 577.921L7.53153 570.292L11.011 567.027L11.4994 564.933L13.6206 564.578L14.437 565.448L12.6973 567.08L14.223 572.193L13.3532 573.009L11.7204 571.269L10.0342 571.216L9.16428 572.032L12.4298 575.512L12.3763 577.198L10.6366 578.831L12.2693 580.57L12.1623 583.943L13.7951 585.683L11.1855 588.132ZM10.5028 583.046L10.5563 581.36L8.87008 581.307L8.81659 582.993L10.5028 583.046Z" fill="#5E7B29"/>
<path fill-rule="evenodd" clip-rule="evenodd" d="M11.0937 564.494L9.40745 564.44L9.46094 562.754L11.1472 562.807L11.0937 564.494Z" fill="#5E7B29"/>
<path fill-rule="evenodd" clip-rule="evenodd" d="M38.1289 563.666L36.4426 563.612L36.4961 561.926L38.1823 561.979L38.1289 563.666Z" fill="#5E7B29"/>
<path fill-rule="evenodd" clip-rule="evenodd" d="M13.679 562.891L11.1496 562.811L12.0462 561.152L14.5756 561.232L13.679 562.891Z" fill="#5E7B29"/>
<path fill-rule="evenodd" clip-rule="evenodd" d="M41.5636 562.086L39.9309 560.346L39.9844 558.66L41.6439 559.557L41.5636 562.086Z" fill="#5E7B29"/>
<path fill-rule="evenodd" clip-rule="evenodd" d="M38.2929 558.607L36.6067 558.553L36.6602 556.867L38.3464 556.921L38.2929 558.607Z" fill="#5E7B29"/>
<path fill-rule="evenodd" clip-rule="evenodd" d="M12.1517 557.778L9.62229 557.698L10.5189 556.038L13.0483 556.119L12.1517 557.778Z" fill="#5E7B29"/>
<path fill-rule="evenodd" clip-rule="evenodd" d="M41.7785 555.336L40.1457 553.596L40.1992 551.91L41.8587 552.807L41.7785 555.336Z" fill="#5E7B29"/>
<path fill-rule="evenodd" clip-rule="evenodd" d="M40.3007 548.544L38.6145 548.491L38.668 546.805L40.3542 546.858L40.3007 548.544Z" fill="#5E7B29"/>
<path fill-rule="evenodd" clip-rule="evenodd" d="M42.0429 546.908L40.3567 546.854L40.4102 545.168L42.0964 545.221L42.0429 546.908Z" fill="#5E7B29"/>
<path fill-rule="evenodd" clip-rule="evenodd" d="M41.7389 543.097L37.9315 543.398L35.4823 540.789L34.5119 531.474L34.6055 528.523L38.8211 528.657L41.4644 538.447L41.7389 543.097ZM38.9351 538.366L38.9886 536.68L37.3023 536.627L37.2488 538.313L38.9351 538.366ZM38.8281 541.739L38.8816 540.053L37.1953 539.999L37.1418 541.685L38.8281 541.739Z" fill="#5E7B29"/>
<path fill-rule="evenodd" clip-rule="evenodd" d="M12.6893 554L8.88188 554.301L8.0655 553.432L9.80524 551.799L8.27947 546.687L10.0192 545.054L9.20283 544.184L7.1084 543.696L6.80719 539.888L5.17443 538.148L6.91417 536.516L3.64866 533.036L3.70215 531.35L2.0694 529.61L2.93927 528.794L5.06045 528.439L5.54888 526.345L6.41875 525.528L10.5006 529.878L11.3673 535.813L10.5344 542.116L13.037 543.04L12.5218 545.977L11.5985 548.48L12.4149 549.35L14.1546 547.717L14.971 548.587L12.6893 554ZM7.1014 530.614L7.15489 528.928L5.46864 528.874L5.41515 530.56L7.1014 530.614ZM10.2599 537.466L10.3134 535.779L8.62717 535.726L8.57368 537.412L10.2599 537.466Z" fill="#5E7B29"/>
<path fill-rule="evenodd" clip-rule="evenodd" d="M38.4626 526.547L35.0901 526.44L34.2737 525.57L36.0135 523.937L34.3807 522.197L34.4342 520.511L35.3041 519.695L36.9368 521.434L38.6231 521.488L39.4394 522.358L37.6997 523.991L39.3325 525.73L38.4626 526.547Z" fill="#5E7B29"/>
<path fill-rule="evenodd" clip-rule="evenodd" d="M39.5234 519.822L37.8371 519.768L37.8906 518.082L39.5769 518.136L39.5234 519.822Z" fill="#5E7B29"/>
<path fill-rule="evenodd" clip-rule="evenodd" d="M35.3533 518.006L32.9041 515.397L33.774 514.58L35.4603 514.634L37.2 513.001L38.0164 513.871L37.9629 515.557L35.3533 518.006Z" fill="#5E7B29"/>
<path fill-rule="evenodd" clip-rule="evenodd" d="M32.9374 514.548L31.2512 514.495L31.3047 512.809L32.9909 512.862L32.9374 514.548Z" fill="#5E7B29"/>
<path fill-rule="evenodd" clip-rule="evenodd" d="M36.3671 512.978L34.6809 512.925L34.7344 511.238L36.4206 511.292L36.3671 512.978Z" fill="#5E7B29"/>
<path fill-rule="evenodd" clip-rule="evenodd" d="M34.7226 511.236L33.0364 511.182L33.0898 509.496L34.7761 509.55L34.7226 511.236Z" fill="#5E7B29"/>
<path fill-rule="evenodd" clip-rule="evenodd" d="M36.4726 509.599L34.7864 509.546L34.8398 507.859L36.5261 507.913L36.4726 509.599Z" fill="#5E7B29"/>
<path fill-rule="evenodd" clip-rule="evenodd" d="M29.7734 507.697L28.0871 507.643L28.1406 505.957L29.8269 506.011L29.7734 507.697Z" fill="#5E7B29"/>
<path fill-rule="evenodd" clip-rule="evenodd" d="M33.9949 507.835L32.3086 507.781L26.594 501.692L26.6475 500.006L25.0147 498.266L29.3641 494.185L30.1804 495.054L30.0735 498.427L31.7062 500.167L29.9665 501.799L30.7828 502.669L32.8773 503.158L33.232 505.279L34.8647 507.019L33.9949 507.835Z" fill="#5E7B29"/>
<path fill-rule="evenodd" clip-rule="evenodd" d="M24.2493 495.706L22.2619 491.845L24.4098 490.648L26.1495 489.015L28.5987 491.624L24.2493 495.706Z" fill="#5E7B29"/>
<path fill-rule="evenodd" clip-rule="evenodd" d="M21.0381 490.542L20.2217 489.673L19.2378 480.78L21.359 480.425L23.0987 478.792L23.9151 479.662L23.8616 481.348L22.1219 482.981L25.3874 486.461L21.0381 490.542Z" fill="#5E7B29"/>
<path fill-rule="evenodd" clip-rule="evenodd" d="M21.408 478.733L19.7217 478.679L18.9053 477.809L23.2547 473.727L24.9409 473.781L25.7573 474.651L21.408 478.733Z" fill="#5E7B29"/>
<path fill-rule="evenodd" clip-rule="evenodd" d="M27.4699 473.863L25.8371 472.124L25.8906 470.438L27.5501 471.334L27.4699 473.863Z" fill="#5E7B29"/>
<path fill-rule="evenodd" clip-rule="evenodd" d="M24.1523 472.076L22.466 472.022L22.5195 470.336L24.2058 470.389L24.1523 472.076Z" fill="#5E7B29"/>
<path fill-rule="evenodd" clip-rule="evenodd" d="M29.2656 470.548L27.5793 470.495L27.6328 468.809L29.3191 468.862L29.2656 470.548Z" fill="#5E7B29"/>
<path fill-rule="evenodd" clip-rule="evenodd" d="M25.8918 470.442L24.259 468.702L24.3125 467.016L25.972 467.912L25.8918 470.442Z" fill="#5E7B29"/>
<path fill-rule="evenodd" clip-rule="evenodd" d="M21.1015 461.845L19.4153 461.792L19.4688 460.105L21.155 460.159L21.1015 461.845Z" fill="#5E7B29"/>
<path fill-rule="evenodd" clip-rule="evenodd" d="M22.8359 460.22L21.1496 460.167L21.2031 458.48L22.8894 458.534L22.8359 460.22Z" fill="#5E7B29"/>
<path fill-rule="evenodd" clip-rule="evenodd" d="M26.3242 456.947L24.6379 456.893L24.6914 455.207L26.3777 455.261L26.3242 456.947Z" fill="#5E7B29"/>
<path fill-rule="evenodd" clip-rule="evenodd" d="M23.8446 455.184L22.2921 450.915L23.2422 447.569L23.2689 446.726L24.9284 447.623L24.7144 454.368L23.8446 455.184Z" fill="#5E7B29"/>
<path fill-rule="evenodd" clip-rule="evenodd" d="M22.4266 446.705L20.3322 446.217L20.4124 443.687L24.2198 443.386L25.0362 444.256L22.4266 446.705Z" fill="#5E7B29"/>
<path fill-rule="evenodd" clip-rule="evenodd" d="M22.6411 439.953L20.192 437.343L21.0619 436.527L23.1563 437.015L23.511 439.136L22.6411 439.953Z" fill="#5E7B29"/>
<path fill-rule="evenodd" clip-rule="evenodd" d="M20.2148 436.501L18.5285 436.448L18.582 434.762L20.2683 434.815L20.2148 436.501Z" fill="#5E7B29"/>
<path fill-rule="evenodd" clip-rule="evenodd" d="M22.8522 433.206L19.0715 432.664L18.7168 430.543L19.5866 429.726L21.2194 431.466L22.0893 430.65L21.3264 428.094L20.9984 425.129L23.5278 425.21L25.4618 430.757L22.8522 433.206Z" fill="#5E7B29"/>
<path fill-rule="evenodd" clip-rule="evenodd" d="M26.4427 426.568L22.3608 422.218L22.5213 417.16L20.8885 415.42L23.4981 412.971L25.1844 413.024L27.6335 415.634L27.3126 425.751L26.4427 426.568ZM25.76 421.482L25.8403 418.953L24.1808 418.056L24.1273 419.743L25.76 421.482Z" fill="#5E7B29"/>
<path fill-rule="evenodd" clip-rule="evenodd" d="M25.2376 411.345L22.7082 411.264L23.6048 409.605L26.1342 409.685L25.2376 411.345Z" fill="#5E7B29"/>
<path fill-rule="evenodd" clip-rule="evenodd" d="M24.7712 399.512L26.4308 400.408L26.19 407.996L24.5305 407.1L24.2293 403.292L21.7267 402.369L23.085 399.458L23.8746 401.171L24.7712 399.512Z" fill="#5E7B29"/>
<path fill-rule="evenodd" clip-rule="evenodd" d="M23.0766 399.455L23.5918 396.517L25.713 396.162L26.5293 397.032L24.7629 399.508L23.0766 399.455Z" fill="#5E7B29"/>
<path fill-rule="evenodd" clip-rule="evenodd" d="M19.9804 390.916L18.2942 390.862L18.3477 389.176L20.0339 389.229L19.9804 390.916Z" fill="#5E7B29"/>
<path fill-rule="evenodd" clip-rule="evenodd" d="M22.5579 389.313L20.0285 389.233L20.9252 387.574L23.4545 387.654L22.5579 389.313Z" fill="#5E7B29"/>
<path fill-rule="evenodd" clip-rule="evenodd" d="M25.2539 384.337L23.5676 384.284L23.6211 382.598L25.3073 382.651L25.2539 384.337Z" fill="#5E7B29"/>
<path fill-rule="evenodd" clip-rule="evenodd" d="M18.4999 384.123L16.8137 384.069L16.8672 382.383L18.5534 382.436L18.4999 384.123Z" fill="#5E7B29"/>
<path fill-rule="evenodd" clip-rule="evenodd" d="M26.9933 382.703L25.3606 380.964L25.4141 379.277L27.0736 380.174L26.9933 382.703Z" fill="#5E7B29"/>
<path fill-rule="evenodd" clip-rule="evenodd" d="M16.0841 380.667L15.7294 378.546L17.8773 377.348L18.6937 378.218L16.0841 380.667Z" fill="#5E7B29"/>
<path fill-rule="evenodd" clip-rule="evenodd" d="M20.4609 375.744L18.7746 375.69L18.8281 374.004L20.5144 374.057L20.4609 375.744Z" fill="#5E7B29"/>
<path fill-rule="evenodd" clip-rule="evenodd" d="M17.1367 373.943L15.4504 373.889L15.5039 372.203L17.1902 372.257L17.1367 373.943Z" fill="#5E7B29"/>
<path fill-rule="evenodd" clip-rule="evenodd" d="M19.7208 372.347L19.3661 370.226L21.5141 369.028L22.3304 369.898L19.7208 372.347Z" fill="#5E7B29"/>
<path fill-rule="evenodd" clip-rule="evenodd" d="M20.7226 367.314L19.0364 367.26L19.0898 365.574L20.7761 365.628L20.7226 367.314Z" fill="#5E7B29"/>
<path fill-rule="evenodd" clip-rule="evenodd" d="M22.4648 365.681L20.7785 365.628L20.832 363.941L22.5183 363.995L22.4648 365.681Z" fill="#5E7B29"/>
<path fill-rule="evenodd" clip-rule="evenodd" d="M20.996 358.88L19.3098 358.827L19.3633 357.141L21.0495 357.194L20.996 358.88Z" fill="#5E7B29"/>
<path fill-rule="evenodd" clip-rule="evenodd" d="M16.1445 351.97L14.4582 351.917L14.5117 350.23L16.198 350.284L16.1445 351.97Z" fill="#5E7B29"/>
<path fill-rule="evenodd" clip-rule="evenodd" d="M18.5161 357.115L16.4217 356.627L17.2011 352.01L17.9137 349.5L17.9405 348.657L19.6 349.554L21.1257 354.666L18.5161 357.115Z" fill="#5E7B29"/>
<path fill-rule="evenodd" clip-rule="evenodd" d="M17.5304 348.219L15.4092 348.574L14.5928 347.704L16.3326 346.071L16.821 343.977L18.9422 343.622L19.7586 344.492L18.0188 346.125L17.5304 348.219Z" fill="#5E7B29"/>
<path fill-rule="evenodd" clip-rule="evenodd" d="M16.8945 328.373L15.2082 328.319L15.2617 326.633L16.948 326.686L16.8945 328.373Z" fill="#5E7B29"/>
<path fill-rule="evenodd" clip-rule="evenodd" d="M15.4258 321.566L17.0853 322.463L15.3188 324.939L15.4258 321.566Z" fill="#5E7B29"/>
<path fill-rule="evenodd" clip-rule="evenodd" d="M15.3205 324.939L14.4239 326.598L12.3295 326.11L13.7412 321.513L13.661 324.042L14.4774 324.912L15.3205 324.939Z" fill="#5E7B29"/>
<path fill-rule="evenodd" clip-rule="evenodd" d="M13.7367 321.515L13.8169 318.985L12.1842 317.245L13.0541 316.429L14.7403 316.483L17.1894 319.092L15.423 321.568L13.7367 321.515Z" fill="#5E7B29"/>
<path fill-rule="evenodd" clip-rule="evenodd" d="M14.7962 314.798L12.2668 314.717L13.1634 313.058L15.6928 313.138L14.7962 314.798Z" fill="#5E7B29"/>
<path fill-rule="evenodd" clip-rule="evenodd" d="M17.3761 313.184L15.7434 311.444L15.7969 309.758L17.4564 310.654L17.3761 313.184Z" fill="#5E7B29"/>
<path fill-rule="evenodd" clip-rule="evenodd" d="M14.1093 309.712L12.4231 309.659L12.4766 307.973L14.1628 308.026L14.1093 309.712Z" fill="#5E7B29"/>
<path fill-rule="evenodd" clip-rule="evenodd" d="M19.3867 303.126L17.7004 303.073L17.7539 301.387L19.4402 301.44L19.3867 303.126Z" fill="#5E7B29"/>
<path fill-rule="evenodd" clip-rule="evenodd" d="M19.496 299.755L17.8098 299.702L17.8633 298.016L19.5495 298.069L19.496 299.755Z" fill="#5E7B29"/>
<path fill-rule="evenodd" clip-rule="evenodd" d="M18.3256 309.84L15.2976 305.524L14.4576 298.745L14.4844 297.902L16.1439 298.799L16.0369 302.171L19.3024 305.651L19.1954 309.023L18.3256 309.84Z" fill="#5E7B29"/>
<path fill-rule="evenodd" clip-rule="evenodd" d="M17.9101 296.326L16.2239 296.272L16.2773 294.586L17.9636 294.639L17.9101 296.326Z" fill="#5E7B29"/>
<path fill-rule="evenodd" clip-rule="evenodd" d="M18.8103 294.67L16.3612 292.061L18.9708 289.611L19.7872 290.481L19.6802 293.854L18.8103 294.67Z" fill="#5E7B29"/>
<path fill-rule="evenodd" clip-rule="evenodd" d="M19.8671 287.955L18.1809 287.901L18.2344 286.215L19.9206 286.268L19.8671 287.955Z" fill="#5E7B29"/>
<path fill-rule="evenodd" clip-rule="evenodd" d="M53.3555 243.441L55.015 244.338L53.2485 246.814L53.3555 243.441Z" fill="#5E7B29"/>
<path fill-rule="evenodd" clip-rule="evenodd" d="M64.3801 215.092L64.4068 214.249L65.2767 213.433L66.0664 215.146L64.3801 215.092Z" fill="#5E7B29"/>
<path fill-rule="evenodd" clip-rule="evenodd" d="M66.1718 211.775L64.4856 211.721L64.5391 210.035L66.2253 210.089L66.1718 211.775Z" fill="#5E7B29"/>
<path fill-rule="evenodd" clip-rule="evenodd" d="M73.9251 206.958L71.3957 206.878L72.2923 205.218L74.8217 205.298L73.9251 206.958Z" fill="#5E7B29"/>
<path fill-rule="evenodd" clip-rule="evenodd" d="M68.599 215.225L67.8094 213.512L69.5759 211.036L68.7595 210.166L66.6651 209.678L66.3104 207.557L68.92 205.108L69.7364 205.977L70.0911 208.099L72.1855 208.587L73.0019 209.457L71.2621 211.09L71.2087 212.776L68.599 215.225Z" fill="#5E7B29"/>
<path fill-rule="evenodd" clip-rule="evenodd" d="M71.4531 205.189L69.7668 205.135L69.8203 203.449L71.5066 203.503L71.4531 205.189Z" fill="#5E7B29"/>
<path fill-rule="evenodd" clip-rule="evenodd" d="M74.8749 203.611L73.1887 203.557L73.2422 201.871L74.9284 201.925L74.8749 203.611Z" fill="#5E7B29"/>
<path fill-rule="evenodd" clip-rule="evenodd" d="M73.246 201.865L71.5598 201.811L71.6133 200.125L73.2995 200.178L73.246 201.865Z" fill="#5E7B29"/>
<path fill-rule="evenodd" clip-rule="evenodd" d="M77.5618 198.638L75.0324 198.557L75.9291 196.898L78.4584 196.978L77.5618 198.638Z" fill="#5E7B29"/>
<path fill-rule="evenodd" clip-rule="evenodd" d="M73.3437 198.494L71.6574 198.44L71.7109 196.754L73.3972 196.807L73.3437 198.494Z" fill="#5E7B29"/>
<path fill-rule="evenodd" clip-rule="evenodd" d="M78.5117 195.287L76.8254 195.233L76.8789 193.547L78.5652 193.6L78.5117 195.287Z" fill="#5E7B29"/>
<path fill-rule="evenodd" clip-rule="evenodd" d="M75.091 196.867L73.4582 195.128L73.5117 193.441L75.1712 194.338L75.091 196.867Z" fill="#5E7B29"/>
<path fill-rule="evenodd" clip-rule="evenodd" d="M82.0468 190.337L80.3606 190.284L80.4141 188.598L82.1003 188.651L82.0468 190.337Z" fill="#5E7B29"/>
<path fill-rule="evenodd" clip-rule="evenodd" d="M78.6757 190.224L76.9895 190.171L77.043 188.484L78.7292 188.538L78.6757 190.224Z" fill="#5E7B29"/>
<path fill-rule="evenodd" clip-rule="evenodd" d="M21.6601 284.626L19.9739 284.573L20.0273 282.887L21.7136 282.94L21.6601 284.626Z" fill="#5E7B29"/>
<path fill-rule="evenodd" clip-rule="evenodd" d="M21.7656 281.263L20.0793 281.21L20.1328 279.523L21.8191 279.577L21.7656 281.263Z" fill="#5E7B29"/>
<path fill-rule="evenodd" clip-rule="evenodd" d="M21.8749 277.884L20.1887 277.831L20.2422 276.145L21.9284 276.198L21.8749 277.884Z" fill="#5E7B29"/>
<path fill-rule="evenodd" clip-rule="evenodd" d="M33.8398 273.197L32.1535 273.143L32.207 271.457L33.8933 271.511L33.8398 273.197Z" fill="#5E7B29"/>
<path fill-rule="evenodd" clip-rule="evenodd" d="M25.3566 274.625L23.7239 272.885L23.7773 271.199L25.4368 272.096L25.3566 274.625Z" fill="#5E7B29"/>
<path fill-rule="evenodd" clip-rule="evenodd" d="M37.2734 271.626L35.5871 271.573L35.6406 269.887L37.3269 269.94L37.2734 271.626Z" fill="#5E7B29"/>
<path fill-rule="evenodd" clip-rule="evenodd" d="M39.0078 269.99L37.3215 269.936L37.375 268.25L39.0612 268.303L39.0078 269.99Z" fill="#5E7B29"/>
<path fill-rule="evenodd" clip-rule="evenodd" d="M31.4173 269.751L28.8879 269.671L29.7845 268.011L32.3139 268.091L31.4173 269.751Z" fill="#5E7B29"/>
<path fill-rule="evenodd" clip-rule="evenodd" d="M33.996 268.138L32.3098 268.085L32.3633 266.398L34.0495 266.452L33.996 268.138Z" fill="#5E7B29"/>
<path fill-rule="evenodd" clip-rule="evenodd" d="M35.746 266.513L34.0598 266.46L34.1133 264.773L35.7995 264.827L35.746 266.513Z" fill="#5E7B29"/>
<path fill-rule="evenodd" clip-rule="evenodd" d="M40.9127 263.299L40.8325 265.828L39.9626 266.644L38.3298 264.905L36.2354 264.416L35.8807 262.295L39.3334 259.873L39.2532 262.402L40.0696 263.272L40.9127 263.299Z" fill="#5E7B29"/>
<path fill-rule="evenodd" clip-rule="evenodd" d="M39.3278 259.871L40.2244 258.212L41.1478 255.709L42.0177 254.893L44.4668 257.502L43.8714 262.969L40.9071 263.297L40.9873 260.768L40.1709 259.898L39.3278 259.871Z" fill="#5E7B29"/>
<path fill-rule="evenodd" clip-rule="evenodd" d="M46.289 253.341L44.6028 253.288L44.6562 251.602L46.3425 251.655L46.289 253.341Z" fill="#5E7B29"/>
<path fill-rule="evenodd" clip-rule="evenodd" d="M9.97473 253.878L9.62004 251.757L11.768 250.559L12.5843 251.429L9.97473 253.878Z" fill="#5E7B29"/>
<path fill-rule="evenodd" clip-rule="evenodd" d="M46.9729 258.426L44.5237 255.816L48.0032 252.55L48.0834 250.021L49.7429 250.918L47.8427 257.609L46.9729 258.426Z" fill="#5E7B29"/>
<path fill-rule="evenodd" clip-rule="evenodd" d="M9.23823 250.482L7.55198 250.428L7.60547 248.742L9.29172 248.796L9.23823 250.482Z" fill="#5E7B29"/>
<path fill-rule="evenodd" clip-rule="evenodd" d="M22.0462 245.825L19.5168 245.745L20.4134 244.085L22.9428 244.166L22.0462 245.825Z" fill="#5E7B29"/>
<path fill-rule="evenodd" clip-rule="evenodd" d="M17.725 249.061L16.0655 248.165L16.1992 243.949L17.8587 244.846L17.725 249.061Z" fill="#5E7B29"/>
<path fill-rule="evenodd" clip-rule="evenodd" d="M53.2486 246.81L52.352 248.47L50.6658 248.416L48.2166 245.807L49.9831 243.331L49.9564 244.174L52.4055 246.784L53.2486 246.81Z" fill="#5E7B29"/>
<path fill-rule="evenodd" clip-rule="evenodd" d="M19.5742 244.052L17.8879 243.999L17.9414 242.312L19.6277 242.366L19.5742 244.052Z" fill="#5E7B29"/>
<path fill-rule="evenodd" clip-rule="evenodd" d="M66.0669 215.153L67.7264 216.05L63.0561 230.249L60.9986 235.248L60.286 237.757L55.9366 241.839L53.3538 243.445L49.9813 243.338L50.008 242.495L53.4875 239.229L55.3342 234.224L58.8137 230.959L57.1809 229.219L57.7764 223.752L60.3325 222.989L60.8744 219.208L62.6141 217.576L60.9814 215.836L61.8512 215.02L64.3806 215.1L65.1703 216.813L66.0669 215.153ZM62.3734 225.164L62.4269 223.478L60.7407 223.424L60.6872 225.11L62.3734 225.164ZM60.5267 230.169L60.5802 228.483L58.8939 228.429L58.8404 230.116L60.5267 230.169ZM58.68 235.174L58.7335 233.488L57.0472 233.435L56.9937 235.121L58.68 235.174ZM56.8867 238.493L56.9402 236.807L55.254 236.754L55.2005 238.44L56.8867 238.493Z" fill="#5E7B29"/>
<path fill-rule="evenodd" clip-rule="evenodd" d="M23.843 242.506L20.524 240.713L19.6809 240.686L20.5775 239.027L24.3582 239.569L24.7129 241.69L23.843 242.506Z" fill="#5E7B29"/>
<path fill-rule="evenodd" clip-rule="evenodd" d="M28.4336 230.828L30.0931 231.725L28.3801 232.514L28.4336 230.828Z" fill="#5E7B29"/>
<path fill-rule="evenodd" clip-rule="evenodd" d="M28.3763 232.519L26.6099 234.994L28.2426 236.734L25.633 239.183L23.1839 236.574L24.1072 234.071L26.7436 230.779L26.7168 231.622L27.5332 232.492L28.3763 232.519Z" fill="#5E7B29"/>
<path fill-rule="evenodd" clip-rule="evenodd" d="M26.7434 230.784L26.7701 229.941L27.64 229.124L28.4296 230.837L26.7434 230.784Z" fill="#5E7B29"/>
<path fill-rule="evenodd" clip-rule="evenodd" d="M30.2226 227.509L28.5364 227.456L28.5898 225.77L30.2761 225.823L30.2226 227.509Z" fill="#5E7B29"/>
<path fill-rule="evenodd" clip-rule="evenodd" d="M38.7148 226.095L37.0285 226.042L37.082 224.355L38.7683 224.409L38.7148 226.095Z" fill="#5E7B29"/>
<path fill-rule="evenodd" clip-rule="evenodd" d="M31.9648 225.88L30.2785 225.827L30.332 224.141L32.0183 224.194L31.9648 225.88Z" fill="#5E7B29"/>
<path fill-rule="evenodd" clip-rule="evenodd" d="M42.1445 224.517L40.4582 224.464L40.5117 222.777L42.198 222.831L42.1445 224.517Z" fill="#5E7B29"/>
<path fill-rule="evenodd" clip-rule="evenodd" d="M37.0781 224.353L35.3918 224.3L35.4453 222.613L37.1316 222.667L37.0781 224.353Z" fill="#5E7B29"/>
<path fill-rule="evenodd" clip-rule="evenodd" d="M40.5078 222.775L38.8215 222.721L38.875 221.035L40.5612 221.089L40.5078 222.775Z" fill="#5E7B29"/>
<path fill-rule="evenodd" clip-rule="evenodd" d="M42.3593 217.767L40.6731 217.714L40.7266 216.027L42.4128 216.081L42.3593 217.767Z" fill="#5E7B29"/>
<path fill-rule="evenodd" clip-rule="evenodd" d="M43.7401 214.013L41.619 214.368L40.8026 213.498L43.4122 211.049L44.2286 211.919L43.7401 214.013Z" fill="#5E7B29"/>
<path fill-rule="evenodd" clip-rule="evenodd" d="M2.99723 181.082L1.36448 179.342L1.41797 177.656L3.07747 178.553L2.99723 181.082Z" fill="#5E7B29"/>
<path fill-rule="evenodd" clip-rule="evenodd" d="M84.8479 181.98L84.0315 181.11L84.1385 177.738L82.5057 175.998L85.1153 173.549L88.896 174.091L88.8158 176.62L86.6946 176.975L85.8247 177.791L87.4575 179.531L84.8479 181.98Z" fill="#5E7B29"/>
<path fill-rule="evenodd" clip-rule="evenodd" d="M87.6953 171.951L86.009 171.897L86.0625 170.211L87.7487 170.264L87.6953 171.951Z" fill="#5E7B29"/>
<path fill-rule="evenodd" clip-rule="evenodd" d="M98.0234 165.521L96.3371 165.467L96.3906 163.781L98.0769 163.835L98.0234 165.521Z" fill="#5E7B29"/>
<path fill-rule="evenodd" clip-rule="evenodd" d="M99.7695 163.892L98.0832 163.839L98.1367 162.152L99.823 162.206L99.7695 163.892Z" fill="#5E7B29"/>
<path fill-rule="evenodd" clip-rule="evenodd" d="M101.609 158.88L99.9231 158.827L99.9766 157.141L101.663 157.194L101.609 158.88Z" fill="#5E7B29"/>
<path fill-rule="evenodd" clip-rule="evenodd" d="M108.519 154.037L106.833 153.983L106.887 152.297L108.573 152.35L108.519 154.037Z" fill="#5E7B29"/>
<path fill-rule="evenodd" clip-rule="evenodd" d="M103.354 157.253L101.694 156.356L101.828 152.141L103.488 153.037L103.354 157.253Z" fill="#5E7B29"/>
<path fill-rule="evenodd" clip-rule="evenodd" d="M106.883 152.302L105.197 152.249L105.25 150.562L106.936 150.616L106.883 152.302Z" fill="#5E7B29"/>
<path fill-rule="evenodd" clip-rule="evenodd" d="M108.625 150.666L106.939 150.612L106.992 148.926L108.678 148.979L108.625 150.666Z" fill="#5E7B29"/>
<path fill-rule="evenodd" clip-rule="evenodd" d="M106.988 148.927L105.302 148.874L105.355 147.188L107.042 147.241L106.988 148.927Z" fill="#5E7B29"/>
<path fill-rule="evenodd" clip-rule="evenodd" d="M112.105 147.4L110.419 147.346L110.473 145.66L112.159 145.714L112.105 147.4Z" fill="#5E7B29"/>
<path fill-rule="evenodd" clip-rule="evenodd" d="M56.5625 142.266L58.222 143.162L56.509 143.952L56.5625 142.266Z" fill="#5E7B29"/>
<path fill-rule="evenodd" clip-rule="evenodd" d="M113.002 145.737L112.647 143.616L114.795 142.418L115.612 143.288L113.002 145.737Z" fill="#5E7B29"/>
<path fill-rule="evenodd" clip-rule="evenodd" d="M110.523 143.978L108.837 143.925L108.891 142.238L110.577 142.292L110.523 143.978Z" fill="#5E7B29"/>
<path fill-rule="evenodd" clip-rule="evenodd" d="M119.062 140.865L117.376 140.811L117.43 139.125L119.116 139.178L119.062 140.865Z" fill="#5E7B29"/>
<path fill-rule="evenodd" clip-rule="evenodd" d="M59.2532 137.282L56.7239 137.202L57.6205 135.542L60.1498 135.623L59.2532 137.282Z" fill="#5E7B29"/>
<path fill-rule="evenodd" clip-rule="evenodd" d="M120.917 135.862L122.576 136.759L122.088 138.853L119.177 137.495L120.02 137.522L120.89 136.705L120.917 135.862Z" fill="#5E7B29"/>
<path fill-rule="evenodd" clip-rule="evenodd" d="M119.171 137.496L116.641 137.416L115.825 136.546L116.695 135.73L119.224 135.81L119.171 137.496Z" fill="#5E7B29"/>
<path fill-rule="evenodd" clip-rule="evenodd" d="M125.969 136.021L124.282 135.967L124.336 134.281L126.022 134.335L125.969 136.021Z" fill="#5E7B29"/>
<path fill-rule="evenodd" clip-rule="evenodd" d="M119.224 135.811L119.251 134.968L120.12 134.152L120.91 135.865L119.224 135.811Z" fill="#5E7B29"/>
<path fill-rule="evenodd" clip-rule="evenodd" d="M72.0585 132.626L70.3723 132.573L70.4258 130.887L72.112 130.94L72.0585 132.626Z" fill="#5E7B29"/>
<path fill-rule="evenodd" clip-rule="evenodd" d="M73.8007 130.994L72.1145 130.94L72.168 129.254L73.8542 129.307L73.8007 130.994Z" fill="#5E7B29"/>
<path fill-rule="evenodd" clip-rule="evenodd" d="M66.2181 130.755L63.6887 130.675L64.5853 129.015L67.1147 129.095L66.2181 130.755Z" fill="#5E7B29"/>
<path fill-rule="evenodd" clip-rule="evenodd" d="M146.363 131.607L144.677 131.553L144.73 129.867L146.417 129.921L146.363 131.607Z" fill="#5E7B29"/>
<path fill-rule="evenodd" clip-rule="evenodd" d="M143.047 129.822L141.361 129.768L141.414 128.082L143.1 128.136L143.047 129.822Z" fill="#5E7B29"/>
<path fill-rule="evenodd" clip-rule="evenodd" d="M132.926 129.494L131.239 129.44L131.293 127.754L132.979 127.807L132.926 129.494Z" fill="#5E7B29"/>
<path fill-rule="evenodd" clip-rule="evenodd" d="M77.2812 127.736L75.5949 127.682L75.6484 125.996L77.3347 126.05L77.2812 127.736Z" fill="#5E7B29"/>
<path fill-rule="evenodd" clip-rule="evenodd" d="M130.451 127.726L130.097 125.605L133.931 124.46L134.774 124.487L133.877 126.146L132.191 126.093L130.451 127.726Z" fill="#5E7B29"/>
<path fill-rule="evenodd" clip-rule="evenodd" d="M73.1193 125.909L72.7646 123.788L74.9125 122.59L75.7289 123.46L73.1193 125.909Z" fill="#5E7B29"/>
<path fill-rule="evenodd" clip-rule="evenodd" d="M139.725 128.022L138.065 127.126L138.199 122.91L139.859 123.807L139.725 128.022Z" fill="#5E7B29"/>
<path fill-rule="evenodd" clip-rule="evenodd" d="M77.4374 122.669L75.7512 122.616L75.8047 120.93L77.4909 120.983L77.4374 122.669Z" fill="#5E7B29"/>
<path fill-rule="evenodd" clip-rule="evenodd" d="M136.512 122.857L134.825 122.803L134.879 121.117L136.565 121.171L136.512 122.857Z" fill="#5E7B29"/>
<path fill-rule="evenodd" clip-rule="evenodd" d="M84.2968 119.513L82.6106 119.46L82.6641 117.773L84.3503 117.827L84.2968 119.513Z" fill="#5E7B29"/>
<path fill-rule="evenodd" clip-rule="evenodd" d="M79.2382 119.349L77.552 119.296L77.6055 117.609L79.2917 117.663L79.2382 119.349Z" fill="#5E7B29"/>
<path fill-rule="evenodd" clip-rule="evenodd" d="M91.1445 116.349L89.4582 116.296L89.5117 114.609L91.198 114.663L91.1445 116.349Z" fill="#5E7B29"/>
<path fill-rule="evenodd" clip-rule="evenodd" d="M87.7734 116.248L86.0871 116.194L86.1406 114.508L87.8269 114.561L87.7734 116.248Z" fill="#5E7B29"/>
<path fill-rule="evenodd" clip-rule="evenodd" d="M101.477 109.935L99.7903 109.882L99.8438 108.195L101.53 108.249L101.477 109.935Z" fill="#5E7B29"/>
<path fill-rule="evenodd" clip-rule="evenodd" d="M95.5735 109.747L93.0442 109.667L93.9408 108.007L96.4702 108.087L95.5735 109.747Z" fill="#5E7B29"/>
<path fill-rule="evenodd" clip-rule="evenodd" d="M101.582 106.556L99.8957 106.503L99.9492 104.816L101.635 104.87L101.582 106.556Z" fill="#5E7B29"/>
<path fill-rule="evenodd" clip-rule="evenodd" d="M98.2109 106.447L96.5246 106.393L96.5781 104.707L98.2644 104.761L98.2109 106.447Z" fill="#5E7B29"/>
<path fill-rule="evenodd" clip-rule="evenodd" d="M103.324 104.919L101.638 104.866L101.691 103.18L103.378 103.233L103.324 104.919Z" fill="#5E7B29"/>
<path fill-rule="evenodd" clip-rule="evenodd" d="M105.957 101.632L102.177 101.09L102.311 96.8748L104.432 96.5201L105.302 95.7038L103.669 93.964L106.278 91.5149L107.095 92.3848L107.858 94.9409L108.186 97.9052L103.535 98.1796L104.325 99.8926L106.854 99.9729L105.957 101.632Z" fill="#5E7B29"/>
<path fill-rule="evenodd" clip-rule="evenodd" d="M144.903 97.8008L139.002 97.6136L139.898 95.954L142.428 96.0343L141.638 94.3213L137.857 93.7794L137.938 91.25L142.555 92.0294L145.064 92.742L145.88 93.6119L144.141 95.2447L145.773 96.9844L144.903 97.8008Z" fill="#5E7B29"/>
<path fill-rule="evenodd" clip-rule="evenodd" d="M142.641 89.2905L140.954 89.237L141.008 87.5508L142.694 87.6043L142.641 89.2905Z" fill="#5E7B29"/>
<path fill-rule="evenodd" clip-rule="evenodd" d="M104.6 91.4602L104.68 88.9308L106.065 85.1768L108.595 85.2571L108.461 89.4727L106.34 89.8274L104.6 91.4602Z" fill="#5E7B29"/>
<path fill-rule="evenodd" clip-rule="evenodd" d="M109.082 83.1616L108.239 83.1349L107.422 82.265L109.135 81.4754L109.082 83.1616Z" fill="#5E7B29"/>
<path fill-rule="evenodd" clip-rule="evenodd" d="M144.648 79.228L143.805 79.2013L142.989 78.3314L144.702 77.5418L144.648 79.228Z" fill="#5E7B29"/>
<path fill-rule="evenodd" clip-rule="evenodd" d="M144.754 75.853L143.068 75.7995L143.121 74.1133L144.807 74.1668L144.754 75.853Z" fill="#5E7B29"/>
<path fill-rule="evenodd" clip-rule="evenodd" d="M6.58588 174.435L4.89963 174.382L4.95312 172.695L6.63937 172.749L6.58588 174.435Z" fill="#5E7B29"/>
<path fill-rule="evenodd" clip-rule="evenodd" d="M8.08182 180.391L5.5257 181.154L4.70933 180.284L6.44907 178.651L5.63269 177.781L3.10331 177.701L3.99993 176.041L19.5506 164.719L21.1834 166.459L22.9231 164.826L23.7395 165.696L23.1976 169.477L18.9552 170.186L18.4668 172.28L15.8572 174.73L14.1709 174.676L11.5613 177.125L11.0729 179.22L8.08182 180.391ZM20.2868 168.118L20.3402 166.432L18.654 166.379L18.6005 168.065L20.2868 168.118ZM13.3813 172.963L13.4348 171.277L11.7485 171.223L11.695 172.91L13.3813 172.963Z" fill="#5E7B29"/>
<path fill-rule="evenodd" clip-rule="evenodd" d="M7.5878 169.409L0.949789 165.822L0.106664 165.796L1.00328 164.136L4.37578 164.243L8.45767 168.592L7.5878 169.409Z" fill="#5E7B29"/>
<path fill-rule="evenodd" clip-rule="evenodd" d="M23.8242 163.166L22.1379 163.112L22.1914 161.426L23.8777 161.479L23.8242 163.166Z" fill="#5E7B29"/>
<path fill-rule="evenodd" clip-rule="evenodd" d="M2.8001 160.813L0.270727 160.733L1.16734 159.074L3.69672 159.154L2.8001 160.813Z" fill="#5E7B29"/>
<path fill-rule="evenodd" clip-rule="evenodd" d="M29.6728 165.04L25.8386 166.185L25.9723 161.969L29.7798 161.668L30.6496 160.851L29.0169 159.112L29.8868 158.295L34.1291 157.586L40.4659 157.365L40.8206 159.486L39.9508 160.302L38.318 158.563L36.5783 160.195L34.4571 160.55L33.5337 163.053L29.6728 165.04ZM28.8297 165.013L28.8832 163.327L27.1969 163.274L27.1434 164.96L28.8297 165.013Z" fill="#5E7B29"/>
<path fill-rule="evenodd" clip-rule="evenodd" d="M2.06635 157.416L0.380102 157.362L0.433594 155.676L2.11984 155.729L2.06635 157.416Z" fill="#5E7B29"/>
<path fill-rule="evenodd" clip-rule="evenodd" d="M43.4368 157.036L40.9074 156.956L41.8041 155.296L44.3334 155.377L43.4368 157.036Z" fill="#5E7B29"/>
<path fill-rule="evenodd" clip-rule="evenodd" d="M8.07354 154.235L5.54416 154.155L6.44078 152.495L8.97015 152.576L8.07354 154.235Z" fill="#5E7B29"/>
<path fill-rule="evenodd" clip-rule="evenodd" d="M49.4999 152.166L47.8137 152.112L47.8672 150.426L49.5534 150.479L49.4999 152.166Z" fill="#5E7B29"/>
<path fill-rule="evenodd" clip-rule="evenodd" d="M40.1178 155.239L39.7631 153.118L41.911 151.92L45.3905 148.654L46.2068 149.524L45.6649 153.305L41.8575 153.606L40.1178 155.239Z" fill="#5E7B29"/>
<path fill-rule="evenodd" clip-rule="evenodd" d="M6.54494 149.117L2.32932 148.983L3.22594 147.324L7.44156 147.457L6.54494 149.117Z" fill="#5E7B29"/>
<path fill-rule="evenodd" clip-rule="evenodd" d="M11.606 149.277L9.15685 146.667L10.0267 145.851L12.1212 146.339L12.4759 148.461L11.606 149.277Z" fill="#5E7B29"/>
<path fill-rule="evenodd" clip-rule="evenodd" d="M51.2902 148.852L49.6574 147.112L49.7109 145.426L51.3704 146.322L51.2902 148.852Z" fill="#5E7B29"/>
<path fill-rule="evenodd" clip-rule="evenodd" d="M47.9191 148.742L46.2864 147.003L46.3398 145.316L47.9993 146.213L47.9191 148.742Z" fill="#5E7B29"/>
<path fill-rule="evenodd" clip-rule="evenodd" d="M56.5144 143.948L55.6178 145.608L54.8281 143.895L56.5144 143.948Z" fill="#5E7B29"/>
<path fill-rule="evenodd" clip-rule="evenodd" d="M12.6093 144.251L10.9231 144.198L10.9766 142.512L12.6628 142.565L12.6093 144.251Z" fill="#5E7B29"/>
<path fill-rule="evenodd" clip-rule="evenodd" d="M7.55073 144.087L5.86448 144.034L5.91797 142.348L7.60422 142.401L7.55073 144.087Z" fill="#5E7B29"/>
<path fill-rule="evenodd" clip-rule="evenodd" d="M54.8229 143.895L52.2935 143.815L51.4772 142.945L52.347 142.128L54.8764 142.209L54.8229 143.895Z" fill="#5E7B29"/>
<path fill-rule="evenodd" clip-rule="evenodd" d="M13.5579 140.907L11.0285 140.827L11.9252 139.167L14.4545 139.248L13.5579 140.907Z" fill="#5E7B29"/>
<path fill-rule="evenodd" clip-rule="evenodd" d="M16.1445 139.294L14.4582 139.241L14.5117 137.555L16.198 137.608L16.1445 139.294Z" fill="#5E7B29"/>
<path fill-rule="evenodd" clip-rule="evenodd" d="M11.0859 139.134L9.39963 139.081L9.45312 137.395L11.1394 137.448L11.0859 139.134Z" fill="#5E7B29"/>
<path fill-rule="evenodd" clip-rule="evenodd" d="M54.8786 142.211L55.0123 137.995L55.8822 137.179L58.3313 139.789L56.5648 142.265L54.8786 142.211Z" fill="#5E7B29"/>
<path fill-rule="evenodd" clip-rule="evenodd" d="M7.81635 135.65L6.1301 135.596L6.18359 133.91L7.86984 133.964L7.81635 135.65Z" fill="#5E7B29"/>
<path fill-rule="evenodd" clip-rule="evenodd" d="M11.9855 137.47L11.1959 135.757L14.7021 131.648L13.0693 129.908L13.1228 128.222L17.4722 124.14L19.1584 124.194L19.9748 125.064L16.4953 128.329L18.1281 130.069L16.3883 131.702L18.0211 133.441L17.5327 135.536L13.7252 135.837L11.9855 137.47Z" fill="#5E7B29"/>
<path fill-rule="evenodd" clip-rule="evenodd" d="M16.6798 122.429L15.0203 121.532L15.5622 117.752L19.7778 117.885L20.1325 120.007L19.2626 120.823L17.6299 119.083L16.76 119.9L16.6798 122.429Z" fill="#5E7B29"/>
<path fill-rule="evenodd" clip-rule="evenodd" d="M15.1523 117.322L13.466 117.268L13.5195 115.582L15.2058 115.636L15.1523 117.322Z" fill="#5E7B29"/>
<path fill-rule="evenodd" clip-rule="evenodd" d="M18.582 115.744L16.8957 115.69L16.9492 114.004L18.6355 114.057L18.582 115.744Z" fill="#5E7B29"/>
<path fill-rule="evenodd" clip-rule="evenodd" d="M18.6847 112.363L17.052 110.624L17.1055 108.938L18.765 109.834L18.6847 112.363Z" fill="#5E7B29"/>
<path fill-rule="evenodd" clip-rule="evenodd" d="M16.1044 113.975L12.7319 113.868L11.9155 112.998L13.6553 111.366L13.7088 109.679L12.076 107.94L14.6856 105.49L15.502 106.36L15.3415 111.419L16.9743 113.159L16.1044 113.975Z" fill="#5E7B29"/>
<path fill-rule="evenodd" clip-rule="evenodd" d="M18.0579 105.599L15.5285 105.518L16.4252 103.859L18.9545 103.939L18.0579 105.599Z" fill="#5E7B29"/>
<path fill-rule="evenodd" clip-rule="evenodd" d="M15.582 103.826L13.8957 103.772L13.9492 102.086L15.6355 102.139L15.582 103.826Z" fill="#5E7B29"/>
<path fill-rule="evenodd" clip-rule="evenodd" d="M20.287 101.866L16.0713 101.733L15.7969 97.082L17.4564 97.9786L17.4029 99.6649L18.2193 100.535L19.959 98.902L20.7754 99.7719L20.287 101.866Z" fill="#5E7B29"/>
<path fill-rule="evenodd" clip-rule="evenodd" d="M20.8566 97.2502L19.2239 95.5105L19.2773 93.8242L20.9368 94.7208L20.8566 97.2502Z" fill="#5E7B29"/>
<path fill-rule="evenodd" clip-rule="evenodd" d="M21.0156 92.1929L19.3293 92.1394L19.3828 90.4531L21.0691 90.5066L21.0156 92.1929Z" fill="#5E7B29"/>
<path fill-rule="evenodd" clip-rule="evenodd" d="M17.5864 93.7661L15.9269 92.8695L16.0339 89.497L17.7737 87.8643L16.1409 86.1245L18.7505 83.6754L20.8717 83.3207L21.3601 81.2263L21.3869 80.3831L23.0464 81.2797L22.5045 85.0604L19.9483 85.8233L17.6132 92.923L17.5864 93.7661Z" fill="#5E7B29"/>
<path fill-rule="evenodd" clip-rule="evenodd" d="M19.7031 80.3335L18.0168 80.28L18.0703 78.5938L19.7566 78.6472L19.7031 80.3335Z" fill="#5E7B29"/>
<path fill-rule="evenodd" clip-rule="evenodd" d="M23.1796 77.0601L21.4934 77.0066L21.5469 75.3203L23.2331 75.3738L23.1796 77.0601Z" fill="#5E7B29"/>
<path fill-rule="evenodd" clip-rule="evenodd" d="M19.8085 76.9546L18.1223 76.9011L18.1758 75.2148L19.862 75.2683L19.8085 76.9546Z" fill="#5E7B29"/>
<path fill-rule="evenodd" clip-rule="evenodd" d="M24.5683 73.3102L22.4471 73.6649L21.6307 72.795L24.2403 70.3459L25.0567 71.2157L24.5683 73.3102Z" fill="#5E7B29"/>
<path fill-rule="evenodd" clip-rule="evenodd" d="M114.299 78.2714L114.353 76.5852L112.666 76.5317L112.613 78.2179L114.299 78.2714ZM109.133 81.4834L109.819 79.8172L111.007 75.6351L113.616 73.1859L115.249 74.9257L116.119 74.1093L116.199 71.5799L117.042 71.6067L117.912 70.7903L117.939 69.9471L119.599 70.8438L119.492 74.2163L116.012 77.4818L115.905 80.8543L111.556 84.9362L109.08 83.1697L110.793 82.38L109.133 81.4834Z" fill="#5E7B29"/>
<path fill-rule="evenodd" clip-rule="evenodd" d="M153.349 71.0606L153.402 69.3743L151.716 69.3208L151.663 71.0071L153.349 71.0606ZM149.762 77.6986L149.816 76.0123L148.13 75.9589L148.076 77.6451L149.762 77.6986ZM144.704 77.5381L144.73 76.695L147.34 74.2459L149.026 74.2994L149.896 73.483L148.263 71.7432L148.752 69.6488L150.873 69.2941L154.352 66.0286L156.802 68.6382L155.062 70.2709L156.695 72.0107L154.085 74.4598L152.399 74.4063L151.529 75.2227L153.162 76.9625L147.073 82.6771L144.65 79.2244L146.363 78.4347L144.704 77.5381Z" fill="#5E7B29"/>
<path fill-rule="evenodd" clip-rule="evenodd" d="M116.196 71.5785L114.945 71.1168L114.59 68.9956L120.679 63.281L121.496 64.1508L121.442 65.8371L117.936 69.9457L117.093 69.919L116.223 70.7354L116.196 71.5785Z" fill="#5E7B29"/>
<path fill-rule="evenodd" clip-rule="evenodd" d="M123.262 61.6694L121.575 61.6159L121.629 59.9297L123.315 59.9832L123.262 61.6694Z" fill="#5E7B29"/>
<path fill-rule="evenodd" clip-rule="evenodd" d="M119.837 63.2463L118.204 61.5066L118.258 59.8203L119.917 60.7169L119.837 63.2463Z" fill="#5E7B29"/>
<path fill-rule="evenodd" clip-rule="evenodd" d="M126.855 55.0327L125.169 54.9792L125.223 53.293L126.909 53.3465L126.855 55.0327Z" fill="#5E7B29"/>
<path fill-rule="evenodd" clip-rule="evenodd" d="M120.785 59.9085L119.969 59.0386L120.156 53.1367L121.816 54.0333L121.762 55.7196L123.395 57.4593L120.785 59.9085Z" fill="#5E7B29"/>
<path fill-rule="evenodd" clip-rule="evenodd" d="M126.114 51.6339L124.481 49.8941L122.741 51.5269L121.925 50.657L121.978 48.9708L124.588 46.5216L126.221 48.2614L127.907 48.3149L128.723 49.1847L126.114 51.6339Z" fill="#5E7B29"/>
<path fill-rule="evenodd" clip-rule="evenodd" d="M130.439 48.3908L128.806 46.6511L128.859 44.9648L130.519 45.8615L130.439 48.3908Z" fill="#5E7B29"/>
<path fill-rule="evenodd" clip-rule="evenodd" d="M127.117 46.603L125.431 46.5495L125.484 44.8633L127.171 44.9168L127.117 46.603Z" fill="#5E7B29"/>
<path fill-rule="evenodd" clip-rule="evenodd" d="M128.91 43.2827L127.224 43.2292L127.277 41.543L128.964 41.5965L128.91 43.2827Z" fill="#5E7B29"/>
<path fill-rule="evenodd" clip-rule="evenodd" d="M134.025 41.7619L132.392 40.0222L132.445 38.3359L134.105 39.2326L134.025 41.7619Z" fill="#5E7B29"/>
<path fill-rule="evenodd" clip-rule="evenodd" d="M136.605 40.148L135.788 39.2781L135.895 35.9056L136.765 35.0892L139.214 37.6989L136.605 40.148Z" fill="#5E7B29"/>
<path fill-rule="evenodd" clip-rule="evenodd" d="M141.038 33.5379L140.141 35.1974L139.352 33.4844L141.038 33.5379Z" fill="#5E7B29"/>
<path fill-rule="evenodd" clip-rule="evenodd" d="M139.346 33.4856L138.095 33.0239L138.175 30.4945L140.297 30.1398L142.036 28.5071L144.485 31.1167L141.033 33.5391L140.243 31.8261L139.373 32.6425L139.346 33.4856Z" fill="#5E7B29"/>
<path fill-rule="evenodd" clip-rule="evenodd" d="M142.992 25.1616L141.306 25.1081L141.359 23.4219L143.046 23.4754L142.992 25.1616Z" fill="#5E7B29"/>
<path fill-rule="evenodd" clip-rule="evenodd" d="M148.049 25.3193L146.39 24.4227L146.523 20.207L148.183 21.1036L148.049 25.3193Z" fill="#5E7B29"/>
<path fill-rule="evenodd" clip-rule="evenodd" d="M144.785 21.8452L143.099 21.7917L143.152 20.1055L144.839 20.159L144.785 21.8452Z" fill="#5E7B29"/>
<path fill-rule="evenodd" clip-rule="evenodd" d="M21.8164 66.8921L20.1301 66.8386L20.1836 65.1523L21.8698 65.2058L21.8164 66.8921Z" fill="#5E7B29"/>
<path fill-rule="evenodd" clip-rule="evenodd" d="M25.2433 65.3127L23.6106 63.573L23.6641 61.8867L25.3236 62.7833L25.2433 65.3127Z" fill="#5E7B29"/>
<path fill-rule="evenodd" clip-rule="evenodd" d="M22.9251 58.4891L20.3957 58.4089L21.2923 56.7494L23.8217 56.8296L22.9251 58.4891Z" fill="#5E7B29"/>
<path fill-rule="evenodd" clip-rule="evenodd" d="M23.0357 55.1168L20.5865 52.5072L21.4564 51.6908L23.5508 52.1792L23.9055 54.3004L23.0357 55.1168Z" fill="#5E7B29"/>
<path fill-rule="evenodd" clip-rule="evenodd" d="M18.9218 51.603L17.2356 51.5495L17.2891 49.8633L18.9753 49.9168L18.9218 51.603Z" fill="#5E7B29"/>
<path fill-rule="evenodd" clip-rule="evenodd" d="M17.2929 49.8686L15.6067 49.8152L15.6602 48.1289L17.3464 48.1824L17.2929 49.8686Z" fill="#5E7B29"/>
<path fill-rule="evenodd" clip-rule="evenodd" d="M14.8179 48.0986L14.0282 46.3856L15.7947 43.9097L14.1619 42.17L14.6504 40.0756L16.7716 39.7209L19.2207 42.3305L17.481 43.9632L17.4275 45.6495L14.8179 48.0986Z" fill="#5E7B29"/>
<path fill-rule="evenodd" clip-rule="evenodd" d="M22.8334 34.857L22.3183 37.7945L20.1971 38.1492L19.3807 37.2794L21.1472 34.8035L22.8334 34.857Z" fill="#5E7B29"/>
<path fill-rule="evenodd" clip-rule="evenodd" d="M16.8785 36.3561L13.0978 35.8142L13.178 33.2848L15.2992 32.9301L17.7484 35.5398L16.8785 36.3561Z" fill="#5E7B29"/>
<path fill-rule="evenodd" clip-rule="evenodd" d="M21.1481 34.7985L19.8967 34.3368L19.5955 30.5294L22.2052 28.0802L23.8379 29.82L25.5242 29.8735L26.3405 30.7433L24.6008 32.3761L22.8343 34.852L22.9145 32.3226L22.0982 31.4527L21.2283 32.2691L21.1481 34.7985Z" fill="#5E7B29"/>
<path fill-rule="evenodd" clip-rule="evenodd" d="M15.3544 31.2408L11.1388 31.107L12.0354 29.4475L13.7217 29.501L16.3313 27.0519L16.465 22.8363L18.1245 23.7329L17.964 28.7916L15.3544 31.2408Z" fill="#5E7B29"/>
<path fill-rule="evenodd" clip-rule="evenodd" d="M13.1445 21.0444L11.4582 20.9909L11.5117 19.3047L13.198 19.3582L13.1445 21.0444Z" fill="#5E7B29"/>
<path fill-rule="evenodd" clip-rule="evenodd" d="M16.518 21.1474L14.8585 20.2508L14.9922 16.0352L16.6517 16.9318L16.518 21.1474Z" fill="#5E7B29"/>
<path fill-rule="evenodd" clip-rule="evenodd" d="M13.2499 17.6733L11.5637 17.6198L11.6172 15.9336L13.3034 15.9871L13.2499 17.6733Z" fill="#5E7B29"/>
<path fill-rule="evenodd" clip-rule="evenodd" d="M18.4179 14.4585L16.7317 14.405L16.7852 12.7188L18.4714 12.7722L18.4179 14.4585Z" fill="#5E7B29"/>
<path fill-rule="evenodd" clip-rule="evenodd" d="M13.3593 14.2944L11.6731 14.2409L11.7266 12.5547L13.4128 12.6082L13.3593 14.2944Z" fill="#5E7B29"/>
<path fill-rule="evenodd" clip-rule="evenodd" d="M15.9368 12.6923L13.4074 12.612L14.3041 10.9525L16.8334 11.0328L15.9368 12.6923Z" fill="#5E7B29"/>
<path fill-rule="evenodd" clip-rule="evenodd" d="M15.2031 9.28662L13.5168 9.23312L13.5703 7.54688L15.2566 7.60037L15.2031 9.28662Z" fill="#5E7B29"/>
<path fill-rule="evenodd" clip-rule="evenodd" d="M14.8964 5.48595L12.7752 5.84065L11.9588 4.97078L14.5684 2.52164L15.3848 3.39151L14.8964 5.48595Z" fill="#5E7B29"/>
<path fill-rule="evenodd" clip-rule="evenodd" d="M13.7304 2.49365L12.0442 2.44016L12.0977 0.753906L13.7839 0.807398L13.7304 2.49365Z" fill="#5E7B29"/>
<path fill-rule="evenodd" clip-rule="evenodd" d="M16.3157 0.887581L13.7864 0.807343L14.683 -0.85216L17.2123 -0.771922L16.3157 0.887581Z" fill="#5E7B29"/>
</svg>
